;TYPE=PLATED
;Layer: PTH_Through
;EasyEDA Pro v3.2.166, 2026-07-28 22:39:37
;Gerber Generator version 0.3
M48
METRIC,LZ,0000.00000
;Hole size 1 = 0.30480 METRIC
T01C0.30480
;Hole size 2 = 0.80000 METRIC
T02C0.80000
;Hole size 3 = 1.00000 METRIC
T03C1.00000
;Hole size 4 = 1.10002 METRIC
T04C1.10002
;Hole size 5 = 1.20000 METRIC
T05C1.20000
;Hole size 6 = 1.50002 METRIC
T06C1.50002
;Hole size 7 = 1.90002 METRIC
T07C1.90002
;Hole size 8 = 3.20040 METRIC
T08C3.20040
%
G05
G90
T01
X73.533Y-29.591
T02
X70.40408Y-21.46287G85X69.80408Y-21.46287
X72.94408Y-21.46287G85X72.34408Y-21.46287
X67.86408Y-21.46287G85X67.26408Y-21.46287
X78.597Y-59.944
X76.597Y-59.944
T03
X82.931Y-27.051
X85.471Y-27.051
X81.43905Y-53.467
X72.73895Y-53.467
X89.408Y-72.04105
X89.408Y-63.34095
X93.345Y-80.137
X95.885Y-80.137
X2.667Y-44.25391
X2.667Y-41.71391
X94.742Y-88.519
X94.742Y-91.059
X96.647Y-64.135
X94.107Y-64.135
X59.436Y-76.962
X56.896Y-76.962
T04
X66.548Y-39.751
X66.548Y-44.831
X71.628Y-39.751
X71.628Y-44.831
X75.00099Y-68.23913
X75.00099Y-70.73913
X75.00099Y-73.23912
X96.979Y-18.415
X96.979Y-15.875
X96.979Y-13.335
X96.979Y-10.795
X92.583Y-18.542
X92.583Y-16.002
X92.583Y-13.462
X92.583Y-10.922
X88.011Y-18.415
X88.011Y-15.875
X88.011Y-13.335
X88.011Y-10.795
X51.562Y-81.026
X54.102Y-81.026
X56.642Y-81.026
X59.182Y-81.026
T05
X89.09385Y-42.29095
X81.59399Y-42.29087
X60.94684Y-42.47591
X92.16548Y-53.72293
X83.185Y-14.859
X93.726Y-31.242
X75.56487Y-82.92605
X78.10487Y-82.93605
X73.02487Y-82.92605
X96.088Y-71.97039
X86.96099Y-94.86501
X86.72398Y-87.46439
T06
X2.62001Y-63.45301
X2.62001Y-23.45299
X58.62Y-23.45299
X58.62Y-63.45301
X70.104Y-16.129
X75.438Y-87.376
T07
X67.85101Y-65.83909G85X68.15101Y-65.83909
X67.85101Y-75.63891G85X68.15101Y-75.63891
T08
X96.0Y-96.0
X4.0Y-96.0
X4.0Y-4.0
X96.0Y-4.0
M30