G04 Layer: TopSilkscreenLayer*
G04 EasyEDA Pro v3.2.166, 2026-07-28 22:39:37*
G04 Gerber Generator version 0.3*
G04 Scale: 100 percent, Rotated: No, Reflected: No*
G04 Dimensions in millimeters*
G04 Leading zeros omitted, absolute positions, 4 integers and 5 decimals*
G04 Generated by one-click*
G04 Object Configs: Pad,Via,Track,Text,Image,Dimension,BoardOutline,BoardCutout,CopperFilled,SolidRegion,FPCStiffener,Line,PlaneZone,ComponentProperty,ComponentSilkscreen,TearDrop*
G04 Layer Configs: 1,2,3,4,5,6,7,8,9,10,11,13,14,56*
G04 Copper Areas: 0*
%FSLAX45Y45*%
%MOMM*%
%ADD10C,0.1524*%
%ADD11C,0.254*%
%ADD12C,0.2032*%
%ADD13C,0.4*%
%ADD14C,0.15199*%
%ADD15C,0.3029*%
%ADD16C,0.3*%
G75*


G04 Text Start*
G54D10*
G01X9700260Y-8899398D02*
G01X9693910Y-8902446D01*
G01X9687814Y-8908796D01*
G01X9684766Y-8914892D01*
G01X9684766Y-8927338D01*
G01X9687814Y-8933434D01*
G01X9693910Y-8939784D01*
G01X9700260Y-8942832D01*
G01X9709404Y-8945880D01*
G01X9724898Y-8945880D01*
G01X9734296Y-8942832D01*
G01X9740392Y-8939784D01*
G01X9746742Y-8933434D01*
G01X9749790Y-8927338D01*
G01X9749790Y-8914892D01*
G01X9746742Y-8908796D01*
G01X9740392Y-8902446D01*
G01X9734296Y-8899398D01*
G01X9724898Y-8899398D01*
G01X9724898Y-8914892D02*
G01X9724898Y-8899398D01*
G01X9684766Y-8869172D02*
G01X9749790Y-8869172D01*
G01X9684766Y-8869172D02*
G01X9749790Y-8825992D01*
G01X9684766Y-8825992D02*
G01X9749790Y-8825992D01*
G01X9684766Y-8795766D02*
G01X9749790Y-8795766D01*
G01X9684766Y-8795766D02*
G01X9684766Y-8774176D01*
G01X9687814Y-8765032D01*
G01X9693910Y-8758682D01*
G01X9700260Y-8755634D01*
G01X9709404Y-8752586D01*
G01X9724898Y-8752586D01*
G01X9734296Y-8755634D01*
G01X9740392Y-8758682D01*
G01X9746742Y-8765032D01*
G01X9749790Y-8774176D01*
G01X9749790Y-8795766D01*
G01X9672066Y-9174480D02*
G01X9737090Y-9149588D01*
G01X9672066Y-9124950D02*
G01X9737090Y-9149588D01*
G01X9672066Y-9076182D02*
G01X9675114Y-9082532D01*
G01X9681210Y-9088628D01*
G01X9687560Y-9091676D01*
G01X9696704Y-9094724D01*
G01X9712198Y-9094724D01*
G01X9721596Y-9091676D01*
G01X9727692Y-9088628D01*
G01X9734042Y-9082532D01*
G01X9737090Y-9076182D01*
G01X9737090Y-9063990D01*
G01X9734042Y-9057640D01*
G01X9727692Y-9051544D01*
G01X9721596Y-9048496D01*
G01X9712198Y-9045194D01*
G01X9696704Y-9045194D01*
G01X9687560Y-9048496D01*
G01X9681210Y-9051544D01*
G01X9675114Y-9057640D01*
G01X9672066Y-9063990D01*
G01X9672066Y-9076182D01*
G01X9343915Y-6153929D02*
G01X9368807Y-6218953D01*
G01X9393445Y-6153929D02*
G01X9368807Y-6218953D01*
G01X9442213Y-6153929D02*
G01X9435863Y-6156977D01*
G01X9429767Y-6163073D01*
G01X9426719Y-6169423D01*
G01X9423671Y-6178567D01*
G01X9423671Y-6194061D01*
G01X9426719Y-6203459D01*
G01X9429767Y-6209555D01*
G01X9435863Y-6215905D01*
G01X9442213Y-6218953D01*
G01X9454405Y-6218953D01*
G01X9460755Y-6215905D01*
G01X9466851Y-6209555D01*
G01X9469899Y-6203459D01*
G01X9473201Y-6194061D01*
G01X9473201Y-6178567D01*
G01X9469899Y-6169423D01*
G01X9466851Y-6163073D01*
G01X9460755Y-6156977D01*
G01X9454405Y-6153929D01*
G01X9442213Y-6153929D01*
G01X9615609Y-6172084D02*
G01X9612561Y-6165734D01*
G01X9606211Y-6159638D01*
G01X9600115Y-6156590D01*
G01X9587669Y-6156590D01*
G01X9581573Y-6159638D01*
G01X9575223Y-6165734D01*
G01X9572175Y-6172084D01*
G01X9569127Y-6181228D01*
G01X9569127Y-6196722D01*
G01X9572175Y-6206120D01*
G01X9575223Y-6212216D01*
G01X9581573Y-6218566D01*
G01X9587669Y-6221614D01*
G01X9600115Y-6221614D01*
G01X9606211Y-6218566D01*
G01X9612561Y-6212216D01*
G01X9615609Y-6206120D01*
G01X9615609Y-6196722D01*
G01X9600115Y-6196722D02*
G01X9615609Y-6196722D01*
G01X9645835Y-6156590D02*
G01X9645835Y-6221614D01*
G01X9645835Y-6156590D02*
G01X9689015Y-6221614D01*
G01X9689015Y-6156590D02*
G01X9689015Y-6221614D01*
G01X9719241Y-6156590D02*
G01X9719241Y-6221614D01*
G01X9719241Y-6156590D02*
G01X9740831Y-6156590D01*
G01X9749975Y-6159638D01*
G01X9756325Y-6165734D01*
G01X9759373Y-6172084D01*
G01X9762421Y-6181228D01*
G01X9762421Y-6196722D01*
G01X9759373Y-6206120D01*
G01X9756325Y-6212216D01*
G01X9749975Y-6218566D01*
G01X9740831Y-6221614D01*
G01X9719241Y-6221614D01*
G36*
G01X4201005Y-9686258D02*
G01X4201005Y-9678407D01*
G01X4201928Y-9669170D01*
G01X4203775Y-9666400D01*
G01X4224557Y-9645618D01*
G01X4230099Y-9639152D01*
G01X4253190Y-9616061D01*
G01X4258732Y-9609596D01*
G01X4277205Y-9591123D01*
G01X4282746Y-9584658D01*
G01X4287365Y-9580040D01*
G01X4291059Y-9575421D01*
G01X4293368Y-9573112D01*
G01X4295215Y-9570803D01*
G01X4297986Y-9567570D01*
G01X4300757Y-9563876D01*
G01X4303066Y-9560643D01*
G01X4305375Y-9556949D01*
G01X4307223Y-9553716D01*
G01X4309994Y-9547250D01*
G01X4311379Y-9543556D01*
G01X4312303Y-9539861D01*
G01X4312765Y-9531087D01*
G01X4311841Y-9520465D01*
G01X4309994Y-9514461D01*
G01X4308146Y-9510767D01*
G01X4306299Y-9507534D01*
G01X4303990Y-9504301D01*
G01X4297525Y-9497836D01*
G01X4295215Y-9495989D01*
G01X4291983Y-9494141D01*
G01X4286903Y-9492294D01*
G01X4282746Y-9490909D01*
G01X4279052Y-9490447D01*
G01X4274434Y-9489985D01*
G01X4270739Y-9489985D01*
G01X4261503Y-9490909D01*
G01X4256885Y-9491832D01*
G01X4252266Y-9493218D01*
G01X4244877Y-9496912D01*
G01X4237488Y-9502454D01*
G01X4235179Y-9504763D01*
G01X4231485Y-9509381D01*
G01X4229175Y-9513076D01*
G01X4226866Y-9517232D01*
G01X4225481Y-9521850D01*
G01X4224557Y-9526007D01*
G01X4224095Y-9530625D01*
G01X4224095Y-9533858D01*
G01X4200081Y-9533858D01*
G01X4200081Y-9531087D01*
G01X4200543Y-9524160D01*
G01X4201928Y-9516770D01*
G01X4203775Y-9511690D01*
G01X4205623Y-9507534D01*
G01X4207470Y-9503840D01*
G01X4209317Y-9500607D01*
G01X4211165Y-9497836D01*
G01X4216706Y-9490909D01*
G01X4221325Y-9486290D01*
G01X4224557Y-9483520D01*
G01X4227790Y-9481210D01*
G01X4233332Y-9477516D01*
G01X4236103Y-9476130D01*
G01X4239335Y-9474745D01*
G01X4243030Y-9473360D01*
G01X4247186Y-9471974D01*
G01X4251805Y-9470589D01*
G01X4255961Y-9469665D01*
G01X4261041Y-9469203D01*
G01X4267045Y-9468741D01*
G01X4270739Y-9468741D01*
G01X4275357Y-9469203D01*
G01X4281823Y-9469665D01*
G01X4287365Y-9470589D01*
G01X4294754Y-9472436D01*
G01X4298910Y-9473821D01*
G01X4303066Y-9475669D01*
G01X4307685Y-9477978D01*
G01X4311379Y-9480287D01*
G01X4314150Y-9482134D01*
G01X4318768Y-9485829D01*
G01X4326619Y-9493680D01*
G01X4329852Y-9498298D01*
G01X4332161Y-9501992D01*
G01X4333546Y-9505225D01*
G01X4334932Y-9508920D01*
G01X4336317Y-9513076D01*
G01X4337241Y-9516770D01*
G01X4337703Y-9520927D01*
G01X4338165Y-9526007D01*
G01X4338165Y-9529701D01*
G01X4337241Y-9538014D01*
G01X4336317Y-9543094D01*
G01X4334932Y-9548636D01*
G01X4333546Y-9552330D01*
G01X4332161Y-9555563D01*
G01X4328466Y-9562952D01*
G01X4326157Y-9566647D01*
G01X4323848Y-9569880D01*
G01X4322463Y-9572189D01*
G01X4320615Y-9574498D01*
G01X4315997Y-9580040D01*
G01X4310455Y-9586505D01*
G01X4308146Y-9588814D01*
G01X4304452Y-9593432D01*
G01X4297525Y-9600360D01*
G01X4293830Y-9604978D01*
G01X4238412Y-9660396D01*
G01X4236565Y-9663167D01*
G01X4236103Y-9665014D01*
G01X4343245Y-9665014D01*
G01X4343245Y-9686258D01*
G01X4201005Y-9686258D01*
G37*
G36*
G01X4607405Y-9686258D02*
G01X4607405Y-9592047D01*
G01X4606943Y-9496450D01*
G01X4606135Y-9495758D01*
G01X4604634Y-9496450D01*
G01X4601401Y-9498760D01*
G01X4596783Y-9502454D01*
G01X4585699Y-9510767D01*
G01X4581081Y-9514461D01*
G01X4569997Y-9522774D01*
G01X4565379Y-9526469D01*
G01X4557990Y-9532010D01*
G01X4556951Y-9530163D01*
G01X4556605Y-9522774D01*
G01X4557066Y-9510305D01*
G01X4558914Y-9507072D01*
G01X4563532Y-9503378D01*
G01X4567226Y-9500607D01*
G01X4571845Y-9496912D01*
G01X4575539Y-9494141D01*
G01X4580157Y-9490447D01*
G01X4583852Y-9487676D01*
G01X4588470Y-9483981D01*
G01X4592165Y-9481210D01*
G01X4601401Y-9473821D01*
G01X4605095Y-9471050D01*
G01X4609945Y-9469665D01*
G01X4619874Y-9469203D01*
G01X4632343Y-9469203D01*
G01X4632343Y-9686258D01*
G01X4607405Y-9686258D01*
G37*
G36*
G01X4452695Y-9690876D02*
G01X4441150Y-9690414D01*
G01X4436994Y-9689490D01*
G01X4427757Y-9687643D01*
G01X4422677Y-9686258D01*
G01X4417597Y-9684410D01*
G01X4410208Y-9680716D01*
G01X4406052Y-9678407D01*
G01X4402819Y-9676560D01*
G01X4400510Y-9674712D01*
G01X4398201Y-9672403D01*
G01X4393583Y-9668709D01*
G01X4389888Y-9664090D01*
G01X4387117Y-9660858D01*
G01X4384346Y-9656701D01*
G01X4382037Y-9652545D01*
G01X4380190Y-9647927D01*
G01X4378805Y-9644232D01*
G01X4376957Y-9635920D01*
G01X4376495Y-9632225D01*
G01X4376495Y-9629916D01*
G01X4388041Y-9629916D01*
G01X4400510Y-9630840D01*
G01X4401895Y-9634072D01*
G01X4402819Y-9637767D01*
G01X4404205Y-9641923D01*
G01X4406514Y-9647003D01*
G01X4409285Y-9651160D01*
G01X4411594Y-9654392D01*
G01X4414826Y-9657625D01*
G01X4419445Y-9660858D01*
G01X4423139Y-9663167D01*
G01X4426372Y-9664552D01*
G01X4430066Y-9665938D01*
G01X4434223Y-9667323D01*
G01X4437917Y-9668247D01*
G01X4446230Y-9669170D01*
G01X4450848Y-9669632D01*
G01X4455466Y-9669170D01*
G01X4463779Y-9668247D01*
G01X4468397Y-9667323D01*
G01X4473477Y-9665938D01*
G01X4477634Y-9664090D01*
G01X4482252Y-9661781D01*
G01X4486870Y-9658549D01*
G01X4490565Y-9655778D01*
G01X4492874Y-9653469D01*
G01X4495183Y-9650236D01*
G01X4497492Y-9646541D01*
G01X4499339Y-9642847D01*
G01X4500725Y-9638690D01*
G01X4501648Y-9634996D01*
G01X4502110Y-9629454D01*
G01X4501648Y-9621141D01*
G01X4500263Y-9613752D01*
G01X4498415Y-9608210D01*
G01X4496106Y-9604054D01*
G01X4492874Y-9599898D01*
G01X4490103Y-9596665D01*
G01X4487794Y-9594818D01*
G01X4485023Y-9592970D01*
G01X4481790Y-9591123D01*
G01X4478095Y-9589276D01*
G01X4473477Y-9587429D01*
G01X4468397Y-9586043D01*
G01X4464703Y-9585120D01*
G01X4443921Y-9584658D01*
G01X4424525Y-9584658D01*
G01X4424525Y-9564338D01*
G01X4437455Y-9564338D01*
G01X4451772Y-9563876D01*
G01X4460085Y-9562952D01*
G01X4464241Y-9562029D01*
G01X4468859Y-9560643D01*
G01X4473015Y-9558796D01*
G01X4479481Y-9555563D01*
G01X4481790Y-9553716D01*
G01X4487332Y-9548174D01*
G01X4490565Y-9543556D01*
G01X4492874Y-9538938D01*
G01X4494259Y-9535243D01*
G01X4495183Y-9526930D01*
G01X4495183Y-9524621D01*
G01X4494721Y-9520927D01*
G01X4494259Y-9515847D01*
G01X4492874Y-9510767D01*
G01X4491026Y-9506610D01*
G01X4489641Y-9503378D01*
G01X4487794Y-9500607D01*
G01X4483175Y-9495989D01*
G01X4480866Y-9494141D01*
G01X4478095Y-9492294D01*
G01X4474863Y-9490447D01*
G01X4470245Y-9488600D01*
G01X4465626Y-9487214D01*
G01X4458237Y-9486290D01*
G01X4453157Y-9485829D01*
G01X4448077Y-9486290D01*
G01X4443921Y-9486752D01*
G01X4437917Y-9487676D01*
G01X4433299Y-9489061D01*
G01X4429605Y-9490447D01*
G01X4425910Y-9492294D01*
G01X4422215Y-9494603D01*
G01X4418983Y-9496912D01*
G01X4416674Y-9498760D01*
G01X4414365Y-9501069D01*
G01X4412055Y-9504301D01*
G01X4409746Y-9507996D01*
G01X4407899Y-9511690D01*
G01X4406514Y-9515847D01*
G01X4405590Y-9519541D01*
G01X4405128Y-9522774D01*
G01X4402126Y-9524160D01*
G01X4393121Y-9524621D01*
G01X4381114Y-9524621D01*
G01X4381575Y-9520927D01*
G01X4382961Y-9514000D01*
G01X4384346Y-9509381D01*
G01X4385270Y-9506149D01*
G01X4386655Y-9502916D01*
G01X4390350Y-9495527D01*
G01X4392197Y-9492756D01*
G01X4394045Y-9490447D01*
G01X4395892Y-9487676D01*
G01X4398663Y-9484905D01*
G01X4401434Y-9482596D01*
G01X4403743Y-9480287D01*
G01X4406052Y-9478440D01*
G01X4411594Y-9474745D01*
G01X4414826Y-9472898D01*
G01X4418983Y-9471050D01*
G01X4423601Y-9469203D01*
G01X4427757Y-9467818D01*
G01X4436994Y-9465970D01*
G01X4442535Y-9465509D01*
G01X4449001Y-9465047D01*
G01X4452695Y-9465047D01*
G01X4464703Y-9465970D01*
G01X4469783Y-9466894D01*
G01X4476248Y-9468280D01*
G01X4481790Y-9470127D01*
G01X4485946Y-9471974D01*
G01X4489179Y-9473360D01*
G01X4492874Y-9475207D01*
G01X4497030Y-9477978D01*
G01X4500263Y-9480287D01*
G01X4502572Y-9482134D01*
G01X4509499Y-9489061D01*
G01X4511808Y-9492294D01*
G01X4514117Y-9495989D01*
G01X4515965Y-9499683D01*
G01X4517812Y-9504763D01*
G01X4519197Y-9509381D01*
G01X4520121Y-9518618D01*
G01X4520121Y-9521389D01*
G01X4519659Y-9526007D01*
G01X4518735Y-9532472D01*
G01X4517350Y-9537090D01*
G01X4516426Y-9540323D01*
G01X4515041Y-9543556D01*
G01X4513194Y-9546789D01*
G01X4509499Y-9552330D01*
G01X4507190Y-9555101D01*
G01X4502572Y-9559720D01*
G01X4498877Y-9562490D01*
G01X4494721Y-9565261D01*
G01X4491488Y-9567109D01*
G01X4487332Y-9568956D01*
G01X4477634Y-9572189D01*
G01X4476941Y-9572766D01*
G01X4477634Y-9573574D01*
G01X4482252Y-9574960D01*
G01X4488255Y-9576345D01*
G01X4493797Y-9578192D01*
G01X4497954Y-9580040D01*
G01X4501648Y-9581887D01*
G01X4505805Y-9584196D01*
G01X4509961Y-9587429D01*
G01X4513655Y-9590200D01*
G01X4517350Y-9594818D01*
G01X4519659Y-9597589D01*
G01X4521968Y-9601283D01*
G01X4523815Y-9604978D01*
G01X4525201Y-9608672D01*
G01X4526586Y-9613752D01*
G01X4527510Y-9618370D01*
G01X4527972Y-9625760D01*
G01X4527510Y-9633149D01*
G01X4527048Y-9636381D01*
G01X4526125Y-9641461D01*
G01X4524277Y-9647465D01*
G01X4522430Y-9651621D01*
G01X4520583Y-9655316D01*
G01X4518274Y-9659472D01*
G01X4515503Y-9663629D01*
G01X4512732Y-9666861D01*
G01X4507190Y-9672403D01*
G01X4502572Y-9676098D01*
G01X4495645Y-9680716D01*
G01X4492874Y-9682101D01*
G01X4489641Y-9683487D01*
G01X4485485Y-9685334D01*
G01X4479943Y-9687181D01*
G01X4474863Y-9688567D01*
G01X4471168Y-9689490D01*
G01X4463779Y-9690414D01*
G01X4452695Y-9690876D01*
G37*
G36*
G01X4682219Y-9686258D02*
G01X4682219Y-9677483D01*
G01X4682565Y-9670671D01*
G01X4683605Y-9667785D01*
G01X4697459Y-9653930D01*
G01X4703001Y-9647465D01*
G01X4728401Y-9622065D01*
G01X4732095Y-9617447D01*
G01X4755186Y-9594356D01*
G01X4758881Y-9589738D01*
G01X4765808Y-9582810D01*
G01X4771350Y-9576345D01*
G01X4773659Y-9574036D01*
G01X4781048Y-9564800D01*
G01X4783357Y-9561567D01*
G01X4785666Y-9557872D01*
G01X4787514Y-9554640D01*
G01X4789361Y-9550945D01*
G01X4791208Y-9546789D01*
G01X4792594Y-9542632D01*
G01X4793517Y-9538938D01*
G01X4793979Y-9533396D01*
G01X4793517Y-9526007D01*
G01X4792594Y-9520465D01*
G01X4791208Y-9515385D01*
G01X4789361Y-9511229D01*
G01X4787514Y-9507534D01*
G01X4785205Y-9504301D01*
G01X4779663Y-9498760D01*
G01X4775506Y-9495989D01*
G01X4772274Y-9494141D01*
G01X4768117Y-9492294D01*
G01X4763961Y-9490909D01*
G01X4760266Y-9490447D01*
G01X4755648Y-9489985D01*
G01X4751954Y-9489985D01*
G01X4748259Y-9490447D01*
G01X4742717Y-9490909D01*
G01X4736252Y-9492294D01*
G01X4731634Y-9494141D01*
G01X4727939Y-9495989D01*
G01X4724706Y-9497836D01*
G01X4721935Y-9499683D01*
G01X4719165Y-9501992D01*
G01X4713623Y-9507534D01*
G01X4710852Y-9511690D01*
G01X4709005Y-9514923D01*
G01X4707157Y-9519080D01*
G01X4705772Y-9523236D01*
G01X4705310Y-9526930D01*
G01X4704848Y-9531549D01*
G01X4704386Y-9533858D01*
G01X4681295Y-9533858D01*
G01X4681295Y-9529701D01*
G01X4681757Y-9523236D01*
G01X4682681Y-9518618D01*
G01X4684066Y-9513538D01*
G01X4685914Y-9508458D01*
G01X4687761Y-9504763D01*
G01X4689608Y-9501530D01*
G01X4691455Y-9498760D01*
G01X4692841Y-9496450D01*
G01X4694688Y-9494141D01*
G01X4703925Y-9484905D01*
G01X4706234Y-9483058D01*
G01X4709466Y-9480749D01*
G01X4713161Y-9478440D01*
G01X4716394Y-9476592D01*
G01X4720088Y-9474745D01*
G01X4727477Y-9471974D01*
G01X4732557Y-9470589D01*
G01X4737175Y-9469665D01*
G01X4742255Y-9469203D01*
G01X4748259Y-9468741D01*
G01X4751954Y-9468741D01*
G01X4763037Y-9469665D01*
G01X4768117Y-9470589D01*
G01X4774583Y-9471974D01*
G01X4779663Y-9473821D01*
G01X4784281Y-9475669D01*
G01X4787975Y-9477516D01*
G01X4791670Y-9479825D01*
G01X4796288Y-9483058D01*
G01X4799983Y-9485829D01*
G01X4806910Y-9492756D01*
G01X4809219Y-9495989D01*
G01X4811528Y-9499683D01*
G01X4813375Y-9502916D01*
G01X4814761Y-9506149D01*
G01X4816146Y-9509843D01*
G01X4817532Y-9514461D01*
G01X4818455Y-9518618D01*
G01X4818917Y-9526469D01*
G01X4818455Y-9537090D01*
G01X4817070Y-9544480D01*
G01X4815223Y-9550483D01*
G01X4813375Y-9555101D01*
G01X4811528Y-9559258D01*
G01X4809219Y-9563414D01*
G01X4806448Y-9567570D01*
G01X4804139Y-9570803D01*
G01X4802754Y-9573112D01*
G01X4800906Y-9575421D01*
G01X4796288Y-9580963D01*
G01X4790746Y-9587429D01*
G01X4787514Y-9590661D01*
G01X4784743Y-9594356D01*
G01X4766270Y-9612829D01*
G01X4762575Y-9617447D01*
G01X4718703Y-9661320D01*
G01X4716855Y-9663629D01*
G01X4730017Y-9664668D01*
G01X4770426Y-9665014D01*
G01X4824459Y-9665014D01*
G01X4824459Y-9686258D01*
G01X4682219Y-9686258D01*
G37*
G36*
G01X4863252Y-9686258D02*
G01X4863252Y-9678869D01*
G01X4863714Y-9670094D01*
G01X4865099Y-9667323D01*
G01X4870641Y-9661781D01*
G01X4873412Y-9658087D01*
G01X4898812Y-9632687D01*
G01X4902506Y-9628069D01*
G01X4928830Y-9601745D01*
G01X4931601Y-9598050D01*
G01X4945455Y-9584196D01*
G01X4949150Y-9579578D01*
G01X4951459Y-9577269D01*
G01X4955154Y-9572650D01*
G01X4957463Y-9570341D01*
G01X4963005Y-9562952D01*
G01X4965314Y-9559720D01*
G01X4967623Y-9556025D01*
G01X4969470Y-9552792D01*
G01X4970855Y-9549560D01*
G01X4972241Y-9545865D01*
G01X4973626Y-9540785D01*
G01X4974550Y-9536167D01*
G01X4975012Y-9532472D01*
G01X4973626Y-9521389D01*
G01X4972703Y-9517694D01*
G01X4971317Y-9513538D01*
G01X4969470Y-9509843D01*
G01X4966699Y-9505687D01*
G01X4963928Y-9501992D01*
G01X4961619Y-9499683D01*
G01X4959310Y-9497836D01*
G01X4956539Y-9495989D01*
G01X4953306Y-9494141D01*
G01X4949612Y-9492756D01*
G01X4945455Y-9491370D01*
G01X4940837Y-9490447D01*
G01X4935757Y-9489985D01*
G01X4932063Y-9489985D01*
G01X4927906Y-9490447D01*
G01X4922826Y-9490909D01*
G01X4917285Y-9492294D01*
G01X4911743Y-9494141D01*
G01X4908048Y-9495989D01*
G01X4905277Y-9497836D01*
G01X4902968Y-9499683D01*
G01X4900659Y-9501069D01*
G01X4898350Y-9503378D01*
G01X4896041Y-9506149D01*
G01X4893732Y-9508458D01*
G01X4891885Y-9511229D01*
G01X4890037Y-9514461D01*
G01X4888190Y-9518156D01*
G01X4886805Y-9522774D01*
G01X4885881Y-9529701D01*
G01X4885419Y-9533858D01*
G01X4875721Y-9533858D01*
G01X4863714Y-9533396D01*
G01X4861982Y-9532472D01*
G01X4861405Y-9530625D01*
G01X4861866Y-9526930D01*
G01X4862328Y-9523698D01*
G01X4863252Y-9518618D01*
G01X4865099Y-9512614D01*
G01X4866946Y-9508458D01*
G01X4868794Y-9504763D01*
G01X4871103Y-9500607D01*
G01X4873874Y-9496450D01*
G01X4876645Y-9493218D01*
G01X4880339Y-9488600D01*
G01X4882648Y-9486752D01*
G01X4885881Y-9483981D01*
G01X4889575Y-9481210D01*
G01X4892808Y-9478901D01*
G01X4896965Y-9476592D01*
G01X4900659Y-9474745D01*
G01X4904354Y-9473360D01*
G01X4908510Y-9471974D01*
G01X4913590Y-9470589D01*
G01X4918208Y-9469665D01*
G01X4929292Y-9468741D01*
G01X4932063Y-9468741D01*
G01X4937605Y-9469203D01*
G01X4944070Y-9469665D01*
G01X4948688Y-9470589D01*
G01X4956077Y-9472436D01*
G01X4960695Y-9473821D01*
G01X4971779Y-9479363D01*
G01X4974550Y-9481210D01*
G01X4976859Y-9483058D01*
G01X4979168Y-9484443D01*
G01X4981477Y-9486290D01*
G01X4986095Y-9490909D01*
G01X4987943Y-9493218D01*
G01X4992561Y-9499683D01*
G01X4994408Y-9502916D01*
G01X4996255Y-9507534D01*
G01X4997641Y-9511229D01*
G01X4999488Y-9520465D01*
G01X4999950Y-9527854D01*
G01X4999488Y-9535243D01*
G01X4999026Y-9538476D01*
G01X4998103Y-9543556D01*
G01X4996255Y-9549560D01*
G01X4994408Y-9554178D01*
G01X4992561Y-9558334D01*
G01X4990252Y-9562952D01*
G01X4987481Y-9567109D01*
G01X4985634Y-9570341D01*
G01X4980092Y-9577269D01*
G01X4975474Y-9582810D01*
G01X4971779Y-9587429D01*
G01X4964852Y-9594356D01*
G01X4961157Y-9598974D01*
G01X4924212Y-9635920D01*
G01X4920517Y-9640538D01*
G01X4899735Y-9661320D01*
G01X4897888Y-9663629D01*
G01X4910935Y-9664668D01*
G01X4950997Y-9665014D01*
G01X5004568Y-9665014D01*
G01X5004568Y-9686258D01*
G01X4863252Y-9686258D01*
G37*
G36*
G01X5120023Y-9689952D02*
G01X5108477Y-9689490D01*
G01X5102935Y-9688105D01*
G01X5098317Y-9686720D01*
G01X5094623Y-9685796D01*
G01X5090466Y-9684410D01*
G01X5086310Y-9682563D01*
G01X5081692Y-9680254D01*
G01X5077074Y-9677483D01*
G01X5073841Y-9675174D01*
G01X5071532Y-9673789D01*
G01X5069223Y-9671941D01*
G01X5059986Y-9662705D01*
G01X5055368Y-9656240D01*
G01X5053521Y-9653930D01*
G01X5051674Y-9650698D01*
G01X5049826Y-9647003D01*
G01X5047979Y-9642847D01*
G01X5046132Y-9638229D01*
G01X5044285Y-9633149D01*
G01X5042437Y-9626683D01*
G01X5041052Y-9622065D01*
G01X5039743Y-9614214D01*
G01X5068299Y-9614214D01*
G01X5068761Y-9624836D01*
G01X5069685Y-9629454D01*
G01X5070608Y-9633149D01*
G01X5071994Y-9636843D01*
G01X5075688Y-9644232D01*
G01X5077535Y-9647003D01*
G01X5081230Y-9651621D01*
G01X5085848Y-9656240D01*
G01X5089081Y-9659010D01*
G01X5093237Y-9661781D01*
G01X5097394Y-9664090D01*
G01X5102474Y-9665938D01*
G01X5106630Y-9667323D01*
G01X5111248Y-9667785D01*
G01X5111248Y-9667785D01*
G01X5114943Y-9668247D01*
G01X5117714Y-9668709D01*
G01X5123255Y-9668247D01*
G01X5129721Y-9667323D01*
G01X5135725Y-9665938D01*
G01X5140805Y-9664090D01*
G01X5145423Y-9661781D01*
G01X5150041Y-9658549D01*
G01X5153735Y-9655778D01*
G01X5158354Y-9651160D01*
G01X5162048Y-9646541D01*
G01X5164357Y-9643309D01*
G01X5166205Y-9639614D01*
G01X5168052Y-9635458D01*
G01X5169437Y-9631301D01*
G01X5170361Y-9624836D01*
G01X5170823Y-9618370D01*
G01X5170361Y-9611905D01*
G01X5169437Y-9606363D01*
G01X5168052Y-9600360D01*
G01X5166205Y-9595741D01*
G01X5163895Y-9591123D01*
G01X5162048Y-9587890D01*
G01X5160201Y-9585581D01*
G01X5157892Y-9582810D01*
G01X5155583Y-9580501D01*
G01X5153274Y-9578654D01*
G01X5150965Y-9576345D01*
G01X5147732Y-9574036D01*
G01X5143575Y-9571727D01*
G01X5139419Y-9569880D01*
G01X5134801Y-9568494D01*
G01X5130645Y-9567570D01*
G01X5122332Y-9567109D01*
G01X5112172Y-9567570D01*
G01X5107554Y-9568494D01*
G01X5103397Y-9569418D01*
G01X5099241Y-9570803D01*
G01X5095546Y-9572650D01*
G01X5091390Y-9574960D01*
G01X5087695Y-9577269D01*
G01X5084925Y-9579578D01*
G01X5082615Y-9581425D01*
G01X5080768Y-9583272D01*
G01X5078921Y-9585581D01*
G01X5076150Y-9588814D01*
G01X5073841Y-9592509D01*
G01X5071994Y-9596203D01*
G01X5070146Y-9601283D01*
G01X5068761Y-9605440D01*
G01X5068299Y-9614214D01*
G01X5039743Y-9614214D01*
G01X5039205Y-9610981D01*
G01X5038281Y-9601745D01*
G01X5037819Y-9585120D01*
G01X5038281Y-9568494D01*
G01X5038743Y-9564338D01*
G01X5039205Y-9559258D01*
G01X5040128Y-9552792D01*
G01X5041052Y-9547250D01*
G01X5041975Y-9542632D01*
G01X5043361Y-9536629D01*
G01X5044746Y-9532472D01*
G01X5045670Y-9528778D01*
G01X5047055Y-9524621D01*
G01X5048441Y-9520927D01*
G01X5049826Y-9517694D01*
G01X5053521Y-9510305D01*
G01X5057215Y-9503840D01*
G01X5059063Y-9501069D01*
G01X5060910Y-9498760D01*
G01X5062295Y-9496450D01*
G01X5064143Y-9494141D01*
G01X5073379Y-9484905D01*
G01X5075688Y-9483058D01*
G01X5082154Y-9478440D01*
G01X5085386Y-9476592D01*
G01X5089543Y-9474745D01*
G01X5094161Y-9472898D01*
G01X5098317Y-9471512D01*
G01X5106630Y-9469665D01*
G01X5117714Y-9468741D01*
G01X5120485Y-9468741D01*
G01X5125565Y-9469203D01*
G01X5132492Y-9469665D01*
G01X5141728Y-9471512D01*
G01X5146808Y-9472898D01*
G01X5154197Y-9475669D01*
G01X5157892Y-9477516D01*
G01X5161125Y-9479363D01*
G01X5164819Y-9481672D01*
G01X5168052Y-9483981D01*
G01X5170361Y-9485367D01*
G01X5172670Y-9487214D01*
G01X5177288Y-9491832D01*
G01X5180983Y-9496450D01*
G01X5183292Y-9499683D01*
G01X5185601Y-9503840D01*
G01X5187448Y-9507534D01*
G01X5188834Y-9510767D01*
G01X5190219Y-9514461D01*
G01X5191605Y-9519541D01*
G01X5192066Y-9522774D01*
G01X5181445Y-9522774D01*
G01X5168514Y-9522312D01*
G01X5166666Y-9521504D01*
G01X5165743Y-9520003D01*
G01X5164357Y-9516770D01*
G01X5162510Y-9513076D01*
G01X5160663Y-9509843D01*
G01X5158815Y-9507072D01*
G01X5156506Y-9504301D01*
G01X5151888Y-9499683D01*
G01X5149117Y-9497836D01*
G01X5145885Y-9495989D01*
G01X5142190Y-9494141D01*
G01X5137110Y-9492294D01*
G01X5132492Y-9490909D01*
G01X5122794Y-9490447D01*
G01X5113095Y-9490909D01*
G01X5109863Y-9491370D01*
G01X5106168Y-9492294D01*
G01X5102012Y-9493680D01*
G01X5097855Y-9495527D01*
G01X5094161Y-9497374D01*
G01X5091390Y-9499221D01*
G01X5086772Y-9502916D01*
G01X5084463Y-9505225D01*
G01X5081692Y-9508458D01*
G01X5079383Y-9511690D01*
G01X5077535Y-9514461D01*
G01X5075688Y-9517694D01*
G01X5072917Y-9523236D01*
G01X5070146Y-9529701D01*
G01X5068761Y-9533396D01*
G01X5065990Y-9543556D01*
G01X5065066Y-9547250D01*
G01X5064143Y-9553716D01*
G01X5063219Y-9561105D01*
G01X5062295Y-9573112D01*
G01X5061834Y-9580040D01*
G01X5062180Y-9583965D01*
G01X5063219Y-9584658D01*
G01X5065066Y-9581887D01*
G01X5066914Y-9577730D01*
G01X5069685Y-9573574D01*
G01X5071994Y-9569880D01*
G01X5074303Y-9567109D01*
G01X5078921Y-9562490D01*
G01X5081230Y-9560643D01*
G01X5084463Y-9558334D01*
G01X5088157Y-9556025D01*
G01X5094623Y-9552330D01*
G01X5098317Y-9550945D01*
G01X5102474Y-9549560D01*
G01X5107092Y-9548174D01*
G01X5111248Y-9547250D01*
G01X5119561Y-9546327D01*
G01X5124641Y-9545865D01*
G01X5129721Y-9546327D01*
G01X5132954Y-9546789D01*
G01X5137110Y-9547250D01*
G01X5141728Y-9548174D01*
G01X5149117Y-9550021D01*
G01X5152812Y-9551407D01*
G01X5156045Y-9552792D01*
G01X5160201Y-9554640D01*
G01X5163895Y-9556949D01*
G01X5166666Y-9558796D01*
G01X5175903Y-9566185D01*
G01X5178212Y-9568494D01*
G01X5181906Y-9573112D01*
G01X5184215Y-9576345D01*
G01X5186525Y-9580040D01*
G01X5188372Y-9583272D01*
G01X5190219Y-9586967D01*
G01X5192066Y-9591585D01*
G01X5193452Y-9595280D01*
G01X5195299Y-9604516D01*
G01X5195761Y-9614214D01*
G01X5195299Y-9625760D01*
G01X5194375Y-9631301D01*
G01X5192528Y-9638690D01*
G01X5191143Y-9642847D01*
G01X5189295Y-9647465D01*
G01X5187448Y-9651160D01*
G01X5183754Y-9657625D01*
G01X5181906Y-9660396D01*
G01X5179597Y-9663167D01*
G01X5176826Y-9666400D01*
G01X5173132Y-9670556D01*
G01X5168514Y-9674250D01*
G01X5164819Y-9677021D01*
G01X5157430Y-9681640D01*
G01X5153735Y-9683487D01*
G01X5148655Y-9685334D01*
G01X5142652Y-9687181D01*
G01X5138034Y-9688567D01*
G01X5130645Y-9689490D01*
G01X5120023Y-9689952D01*
G37*
G36*
G01X5296899Y-9690876D02*
G01X5285815Y-9690414D01*
G01X5271961Y-9687643D01*
G01X5266881Y-9686258D01*
G01X5263186Y-9684872D01*
G01X5259954Y-9683487D01*
G01X5252565Y-9679792D01*
G01X5248870Y-9677483D01*
G01X5245637Y-9675174D01*
G01X5242405Y-9672403D01*
G01X5238710Y-9669632D01*
G01X5236401Y-9667323D01*
G01X5230859Y-9660396D01*
G01X5229012Y-9657163D01*
G01X5226703Y-9652545D01*
G01X5224855Y-9648389D01*
G01X5223470Y-9644694D01*
G01X5222085Y-9640076D01*
G01X5221161Y-9635920D01*
G01X5220699Y-9632225D01*
G01X5220699Y-9629916D01*
G01X5232706Y-9629916D01*
G01X5241827Y-9630378D01*
G01X5245175Y-9631763D01*
G01X5246561Y-9636381D01*
G01X5248408Y-9641923D01*
G01X5250717Y-9647003D01*
G01X5255335Y-9653469D01*
G01X5258106Y-9656701D01*
G01X5260415Y-9658549D01*
G01X5263648Y-9660858D01*
G01X5267343Y-9663167D01*
G01X5270575Y-9664552D01*
G01X5274270Y-9665938D01*
G01X5278426Y-9667323D01*
G01X5282121Y-9668247D01*
G01X5290434Y-9669170D01*
G01X5295052Y-9669632D01*
G01X5299670Y-9669170D01*
G01X5307983Y-9668247D01*
G01X5312601Y-9667323D01*
G01X5317681Y-9665938D01*
G01X5321375Y-9664552D01*
G01X5325070Y-9662705D01*
G01X5329226Y-9659934D01*
G01X5332459Y-9657625D01*
G01X5334768Y-9655778D01*
G01X5337077Y-9653469D01*
G01X5338925Y-9651160D01*
G01X5340772Y-9648389D01*
G01X5342619Y-9645156D01*
G01X5344466Y-9640538D01*
G01X5345852Y-9635920D01*
G01X5346314Y-9628530D01*
G01X5345852Y-9620218D01*
G01X5344928Y-9615600D01*
G01X5343543Y-9610520D01*
G01X5341234Y-9605440D01*
G01X5338925Y-9602207D01*
G01X5337539Y-9599898D01*
G01X5335692Y-9597589D01*
G01X5333383Y-9595741D01*
G01X5330150Y-9593432D01*
G01X5326455Y-9591123D01*
G01X5322299Y-9589276D01*
G01X5317681Y-9587429D01*
G01X5313063Y-9586043D01*
G01X5308906Y-9585120D01*
G01X5290434Y-9584658D01*
G01X5271037Y-9584196D01*
G01X5268728Y-9583734D01*
G01X5268728Y-9564338D01*
G01X5281659Y-9564338D01*
G01X5295975Y-9563876D01*
G01X5304288Y-9562952D01*
G01X5308906Y-9562029D01*
G01X5313525Y-9560643D01*
G01X5320914Y-9556949D01*
G01X5324146Y-9555101D01*
G01X5326917Y-9552792D01*
G01X5332459Y-9547250D01*
G01X5335230Y-9543094D01*
G01X5337077Y-9538938D01*
G01X5338463Y-9535243D01*
G01X5339386Y-9528778D01*
G01X5339386Y-9523236D01*
G01X5338463Y-9515847D01*
G01X5337077Y-9509843D01*
G01X5333845Y-9503378D01*
G01X5331997Y-9500607D01*
G01X5327379Y-9495989D01*
G01X5325070Y-9494141D01*
G01X5322299Y-9492294D01*
G01X5319066Y-9490447D01*
G01X5314448Y-9488600D01*
G01X5309830Y-9487214D01*
G01X5302441Y-9486290D01*
G01X5297361Y-9485829D01*
G01X5292281Y-9486290D01*
G01X5284892Y-9487214D01*
G01X5280735Y-9488138D01*
G01X5276117Y-9489523D01*
G01X5271961Y-9491370D01*
G01X5267805Y-9493680D01*
G01X5264572Y-9495527D01*
G01X5262263Y-9497374D01*
G01X5259954Y-9499683D01*
G01X5257183Y-9502916D01*
G01X5254874Y-9506149D01*
G01X5253488Y-9508920D01*
G01X5252103Y-9512152D01*
G01X5250717Y-9515847D01*
G01X5249794Y-9519541D01*
G01X5249332Y-9522774D01*
G01X5246676Y-9524160D01*
G01X5238710Y-9524621D01*
G01X5226703Y-9524160D01*
G01X5225779Y-9523467D01*
G01X5225779Y-9522312D01*
G01X5226241Y-9519080D01*
G01X5227165Y-9514000D01*
G01X5228550Y-9509381D01*
G01X5229474Y-9506149D01*
G01X5230859Y-9502916D01*
G01X5232706Y-9499221D01*
G01X5235015Y-9495065D01*
G01X5237325Y-9491370D01*
G01X5239634Y-9488600D01*
G01X5246561Y-9481672D01*
G01X5251179Y-9477978D01*
G01X5254412Y-9475669D01*
G01X5257645Y-9473821D01*
G01X5260415Y-9472436D01*
G01X5263648Y-9471050D01*
G01X5267343Y-9469665D01*
G01X5271499Y-9468280D01*
G01X5276579Y-9466894D01*
G01X5281197Y-9465970D01*
G01X5286277Y-9465509D01*
G01X5293205Y-9465047D01*
G01X5297823Y-9465047D01*
G01X5308906Y-9465970D01*
G01X5312139Y-9466432D01*
G01X5317219Y-9467356D01*
G01X5323223Y-9469203D01*
G01X5328303Y-9471050D01*
G01X5332921Y-9472898D01*
G01X5337077Y-9475207D01*
G01X5341234Y-9477978D01*
G01X5344466Y-9480287D01*
G01X5346775Y-9482134D01*
G01X5353703Y-9489061D01*
G01X5356012Y-9492294D01*
G01X5358321Y-9495989D01*
G01X5360168Y-9499683D01*
G01X5362015Y-9504763D01*
G01X5363401Y-9509381D01*
G01X5364325Y-9516770D01*
G01X5364786Y-9520003D01*
G01X5364325Y-9523236D01*
G01X5363401Y-9530625D01*
G01X5362477Y-9534781D01*
G01X5361092Y-9539400D01*
G01X5359245Y-9543556D01*
G01X5356935Y-9547712D01*
G01X5354165Y-9551869D01*
G01X5351394Y-9555101D01*
G01X5346775Y-9559720D01*
G01X5344466Y-9561567D01*
G01X5341234Y-9563876D01*
G01X5337539Y-9566185D01*
G01X5333845Y-9568032D01*
G01X5329226Y-9569880D01*
G01X5325532Y-9571265D01*
G01X5322299Y-9571727D01*
G01X5321145Y-9572073D01*
G01X5321375Y-9573112D01*
G01X5324146Y-9574498D01*
G01X5329226Y-9575421D01*
G01X5333845Y-9576807D01*
G01X5338001Y-9578192D01*
G01X5342157Y-9580040D01*
G01X5345852Y-9581887D01*
G01X5350008Y-9584196D01*
G01X5353241Y-9586505D01*
G01X5357859Y-9590200D01*
G01X5360168Y-9592509D01*
G01X5362015Y-9594818D01*
G01X5364325Y-9598050D01*
G01X5366634Y-9601745D01*
G01X5368019Y-9604978D01*
G01X5369405Y-9608672D01*
G01X5370790Y-9613290D01*
G01X5371714Y-9617447D01*
G01X5372175Y-9623912D01*
G01X5371714Y-9633149D01*
G01X5370790Y-9638690D01*
G01X5369866Y-9642847D01*
G01X5368481Y-9647465D01*
G01X5366634Y-9652083D01*
G01X5364325Y-9656701D01*
G01X5361554Y-9660858D01*
G01X5359245Y-9664090D01*
G01X5357397Y-9666400D01*
G01X5350470Y-9673327D01*
G01X5346775Y-9676098D01*
G01X5342619Y-9678869D01*
G01X5338925Y-9681178D01*
G01X5335230Y-9683025D01*
G01X5331997Y-9684410D01*
G01X5328303Y-9685796D01*
G01X5324146Y-9687181D01*
G01X5319528Y-9688567D01*
G01X5315372Y-9689490D01*
G01X5307983Y-9690414D01*
G01X5296899Y-9690876D01*
G37*
G36*
G01X5418357Y-9686258D02*
G01X5419743Y-9683949D01*
G01X5422052Y-9680254D01*
G01X5426208Y-9671941D01*
G01X5428517Y-9668247D01*
G01X5474699Y-9575883D01*
G01X5479317Y-9567570D01*
G01X5495943Y-9534320D01*
G01X5499637Y-9527854D01*
G01X5507026Y-9513076D01*
G01X5510721Y-9506610D01*
G01X5514415Y-9499221D01*
G01X5515801Y-9495527D01*
G01X5516263Y-9493218D01*
G01X5398961Y-9493218D01*
G01X5398961Y-9471974D01*
G01X5542125Y-9471974D01*
G01X5542125Y-9482596D01*
G01X5541201Y-9494603D01*
G01X5533350Y-9510305D01*
G01X5531041Y-9514000D01*
G01X5523652Y-9528778D01*
G01X5519957Y-9535243D01*
G01X5510721Y-9553716D01*
G01X5507026Y-9560181D01*
G01X5481165Y-9611905D01*
G01X5479317Y-9616523D01*
G01X5458997Y-9657163D01*
G01X5455303Y-9665476D01*
G01X5446066Y-9683949D01*
G01X5445143Y-9686258D01*
G01X5418357Y-9686258D01*
G37*
G36*
G01X5684826Y-9716738D02*
G01X5682517Y-9716738D01*
G01X5680670Y-9714429D01*
G01X5676052Y-9709810D01*
G01X5671434Y-9706116D01*
G01X5669125Y-9703807D01*
G01X5668432Y-9702652D01*
G01X5669125Y-9701036D01*
G01X5671434Y-9697803D01*
G01X5676052Y-9690414D01*
G01X5677899Y-9686720D01*
G01X5683441Y-9674250D01*
G01X5688983Y-9657625D01*
G01X5690368Y-9653007D01*
G01X5691754Y-9647465D01*
G01X5693139Y-9642385D01*
G01X5694063Y-9637767D01*
G01X5694986Y-9632225D01*
G01X5695910Y-9627607D01*
G01X5696834Y-9621141D01*
G01X5697757Y-9613752D01*
G01X5698681Y-9605440D01*
G01X5699605Y-9592509D01*
G01X5700066Y-9551407D01*
G01X5699835Y-9521735D01*
G01X5699143Y-9512152D01*
G01X5696372Y-9513538D01*
G01X5692677Y-9515847D01*
G01X5688521Y-9518156D01*
G01X5685288Y-9520003D01*
G01X5682979Y-9520003D01*
G01X5671434Y-9506149D01*
G01X5671087Y-9504532D01*
G01X5671895Y-9503378D01*
G01X5675128Y-9501069D01*
G01X5679285Y-9498760D01*
G01X5683903Y-9496450D01*
G01X5688521Y-9493680D01*
G01X5727314Y-9493680D01*
G01X5772572Y-9494141D01*
G01X5819677Y-9493680D01*
G01X5824295Y-9491832D01*
G01X5833532Y-9486290D01*
G01X5840921Y-9481672D01*
G01X5849234Y-9476130D01*
G01X5852005Y-9473821D01*
G01X5839420Y-9473129D01*
G01X5800743Y-9472898D01*
G01X5761719Y-9473244D01*
G01X5748095Y-9474283D01*
G01X5743477Y-9477978D01*
G01X5738859Y-9482596D01*
G01X5727775Y-9491832D01*
G01X5727775Y-9491832D01*
G01X5727314Y-9493680D01*
G01X5688521Y-9493680D01*
G01X5693139Y-9490909D01*
G01X5700528Y-9486290D01*
G01X5706994Y-9481672D01*
G01X5711612Y-9478440D01*
G01X5715306Y-9475669D01*
G01X5717615Y-9473821D01*
G01X5719925Y-9472436D01*
G01X5722234Y-9470589D01*
G01X5724543Y-9468280D01*
G01X5729161Y-9464585D01*
G01X5731470Y-9462276D01*
G01X5736088Y-9458581D01*
G01X5747634Y-9447036D01*
G01X5753175Y-9440570D01*
G01X5755023Y-9438261D01*
G01X5756177Y-9437338D01*
G01X5758717Y-9437338D01*
G01X5765183Y-9438723D01*
G01X5770725Y-9440109D01*
G01X5775343Y-9441032D01*
G01X5776728Y-9441610D01*
G01X5776266Y-9442418D01*
G01X5767030Y-9453963D01*
G01X5781000Y-9455002D01*
G01X5823834Y-9455349D01*
G01X5883408Y-9455810D01*
G01X5885717Y-9456272D01*
G01X5885717Y-9463200D01*
G01X5885371Y-9468626D01*
G01X5884332Y-9471050D01*
G01X5882023Y-9472898D01*
G01X5872325Y-9479825D01*
G01X5863088Y-9486290D01*
G01X5858932Y-9489061D01*
G01X5855237Y-9491370D01*
G01X5852928Y-9493218D01*
G01X5863550Y-9493910D01*
G01X5896339Y-9494141D01*
G01X5940212Y-9494141D01*
G01X5940212Y-9512614D01*
G01X5898648Y-9512614D01*
G01X5855699Y-9513076D01*
G01X5854891Y-9513538D01*
G01X5855237Y-9514000D01*
G01X5857546Y-9514923D01*
G01X5861703Y-9515847D01*
G01X5867706Y-9517232D01*
G01X5872325Y-9518618D01*
G01X5876481Y-9519541D01*
G01X5890335Y-9523698D01*
G01X5898648Y-9526469D01*
G01X5903266Y-9528316D01*
G01X5908808Y-9530163D01*
G01X5913888Y-9532010D01*
G01X5918506Y-9533858D01*
G01X5922663Y-9535705D01*
G01X5926357Y-9537090D01*
G01X5932823Y-9539861D01*
G01X5934670Y-9540785D01*
G01X5933746Y-9543094D01*
G01X5931437Y-9546789D01*
G01X5928666Y-9550945D01*
G01X5926357Y-9554178D01*
G01X5924048Y-9554640D01*
G01X5920354Y-9553254D01*
G01X5916197Y-9551407D01*
G01X5912503Y-9550021D01*
G01X5906037Y-9547250D01*
G01X5894954Y-9543094D01*
G01X5890335Y-9541247D01*
G01X5858470Y-9530625D01*
G01X5854314Y-9529701D01*
G01X5845077Y-9526930D01*
G01X5842306Y-9526469D01*
G01X5843692Y-9525083D01*
G01X5846463Y-9521389D01*
G01X5849234Y-9517232D01*
G01X5851081Y-9514000D01*
G01X5846347Y-9512960D01*
G01X5831223Y-9512614D01*
G01X5810903Y-9512614D01*
G01X5811826Y-9514923D01*
G01X5814135Y-9518156D01*
G01X5816445Y-9520465D01*
G01X5818292Y-9522774D01*
G01X5819215Y-9524621D01*
G01X5816906Y-9526469D01*
G01X5802128Y-9533858D01*
G01X5797510Y-9535705D01*
G01X5789197Y-9539400D01*
G01X5784579Y-9541247D01*
G01X5779499Y-9543094D01*
G01X5758717Y-9550021D01*
G01X5749481Y-9552330D01*
G01X5744863Y-9553716D01*
G01X5740706Y-9554640D01*
G01X5738397Y-9554409D01*
G01X5737012Y-9552792D01*
G01X5731470Y-9541709D01*
G01X5731124Y-9540439D01*
G01X5731932Y-9539400D01*
G01X5736088Y-9538014D01*
G01X5740245Y-9537090D01*
G01X5744863Y-9536167D01*
G01X5760103Y-9532010D01*
G01X5776728Y-9526469D01*
G01X5785965Y-9522774D01*
G01X5790121Y-9520927D01*
G01X5794739Y-9519080D01*
G01X5802128Y-9515385D01*
G01X5804899Y-9513538D01*
G01X5794739Y-9512845D01*
G01X5763335Y-9512614D01*
G01X5721310Y-9512614D01*
G01X5721310Y-9559720D01*
G01X5769801Y-9559720D01*
G01X5819677Y-9559258D01*
G01X5820370Y-9558334D01*
G01X5819677Y-9556487D01*
G01X5815059Y-9549098D01*
G01X5811826Y-9544480D01*
G01X5809055Y-9540785D01*
G01X5808825Y-9539630D01*
G01X5809979Y-9538938D01*
G01X5813212Y-9538014D01*
G01X5824295Y-9536167D01*
G01X5828452Y-9535705D01*
G01X5830761Y-9536282D01*
G01X5832146Y-9538014D01*
G01X5835841Y-9544480D01*
G01X5837688Y-9548174D01*
G01X5841845Y-9557872D01*
G01X5853275Y-9559258D01*
G01X5886641Y-9559720D01*
G01X5933285Y-9560181D01*
G01X5935594Y-9560643D01*
G01X5935594Y-9577269D01*
G01X5829837Y-9577269D01*
G01X5722695Y-9577730D01*
G01X5720848Y-9579578D01*
G01X5719925Y-9596203D01*
G01X5719001Y-9606363D01*
G01X5718077Y-9614676D01*
G01X5716230Y-9627607D01*
G01X5714383Y-9638690D01*
G01X5713459Y-9643309D01*
G01X5712074Y-9649774D01*
G01X5710688Y-9654392D01*
G01X5709765Y-9658549D01*
G01X5708379Y-9664090D01*
G01X5706994Y-9668247D01*
G01X5706070Y-9671941D01*
G01X5704685Y-9676098D01*
G01X5700990Y-9685334D01*
G01X5699605Y-9689029D01*
G01X5698219Y-9692261D01*
G01X5690368Y-9707963D01*
G01X5688059Y-9711658D01*
G01X5686674Y-9714429D01*
G01X5684826Y-9716738D01*
G37*
G36*
G01X5738859Y-9717661D02*
G01X5738859Y-9687181D01*
G01X5738963Y-9679792D01*
G01X5759179Y-9679792D01*
G01X5759641Y-9690414D01*
G01X5828914Y-9690876D01*
G01X5897725Y-9690876D01*
G01X5897725Y-9669632D01*
G01X5759179Y-9669632D01*
G01X5759179Y-9679792D01*
G01X5759179Y-9679792D01*
G01X5738963Y-9679792D01*
G01X5739321Y-9654392D01*
G01X5739783Y-9652083D01*
G01X5826605Y-9652083D01*
G01X5915735Y-9652545D01*
G01X5918045Y-9653007D01*
G01X5918045Y-9717661D01*
G01X5897725Y-9717661D01*
G01X5897725Y-9707501D01*
G01X5759179Y-9707501D01*
G01X5759179Y-9717661D01*
G01X5738859Y-9717661D01*
G37*
G36*
G01X5746248Y-9638229D02*
G01X5746248Y-9622527D01*
G01X5912503Y-9622527D01*
G01X5912503Y-9638229D01*
G01X5746248Y-9638229D01*
G37*
G36*
G01X5746248Y-9607749D02*
G01X5746248Y-9592047D01*
G01X5912503Y-9592047D01*
G01X5912503Y-9607749D01*
G01X5746248Y-9607749D01*
G37*
G36*
G01X5990781Y-9715006D02*
G01X5989626Y-9714890D01*
G01X5987317Y-9712581D01*
G01X5981775Y-9707963D01*
G01X5977157Y-9704269D01*
G01X5974848Y-9701960D01*
G01X5974040Y-9700690D01*
G01X5974386Y-9698727D01*
G01X5976234Y-9693185D01*
G01X5977619Y-9688567D01*
G01X5979466Y-9680254D01*
G01X5981314Y-9669170D01*
G01X5982237Y-9662705D01*
G01X5983161Y-9655316D01*
G01X5984085Y-9647003D01*
G01X5985008Y-9633149D01*
G01X5985932Y-9612829D01*
G01X5986394Y-9526469D01*
G01X5986394Y-9441494D01*
G01X6007637Y-9441494D01*
G01X6007637Y-9507072D01*
G01X6007175Y-9574036D01*
G01X6006252Y-9621141D01*
G01X6005328Y-9638690D01*
G01X6004405Y-9650698D01*
G01X6003943Y-9653930D01*
G01X6003481Y-9659010D01*
G01X6002557Y-9666400D01*
G01X6001634Y-9671941D01*
G01X6000710Y-9676560D01*
G01X5999786Y-9682101D01*
G01X5998863Y-9685796D01*
G01X5997939Y-9690414D01*
G01X5996554Y-9696880D01*
G01X5995168Y-9701498D01*
G01X5994245Y-9705192D01*
G01X5991474Y-9713505D01*
G01X5990781Y-9715006D01*
G37*
G36*
G01X6028881Y-9682563D02*
G01X6028881Y-9460890D01*
G01X6049201Y-9460890D01*
G01X6049201Y-9682563D01*
G01X6028881Y-9682563D01*
G37*
G36*
G01X6072292Y-9711196D02*
G01X6072292Y-9578654D01*
G01X6072754Y-9443803D01*
G01X6073215Y-9441494D01*
G01X6092612Y-9441494D01*
G01X6092612Y-9711196D01*
G01X6072292Y-9711196D01*
G37*
G36*
G01X6115010Y-9715352D02*
G01X6113855Y-9714429D01*
G01X6111546Y-9711196D01*
G01X6106005Y-9702883D01*
G01X6104157Y-9699650D01*
G01X6104157Y-9698380D01*
G01X6105081Y-9697341D01*
G01X6120783Y-9689490D01*
G01X6125401Y-9686720D01*
G01X6129557Y-9683949D01*
G01X6133252Y-9681640D01*
G01X6136023Y-9679330D01*
G01X6140641Y-9675636D01*
G01X6145259Y-9671018D01*
G01X6147106Y-9668709D01*
G01X6149415Y-9665476D01*
G01X6152186Y-9661320D01*
G01X6154495Y-9657163D01*
G01X6156343Y-9652545D01*
G01X6158190Y-9647465D01*
G01X6160037Y-9641461D01*
G01X6161423Y-9636843D01*
G01X6163270Y-9626683D01*
G01X6164194Y-9620218D01*
G01X6165117Y-9610058D01*
G01X6165579Y-9575883D01*
G01X6165579Y-9543094D01*
G01X6187746Y-9543094D01*
G01X6187746Y-9562952D01*
G01X6187285Y-9584196D01*
G01X6186361Y-9609134D01*
G01X6185437Y-9618370D01*
G01X6184514Y-9625760D01*
G01X6183590Y-9631301D01*
G01X6182205Y-9638690D01*
G01X6180819Y-9644232D01*
G01X6179434Y-9649312D01*
G01X6176663Y-9657625D01*
G01X6174815Y-9662243D01*
G01X6172968Y-9666400D01*
G01X6171121Y-9670094D01*
G01X6166503Y-9677483D01*
G01X6160961Y-9684872D01*
G01X6149415Y-9696418D01*
G01X6142026Y-9701960D01*
G01X6138332Y-9704269D01*
G01X6135099Y-9706578D01*
G01X6131866Y-9708425D01*
G01X6124477Y-9712120D01*
G01X6120321Y-9713967D01*
G01X6116626Y-9715352D01*
G01X6115010Y-9715352D01*
G37*
G36*
G01X6114779Y-9648389D02*
G01X6114779Y-9503378D01*
G01X6137870Y-9503378D01*
G01X6155419Y-9503031D01*
G01X6161885Y-9501992D01*
G01X6162808Y-9498298D01*
G01X6164194Y-9487214D01*
G01X6165117Y-9478901D01*
G01X6165579Y-9474283D01*
G01X6165579Y-9471050D01*
G01X6138332Y-9471050D01*
G01X6108775Y-9470589D01*
G01X6106466Y-9470127D01*
G01X6106466Y-9449807D01*
G01X6249630Y-9449807D01*
G01X6249630Y-9471050D01*
G01X6220535Y-9471050D01*
G01X6189132Y-9471512D01*
G01X6187400Y-9472667D01*
G01X6186823Y-9475207D01*
G01X6185437Y-9489061D01*
G01X6184514Y-9495527D01*
G01X6184052Y-9500145D01*
G01X6184052Y-9503378D01*
G01X6209452Y-9503378D01*
G01X6237161Y-9503840D01*
G01X6239470Y-9504301D01*
G01X6239470Y-9648389D01*
G01X6218226Y-9648389D01*
G01X6218226Y-9523698D01*
G01X6135099Y-9523698D01*
G01X6135099Y-9648389D01*
G01X6114779Y-9648389D01*
G37*
G36*
G01X6233928Y-9715121D02*
G01X6232543Y-9713967D01*
G01X6230234Y-9711196D01*
G01X6220997Y-9699650D01*
G01X6216379Y-9695032D01*
G01X6212685Y-9690414D01*
G01X6203448Y-9681178D01*
G01X6198830Y-9677483D01*
G01X6190979Y-9669632D01*
G01X6187285Y-9666861D01*
G01X6185899Y-9665014D01*
G01X6186823Y-9663167D01*
G01X6189132Y-9661320D01*
G01X6198368Y-9652083D01*
G01X6200215Y-9651621D01*
G01X6202525Y-9653007D01*
G01X6205295Y-9655316D01*
G01X6209914Y-9659010D01*
G01X6214532Y-9663629D01*
G01X6219150Y-9667323D01*
G01X6237623Y-9685796D01*
G01X6241317Y-9690414D01*
G01X6243626Y-9692723D01*
G01X6249168Y-9699189D01*
G01X6249861Y-9700112D01*
G01X6249168Y-9701036D01*
G01X6235314Y-9714890D01*
G01X6233928Y-9715121D01*
G37*
G01X9274302Y-3566160D02*
G01X9271254Y-3559810D01*
G01X9264904Y-3553714D01*
G01X9258808Y-3550666D01*
G01X9246362Y-3550666D01*
G01X9240266Y-3553714D01*
G01X9233916Y-3559810D01*
G01X9230868Y-3566160D01*
G01X9227820Y-3575304D01*
G01X9227820Y-3590798D01*
G01X9230868Y-3600196D01*
G01X9233916Y-3606292D01*
G01X9240266Y-3612642D01*
G01X9246362Y-3615690D01*
G01X9258808Y-3615690D01*
G01X9264904Y-3612642D01*
G01X9271254Y-3606292D01*
G01X9274302Y-3600196D01*
G01X9304528Y-3563112D02*
G01X9310624Y-3559810D01*
G01X9319768Y-3550666D01*
G01X9319768Y-3615690D01*
G01X6302502Y-2715260D02*
G01X6299454Y-2708910D01*
G01X6293104Y-2702814D01*
G01X6287008Y-2699766D01*
G01X6274562Y-2699766D01*
G01X6268466Y-2702814D01*
G01X6262116Y-2708910D01*
G01X6259068Y-2715260D01*
G01X6256020Y-2724404D01*
G01X6256020Y-2739898D01*
G01X6259068Y-2749296D01*
G01X6262116Y-2755392D01*
G01X6268466Y-2761742D01*
G01X6274562Y-2764790D01*
G01X6287008Y-2764790D01*
G01X6293104Y-2761742D01*
G01X6299454Y-2755392D01*
G01X6302502Y-2749296D01*
G01X6335776Y-2715260D02*
G01X6335776Y-2712212D01*
G01X6338824Y-2705862D01*
G01X6341872Y-2702814D01*
G01X6347968Y-2699766D01*
G01X6360414Y-2699766D01*
G01X6366764Y-2702814D01*
G01X6369812Y-2705862D01*
G01X6372860Y-2712212D01*
G01X6372860Y-2718308D01*
G01X6369812Y-2724404D01*
G01X6363462Y-2733802D01*
G01X6332728Y-2764790D01*
G01X6375908Y-2764790D01*
G01X7724902Y-2715260D02*
G01X7721854Y-2708910D01*
G01X7715504Y-2702814D01*
G01X7709408Y-2699766D01*
G01X7696962Y-2699766D01*
G01X7690866Y-2702814D01*
G01X7684516Y-2708910D01*
G01X7681468Y-2715260D01*
G01X7678420Y-2724404D01*
G01X7678420Y-2739898D01*
G01X7681468Y-2749296D01*
G01X7684516Y-2755392D01*
G01X7690866Y-2761742D01*
G01X7696962Y-2764790D01*
G01X7709408Y-2764790D01*
G01X7715504Y-2761742D01*
G01X7721854Y-2755392D01*
G01X7724902Y-2749296D01*
G01X7761224Y-2699766D02*
G01X7795260Y-2699766D01*
G01X7776718Y-2724404D01*
G01X7785862Y-2724404D01*
G01X7792212Y-2727452D01*
G01X7795260Y-2730754D01*
G01X7798308Y-2739898D01*
G01X7798308Y-2746248D01*
G01X7795260Y-2755392D01*
G01X7789164Y-2761742D01*
G01X7779766Y-2764790D01*
G01X7770368Y-2764790D01*
G01X7761224Y-2761742D01*
G01X7758176Y-2758440D01*
G01X7755128Y-2752344D01*
G01X6306820Y-4553966D02*
G01X6306820Y-4618990D01*
G01X6306820Y-4553966D02*
G01X6328410Y-4553966D01*
G01X6337808Y-4557014D01*
G01X6343904Y-4563110D01*
G01X6346952Y-4569460D01*
G01X6350254Y-4578604D01*
G01X6350254Y-4594098D01*
G01X6346952Y-4603496D01*
G01X6343904Y-4609592D01*
G01X6337808Y-4615942D01*
G01X6328410Y-4618990D01*
G01X6306820Y-4618990D01*
G01X6380480Y-4566412D02*
G01X6386576Y-4563110D01*
G01X6395720Y-4553966D01*
G01X6395720Y-4618990D01*
G01X7907020Y-2953766D02*
G01X7907020Y-3018790D01*
G01X7907020Y-3018790D02*
G01X7944104Y-3018790D01*
G01X7974330Y-2953766D02*
G01X7974330Y-3018790D01*
G01X7974330Y-2953766D02*
G01X8014462Y-2953766D01*
G01X7974330Y-2984754D02*
G01X7998968Y-2984754D01*
G01X7974330Y-3018790D02*
G01X8014462Y-3018790D01*
G01X8044688Y-2953766D02*
G01X8044688Y-3018790D01*
G01X8044688Y-2953766D02*
G01X8066278Y-2953766D01*
G01X8075422Y-2956814D01*
G01X8081772Y-2962910D01*
G01X8084820Y-2969260D01*
G01X8087868Y-2978404D01*
G01X8087868Y-2993898D01*
G01X8084820Y-3003296D01*
G01X8081772Y-3009392D01*
G01X8075422Y-3015742D01*
G01X8066278Y-3018790D01*
G01X8044688Y-3018790D01*
G01X8118094Y-2966212D02*
G01X8124190Y-2962910D01*
G01X8133334Y-2953766D01*
G01X8133334Y-3018790D01*
G01X8072120Y-1721866D02*
G01X8072120Y-1786890D01*
G01X8072120Y-1721866D02*
G01X8100060Y-1721866D01*
G01X8109204Y-1724914D01*
G01X8112252Y-1727962D01*
G01X8115554Y-1734312D01*
G01X8115554Y-1740408D01*
G01X8112252Y-1746504D01*
G01X8109204Y-1749552D01*
G01X8100060Y-1752854D01*
G01X8072120Y-1752854D01*
G01X8093710Y-1752854D02*
G01X8115554Y-1786890D01*
G01X8145780Y-1734312D02*
G01X8151876Y-1731010D01*
G01X8161020Y-1721866D01*
G01X8161020Y-1786890D01*
G01X8252968Y-1737360D02*
G01X8252968Y-1734312D01*
G01X8256016Y-1727962D01*
G01X8259318Y-1724914D01*
G01X8265414Y-1721866D01*
G01X8277860Y-1721866D01*
G01X8283956Y-1724914D01*
G01X8287004Y-1727962D01*
G01X8290052Y-1734312D01*
G01X8290052Y-1740408D01*
G01X8287004Y-1746504D01*
G01X8280908Y-1755902D01*
G01X8249920Y-1786890D01*
G01X8293354Y-1786890D01*
G01X8323580Y-1721866D02*
G01X8323580Y-1786890D01*
G01X8366760Y-1721866D02*
G01X8323580Y-1765046D01*
G01X8338820Y-1749552D02*
G01X8366760Y-1786890D01*
G36*
G01X5978110Y-4061557D02*
G01X5977634Y-4061210D01*
G01X5977634Y-4060344D01*
G01X5978326Y-4059478D01*
G01X5979539Y-4058266D01*
G01X5980751Y-4057400D01*
G01X5981444Y-4056707D01*
G01X5982136Y-4055842D01*
G01X5983002Y-4054802D01*
G01X5986639Y-4051166D01*
G01X5987332Y-4050300D01*
G01X5988371Y-4049087D01*
G01X5991142Y-4045624D01*
G01X5992181Y-4044238D01*
G01X5992874Y-4043372D01*
G01X5995471Y-4039736D01*
G01X5997550Y-4036618D01*
G01X5999281Y-4033847D01*
G01X6000320Y-4032116D01*
G01X6002052Y-4028998D01*
G01X6002529Y-4028435D01*
G01X6002918Y-4028479D01*
G01X6003784Y-4029172D01*
G01X6004650Y-4030037D01*
G01X6006728Y-4031769D01*
G01X6007940Y-4032982D01*
G01X6009326Y-4034021D01*
G01X6010019Y-4034887D01*
G01X6010019Y-4035320D01*
G01X6009672Y-4035579D01*
G01X6008633Y-4036099D01*
G01X6007248Y-4036618D01*
G01X6006035Y-4037311D01*
G01X5996164Y-4047182D01*
G01X5994779Y-4048222D01*
G01X5992181Y-4050819D01*
G01X5990103Y-4052551D01*
G01X5987678Y-4054629D01*
G01X5986812Y-4055495D01*
G01X5982483Y-4058959D01*
G01X5981270Y-4059825D01*
G01X5980058Y-4060864D01*
G01X5978846Y-4061557D01*
G01X5978110Y-4061557D01*
G37*
G36*
G01X6208139Y-4107623D02*
G01X6207273Y-4107450D01*
G01X6206926Y-4106584D01*
G01X6207273Y-4105718D01*
G01X6207965Y-4104852D01*
G01X6211083Y-4100696D01*
G01X6212122Y-4099137D01*
G01X6213854Y-4096366D01*
G01X6214720Y-4094807D01*
G01X6215585Y-4093595D01*
G01X6216278Y-4092383D01*
G01X6216971Y-4090824D01*
G01X6217490Y-4089612D01*
G01X6218183Y-4088227D01*
G01X6219049Y-4086322D01*
G01X6219742Y-4084417D01*
G01X6220261Y-4083031D01*
G01X6220608Y-4081646D01*
G01X6221127Y-4080087D01*
G01X6221820Y-4076970D01*
G01X6222340Y-4074892D01*
G01X6222686Y-4072987D01*
G01X6223032Y-4070908D01*
G01X6223379Y-4067791D01*
G01X6223725Y-4065713D01*
G01X6224071Y-4060171D01*
G01X6224418Y-4055668D01*
G01X6224591Y-4036099D01*
G01X6224418Y-4015837D01*
G01X6224591Y-4014451D01*
G01X6225803Y-4014797D01*
G01X6229267Y-4016876D01*
G01X6230479Y-4017742D01*
G01X6232557Y-4018088D01*
G01X6234809Y-4017915D01*
G01X6237233Y-4017568D01*
G01X6239138Y-4017395D01*
G01X6241736Y-4017222D01*
G01X6243468Y-4016876D01*
G01X6245026Y-4016702D01*
G01X6247278Y-4016529D01*
G01X6249010Y-4016183D01*
G01X6250222Y-4016010D01*
G01X6252473Y-4015837D01*
G01X6254551Y-4015490D01*
G01X6255764Y-4015317D01*
G01X6257669Y-4015144D01*
G01X6260093Y-4014797D01*
G01X6261825Y-4014451D01*
G01X6263557Y-4014278D01*
G01X6265462Y-4013932D01*
G01X6266847Y-4013585D01*
G01X6268060Y-4013412D01*
G01X6269618Y-4013066D01*
G01X6271523Y-4012719D01*
G01X6272909Y-4012373D01*
G01X6277065Y-4011680D01*
G01X6279836Y-4010987D01*
G01X6282260Y-4010295D01*
G01X6286417Y-4009256D01*
G01X6288322Y-4008736D01*
G01X6290054Y-4008043D01*
G01X6292825Y-4007004D01*
G01X6294383Y-4006312D01*
G01X6295206Y-4006225D01*
G01X6295942Y-4006658D01*
G01X6296981Y-4007870D01*
G01X6298713Y-4010295D01*
G01X6299752Y-4011680D01*
G01X6300964Y-4013412D01*
G01X6301484Y-4014278D01*
G01X6298540Y-4014278D01*
G01X6295076Y-4014451D01*
G01X6292305Y-4014797D01*
G01X6288149Y-4015144D01*
G01X6284339Y-4015490D01*
G01X6280182Y-4016010D01*
G01X6278450Y-4016183D01*
G01X6277065Y-4016529D01*
G01X6275680Y-4016702D01*
G01X6273948Y-4016876D01*
G01X6272562Y-4017222D01*
G01X6270830Y-4017395D01*
G01X6268752Y-4017568D01*
G01X6267367Y-4017915D01*
G01X6263557Y-4018261D01*
G01X6261132Y-4018607D01*
G01X6257669Y-4018954D01*
G01X6253859Y-4019300D01*
G01X6250741Y-4019647D01*
G01X6245892Y-4019993D01*
G01X6243468Y-4020339D01*
G01X6236540Y-4020686D01*
G01X6234116Y-4021032D01*
G01X6232384Y-4021205D01*
G01X6231172Y-4021205D01*
G01X6231172Y-4029345D01*
G01X6231345Y-4038350D01*
G01X6231518Y-4039216D01*
G01X6262171Y-4039216D01*
G01X6285378Y-4039086D01*
G01X6293690Y-4038697D01*
G01X6294903Y-4037657D01*
G01X6298366Y-4034194D01*
G01X6298756Y-4033847D01*
G01X6299232Y-4033847D01*
G01X6300445Y-4034887D01*
G01X6301484Y-4036272D01*
G01X6305813Y-4040602D01*
G01X6306506Y-4041467D01*
G01X6297197Y-4041857D01*
G01X6268925Y-4041987D01*
G01X6231172Y-4041987D01*
G01X6231172Y-4047702D01*
G01X6230999Y-4053937D01*
G01X6230825Y-4056534D01*
G01X6230652Y-4060171D01*
G01X6230306Y-4062249D01*
G01X6229960Y-4065713D01*
G01X6229613Y-4067618D01*
G01X6229267Y-4070216D01*
G01X6228920Y-4071947D01*
G01X6228228Y-4075065D01*
G01X6227881Y-4076450D01*
G01X6227362Y-4078182D01*
G01X6226842Y-4079567D01*
G01X6226496Y-4080780D01*
G01X6225976Y-4082165D01*
G01X6225284Y-4083724D01*
G01X6224591Y-4085109D01*
G01X6224071Y-4086322D01*
G01X6223379Y-4087880D01*
G01X6222686Y-4089266D01*
G01X6221993Y-4090478D01*
G01X6220954Y-4092037D01*
G01X6219915Y-4093768D01*
G01X6218876Y-4095327D01*
G01X6218183Y-4096539D01*
G01X6217490Y-4097405D01*
G01X6216625Y-4098271D01*
G01X6215932Y-4099137D01*
G01X6215412Y-4100003D01*
G01X6214720Y-4100869D01*
G01X6213507Y-4102081D01*
G01X6212468Y-4103467D01*
G01X6209005Y-4106930D01*
G01X6208139Y-4107623D01*
G37*
G36*
G01X6241736Y-4104679D02*
G01X6241043Y-4104679D01*
G01X6240870Y-4102947D01*
G01X6241043Y-4101042D01*
G01X6241390Y-4098271D01*
G01X6241561Y-4077489D01*
G01X6248144Y-4077489D01*
G01X6248317Y-4091690D01*
G01X6268406Y-4091863D01*
G01X6288322Y-4091863D01*
G01X6288322Y-4063462D01*
G01X6248144Y-4063462D01*
G01X6248144Y-4077489D01*
G01X6248144Y-4077489D01*
G01X6241561Y-4077489D01*
G01X6241563Y-4077316D01*
G01X6241563Y-4056881D01*
G01X6243641Y-4057920D01*
G01X6244853Y-4058612D01*
G01X6247970Y-4060171D01*
G01X6253426Y-4060561D01*
G01X6268060Y-4060691D01*
G01X6287629Y-4060344D01*
G01X6288495Y-4059652D01*
G01X6291093Y-4057054D01*
G01X6291785Y-4056534D01*
G01X6292651Y-4057054D01*
G01X6293690Y-4058093D01*
G01X6294383Y-4058959D01*
G01X6295422Y-4059998D01*
G01X6296808Y-4061210D01*
G01X6297500Y-4062076D01*
G01X6297500Y-4062769D01*
G01X6296808Y-4063462D01*
G01X6295076Y-4064847D01*
G01X6294686Y-4068743D01*
G01X6294556Y-4079741D01*
G01X6294730Y-4094807D01*
G01X6295076Y-4098617D01*
G01X6294903Y-4099657D01*
G01X6293864Y-4100522D01*
G01X6290400Y-4101908D01*
G01X6289015Y-4102427D01*
G01X6288322Y-4102601D01*
G01X6288322Y-4094981D01*
G01X6248144Y-4094981D01*
G01X6248144Y-4097578D01*
G01X6247970Y-4101042D01*
G01X6247667Y-4101778D01*
G01X6247105Y-4102254D01*
G01X6245546Y-4102947D01*
G01X6244160Y-4103640D01*
G01X6241736Y-4104679D01*
G37*
G36*
G01X6092973Y-4105848D02*
G01X6092453Y-4105545D01*
G01X6092150Y-4104982D01*
G01X6092280Y-4104332D01*
G01X6093319Y-4102774D01*
G01X6094531Y-4101042D01*
G01X6095397Y-4099657D01*
G01X6096090Y-4098444D01*
G01X6096956Y-4097059D01*
G01X6097649Y-4095847D01*
G01X6100939Y-4089266D01*
G01X6101632Y-4087707D01*
G01X6102325Y-4085975D01*
G01X6102844Y-4084763D01*
G01X6103883Y-4081646D01*
G01X6104922Y-4078182D01*
G01X6105269Y-4076450D01*
G01X6105615Y-4074372D01*
G01X6105961Y-4072987D01*
G01X6106135Y-4071428D01*
G01X6106308Y-4069523D01*
G01X6106654Y-4068137D01*
G01X6107000Y-4063288D01*
G01X6107347Y-4056361D01*
G01X6107520Y-4037831D01*
G01X6107347Y-4019300D01*
G01X6107000Y-4012373D01*
G01X6106827Y-4010987D01*
G01X6107000Y-4009256D01*
G01X6107217Y-4008650D01*
G01X6107520Y-4008563D01*
G01X6108732Y-4009256D01*
G01X6110291Y-4010295D01*
G01X6111676Y-4011161D01*
G01X6112715Y-4011853D01*
G01X6144581Y-4012200D01*
G01X6168307Y-4012070D01*
G01X6176446Y-4011680D01*
G01X6177659Y-4010468D01*
G01X6179044Y-4009256D01*
G01X6180256Y-4008217D01*
G01X6182161Y-4006312D01*
G01X6182638Y-4006182D01*
G01X6183027Y-4006485D01*
G01X6190820Y-4014278D01*
G01X6191340Y-4014971D01*
G01X6152547Y-4015317D01*
G01X6113755Y-4015317D01*
G01X6113755Y-4037311D01*
G01X6113581Y-4059825D01*
G01X6113235Y-4065020D01*
G01X6112715Y-4068657D01*
G01X6112542Y-4070216D01*
G01X6112196Y-4071601D01*
G01X6111850Y-4074026D01*
G01X6111157Y-4076797D01*
G01X6110810Y-4078009D01*
G01X6110291Y-4079567D01*
G01X6109771Y-4080953D01*
G01X6109425Y-4082165D01*
G01X6108905Y-4083377D01*
G01X6107520Y-4086148D01*
G01X6107000Y-4087361D01*
G01X6106308Y-4088746D01*
G01X6105442Y-4090132D01*
G01X6104576Y-4091690D01*
G01X6103537Y-4093422D01*
G01X6102498Y-4094981D01*
G01X6101285Y-4096539D01*
G01X6100246Y-4097925D01*
G01X6099554Y-4098791D01*
G01X6099034Y-4099657D01*
G01X6098341Y-4100522D01*
G01X6097129Y-4101735D01*
G01X6096090Y-4103120D01*
G01X6093492Y-4105718D01*
G01X6092973Y-4105848D01*
G37*
G36*
G01X6111027Y-4099960D02*
G01X6110464Y-4099657D01*
G01X6109425Y-4098791D01*
G01X6107693Y-4097059D01*
G01X6107174Y-4096193D01*
G01X6111893Y-4095803D01*
G01X6126050Y-4095673D01*
G01X6145447Y-4095327D01*
G01X6145837Y-4090175D01*
G01X6145966Y-4075411D01*
G01X6145793Y-4054976D01*
G01X6145620Y-4054110D01*
G01X6139385Y-4054110D01*
G01X6132631Y-4054283D01*
G01X6130034Y-4054456D01*
G01X6127263Y-4054802D01*
G01X6125531Y-4055149D01*
G01X6123972Y-4054976D01*
G01X6122933Y-4054283D01*
G01X6121201Y-4052551D01*
G01X6120509Y-4051685D01*
G01X6123453Y-4051425D01*
G01X6132631Y-4051339D01*
G01X6145447Y-4050992D01*
G01X6145837Y-4048395D01*
G01X6145966Y-4041294D01*
G01X6145793Y-4031423D01*
G01X6145447Y-4024496D01*
G01X6145274Y-4022764D01*
G01X6145447Y-4020686D01*
G01X6145750Y-4020123D01*
G01X6146313Y-4020166D01*
G01X6147525Y-4020859D01*
G01X6154106Y-4024149D01*
G01X6154972Y-4024669D01*
G01X6154972Y-4025362D01*
G01X6154279Y-4026227D01*
G01X6153067Y-4027440D01*
G01X6152201Y-4028132D01*
G01X6152201Y-4051339D01*
G01X6161553Y-4051339D01*
G01X6171424Y-4051166D01*
G01X6172463Y-4050646D01*
G01X6176793Y-4046317D01*
G01X6177182Y-4045970D01*
G01X6177659Y-4045970D01*
G01X6178698Y-4046663D01*
G01X6179737Y-4047702D01*
G01X6180430Y-4048568D01*
G01X6185452Y-4053590D01*
G01X6181729Y-4053980D01*
G01X6169865Y-4054110D01*
G01X6153067Y-4054283D01*
G01X6152201Y-4054456D01*
G01X6152201Y-4095673D01*
G01X6166229Y-4095673D01*
G01X6180776Y-4095500D01*
G01X6181815Y-4094807D01*
G01X6182854Y-4093768D01*
G01X6183893Y-4092902D01*
G01X6186491Y-4090305D01*
G01X6186924Y-4090045D01*
G01X6187530Y-4090305D01*
G01X6194630Y-4097405D01*
G01X6195150Y-4098271D01*
G01X6185539Y-4098661D01*
G01X6156704Y-4098791D01*
G01X6117045Y-4098964D01*
G01X6115313Y-4099310D01*
G01X6113581Y-4099483D01*
G01X6111676Y-4099830D01*
G01X6111027Y-4099960D01*
G37*
G36*
G01X6175754Y-4088140D02*
G01X6175061Y-4087534D01*
G01X6174022Y-4085802D01*
G01X6172636Y-4082338D01*
G01X6170558Y-4078182D01*
G01X6169173Y-4075757D01*
G01X6168307Y-4074372D01*
G01X6167268Y-4072813D01*
G01X6165536Y-4070389D01*
G01X6164497Y-4068830D01*
G01X6163285Y-4067098D01*
G01X6162245Y-4065713D01*
G01X6161553Y-4064847D01*
G01X6161033Y-4063808D01*
G01X6160860Y-4063115D01*
G01X6162245Y-4063462D01*
G01X6164497Y-4064327D01*
G01X6166055Y-4065367D01*
G01X6168480Y-4067098D01*
G01X6170039Y-4068311D01*
G01X6174195Y-4071428D01*
G01X6175061Y-4072294D01*
G01X6177139Y-4074026D01*
G01X6177832Y-4074892D01*
G01X6178871Y-4076104D01*
G01X6179737Y-4077489D01*
G01X6180256Y-4078528D01*
G01X6180603Y-4079741D01*
G01X6180430Y-4081646D01*
G01X6179910Y-4083377D01*
G01X6179217Y-4084763D01*
G01X6178525Y-4085975D01*
G01X6177659Y-4087187D01*
G01X6176446Y-4088227D01*
G01X6175754Y-4088140D01*
G37*
G36*
G01X5978889Y-4107233D02*
G01X5978673Y-4106584D01*
G01X5978803Y-4105891D01*
G01X5979192Y-4105545D01*
G01X5980231Y-4105198D01*
G01X5983349Y-4104506D01*
G01X5987505Y-4103467D01*
G01X5989064Y-4102947D01*
G01X5990795Y-4102427D01*
G01X5992700Y-4101908D01*
G01X5994086Y-4101388D01*
G01X5995818Y-4100869D01*
G01X5997723Y-4100176D01*
G01X5999108Y-4099657D01*
G01X6000667Y-4099137D01*
G01X6004130Y-4097752D01*
G01X6005689Y-4097059D01*
G01X6007075Y-4096539D01*
G01X6008287Y-4096020D01*
G01X6009672Y-4095327D01*
G01X6011231Y-4094634D01*
G01X6012616Y-4093942D01*
G01X6013829Y-4093249D01*
G01X6016600Y-4091863D01*
G01X6019024Y-4090478D01*
G01X6023180Y-4087880D01*
G01X6024739Y-4086841D01*
G01X6026125Y-4085975D01*
G01X6026990Y-4084936D01*
G01X6026990Y-4084330D01*
G01X6026644Y-4083897D01*
G01X6024566Y-4081472D01*
G01X6023354Y-4080260D01*
G01X6020236Y-4076104D01*
G01X6018851Y-4074372D01*
G01X6018158Y-4073333D01*
G01X6017292Y-4071947D01*
G01X6015214Y-4068830D01*
G01X6014348Y-4067618D01*
G01X6013655Y-4066406D01*
G01X6012963Y-4065020D01*
G01X6012270Y-4063808D01*
G01X6010538Y-4060691D01*
G01X6010091Y-4060517D01*
G01X6013915Y-4060517D01*
G01X6014175Y-4061210D01*
G01X6015214Y-4062769D01*
G01X6017812Y-4066406D01*
G01X6018851Y-4067791D01*
G01X6019717Y-4069177D01*
G01X6020410Y-4070042D01*
G01X6022141Y-4072121D01*
G01X6023354Y-4073333D01*
G01X6024393Y-4074718D01*
G01X6029588Y-4079914D01*
G01X6030454Y-4080607D01*
G01X6030454Y-4080607D01*
G01X6031666Y-4080953D01*
G01X6032273Y-4080953D01*
G01X6032705Y-4080607D01*
G01X6040499Y-4072813D01*
G01X6041884Y-4071082D01*
G01X6043616Y-4069350D01*
G01X6045694Y-4066925D01*
G01X6047426Y-4064847D01*
G01X6048292Y-4063981D01*
G01X6048985Y-4063115D01*
G01X6050024Y-4061903D01*
G01X6050890Y-4060517D01*
G01X6046474Y-4060128D01*
G01X6032879Y-4059998D01*
G01X6014175Y-4060171D01*
G01X6013915Y-4060517D01*
G01X6010091Y-4060517D01*
G01X6009196Y-4060171D01*
G01X6005862Y-4059998D01*
G01X6001013Y-4060171D01*
G01X5999281Y-4060517D01*
G01X5997550Y-4060517D01*
G01X5996164Y-4059652D01*
G01X5994779Y-4058439D01*
G01X5994086Y-4057573D01*
G01X5996424Y-4057313D01*
G01X6003784Y-4057227D01*
G01X6014521Y-4057054D01*
G01X6015387Y-4056881D01*
G01X6015387Y-4022244D01*
G01X6021795Y-4022244D01*
G01X6021968Y-4039736D01*
G01X6021968Y-4039736D01*
G01X6022141Y-4057054D01*
G01X6029588Y-4057227D01*
G01X6035173Y-4057097D01*
G01X6037381Y-4056707D01*
G01X6037771Y-4052291D01*
G01X6037901Y-4040082D01*
G01X6037728Y-4022764D01*
G01X6037555Y-4021552D01*
G01X6030454Y-4021552D01*
G01X6022488Y-4021725D01*
G01X6021882Y-4021941D01*
G01X6021795Y-4022244D01*
G01X6015387Y-4022244D01*
G01X6015387Y-4021552D01*
G01X6004130Y-4021552D01*
G01X5992354Y-4021725D01*
G01X5987851Y-4022071D01*
G01X5984215Y-4022591D01*
G01X5983175Y-4022244D01*
G01X5982310Y-4021552D01*
G01X5980578Y-4019820D01*
G01X5980058Y-4018954D01*
G01X5986033Y-4018564D01*
G01X6003957Y-4018434D01*
G01X6027856Y-4018434D01*
G01X6027683Y-4017742D01*
G01X6027164Y-4015837D01*
G01X6026471Y-4013932D01*
G01X6025951Y-4012719D01*
G01X6025259Y-4011334D01*
G01X6024220Y-4009602D01*
G01X6023354Y-4008390D01*
G01X6022834Y-4007524D01*
G01X6020756Y-4004926D01*
G01X6020236Y-4004060D01*
G01X6020583Y-4003194D01*
G01X6021795Y-4003194D01*
G01X6023354Y-4003887D01*
G01X6027510Y-4005965D01*
G01X6028549Y-4006658D01*
G01X6029588Y-4007177D01*
G01X6030627Y-4007870D01*
G01X6032705Y-4009602D01*
G01X6033571Y-4010468D01*
G01X6034610Y-4011680D01*
G01X6034957Y-4013412D01*
G01X6034610Y-4014797D01*
G01X6034091Y-4016010D01*
G01X6033225Y-4017049D01*
G01X6032532Y-4017915D01*
G01X6036386Y-4018304D01*
G01X6048292Y-4018434D01*
G01X6064571Y-4018088D01*
G01X6065437Y-4017395D01*
G01X6070632Y-4012200D01*
G01X6071671Y-4012200D01*
G01X6072710Y-4013066D01*
G01X6077906Y-4018261D01*
G01X6078772Y-4019300D01*
G01X6080504Y-4021032D01*
G01X6076391Y-4021422D01*
G01X6063359Y-4021552D01*
G01X6045001Y-4021725D01*
G01X6044135Y-4021898D01*
G01X6044135Y-4038697D01*
G01X6044309Y-4056361D01*
G01X6044482Y-4057227D01*
G01X6047772Y-4057227D01*
G01X6051582Y-4056881D01*
G01X6052621Y-4056188D01*
G01X6054007Y-4054456D01*
G01X6055739Y-4052724D01*
G01X6056605Y-4052724D01*
G01X6057470Y-4053417D01*
G01X6060068Y-4056015D01*
G01X6061800Y-4057400D01*
G01X6062666Y-4058266D01*
G01X6063185Y-4059132D01*
G01X6062666Y-4059825D01*
G01X6061627Y-4060344D01*
G01X6060068Y-4061037D01*
G01X6058683Y-4061903D01*
G01X6056951Y-4063635D01*
G01X6056258Y-4064501D01*
G01X6055219Y-4065713D01*
G01X6054007Y-4067272D01*
G01X6051236Y-4070042D01*
G01X6049158Y-4072467D01*
G01X6045348Y-4076277D01*
G01X6043962Y-4077489D01*
G01X6042923Y-4078528D01*
G01X6042057Y-4079221D01*
G01X6039633Y-4081646D01*
G01X6037555Y-4083377D01*
G01X6036689Y-4084243D01*
G01X6036342Y-4084676D01*
G01X6036342Y-4085282D01*
G01X6037208Y-4086322D01*
G01X6038594Y-4087187D01*
G01X6039806Y-4088053D01*
G01X6040845Y-4088746D01*
G01X6045694Y-4091171D01*
G01X6048811Y-4092556D01*
G01X6052275Y-4093942D01*
G01X6053660Y-4094461D01*
G01X6054873Y-4094807D01*
G01X6056605Y-4095327D01*
G01X6058163Y-4095847D01*
G01X6059722Y-4096193D01*
G01X6061454Y-4096712D01*
G01X6063359Y-4097232D01*
G01X6066822Y-4097925D01*
G01X6068900Y-4098271D01*
G01X6070286Y-4098617D01*
G01X6071671Y-4098791D01*
G01X6073403Y-4098964D01*
G01X6074789Y-4099310D01*
G01X6079984Y-4099657D01*
G01X6081196Y-4099830D01*
G01X6081716Y-4100090D01*
G01X6081889Y-4100869D01*
G01X6081889Y-4101908D01*
G01X6080677Y-4102081D01*
G01X6078772Y-4102601D01*
G01X6077213Y-4103293D01*
G01X6076001Y-4103986D01*
G01X6074962Y-4104679D01*
G01X6073923Y-4105718D01*
G01X6073230Y-4106757D01*
G01X6071845Y-4106757D01*
G01X6069940Y-4106237D01*
G01X6068554Y-4105891D01*
G01X6066995Y-4105545D01*
G01X6064917Y-4105025D01*
G01X6063359Y-4104506D01*
G01X6061973Y-4104159D01*
G01X6060415Y-4103640D01*
G01X6059202Y-4103120D01*
G01X6057990Y-4102774D01*
G01X6056431Y-4102254D01*
G01X6051236Y-4100176D01*
G01X6046560Y-4098098D01*
G01X6045348Y-4097578D01*
G01X6044482Y-4097059D01*
G01X6043270Y-4096366D01*
G01X6041538Y-4095500D01*
G01X6040152Y-4094634D01*
G01X6038940Y-4093942D01*
G01X6037555Y-4093076D01*
G01X6035996Y-4092037D01*
G01X6034784Y-4091171D01*
G01X6033918Y-4090651D01*
G01X6033052Y-4089958D01*
G01X6032013Y-4089266D01*
G01X6030627Y-4089439D01*
G01X6029069Y-4090305D01*
G01X6027337Y-4091344D01*
G01X6025951Y-4092210D01*
G01X6023527Y-4093422D01*
G01X6021968Y-4094288D01*
G01X6020756Y-4094981D01*
G01X6017639Y-4096366D01*
G01X6016253Y-4097059D01*
G01X6009326Y-4099830D01*
G01X6007940Y-4100349D01*
G01X6006209Y-4100869D01*
G01X6003957Y-4101562D01*
G01X6002052Y-4102254D01*
G01X6000667Y-4102774D01*
G01X5999108Y-4103120D01*
G01X5997376Y-4103640D01*
G01X5995991Y-4103986D01*
G01X5994779Y-4104332D01*
G01X5993393Y-4104679D01*
G01X5991835Y-4105025D01*
G01X5990449Y-4105372D01*
G01X5988717Y-4105718D01*
G01X5986466Y-4106237D01*
G01X5984734Y-4106584D01*
G01X5980924Y-4107277D01*
G01X5979539Y-4107450D01*
G01X5978889Y-4107233D01*
G37*
G36*
G01X6076347Y-4056015D02*
G01X6074962Y-4055842D01*
G01X6073923Y-4054976D01*
G01X6072191Y-4053244D01*
G01X6071325Y-4052032D01*
G01X6068900Y-4048914D01*
G01X6064051Y-4044065D01*
G01X6062666Y-4043026D01*
G01X6060934Y-4041294D01*
G01X6059549Y-4040255D01*
G01X6057817Y-4038870D01*
G01X6056258Y-4037657D01*
G01X6055219Y-4036792D01*
G01X6054353Y-4036099D01*
G01X6052968Y-4035060D01*
G01X6051236Y-4033674D01*
G01X6049850Y-4032808D01*
G01X6049331Y-4032289D01*
G01X6049677Y-4031423D01*
G01X6050067Y-4031077D01*
G01X6050543Y-4031077D01*
G01X6051582Y-4031423D01*
G01X6054353Y-4032808D01*
G01X6055219Y-4033328D01*
G01X6056431Y-4034021D01*
G01X6057990Y-4034713D01*
G01X6059202Y-4035233D01*
G01X6060068Y-4035752D01*
G01X6061280Y-4036445D01*
G01X6065437Y-4038523D01*
G01X6070286Y-4041294D01*
G01X6071671Y-4042160D01*
G01X6073403Y-4043199D01*
G01X6074615Y-4044065D01*
G01X6075481Y-4044758D01*
G01X6076867Y-4046143D01*
G01X6077733Y-4047356D01*
G01X6078425Y-4048741D01*
G01X6078772Y-4050819D01*
G01X6078425Y-4053244D01*
G01X6077560Y-4054976D01*
G01X6076347Y-4056015D01*
G37*
G36*
G01X9607954Y-5468331D02*
G01X9607088Y-5468158D01*
G01X9606742Y-5467292D01*
G01X9607088Y-5466426D01*
G01X9607781Y-5465561D01*
G01X9610898Y-5461404D01*
G01X9611937Y-5459846D01*
G01X9613669Y-5457074D01*
G01X9614535Y-5455516D01*
G01X9615401Y-5454304D01*
G01X9616094Y-5453091D01*
G01X9616786Y-5451533D01*
G01X9617306Y-5450321D01*
G01X9617999Y-5448935D01*
G01X9618864Y-5447030D01*
G01X9619557Y-5445125D01*
G01X9620077Y-5443739D01*
G01X9620423Y-5442354D01*
G01X9620943Y-5440796D01*
G01X9621636Y-5437678D01*
G01X9622155Y-5435600D01*
G01X9622501Y-5433695D01*
G01X9622848Y-5431617D01*
G01X9623194Y-5428499D01*
G01X9623541Y-5426421D01*
G01X9623887Y-5420879D01*
G01X9624233Y-5416377D01*
G01X9624406Y-5396807D01*
G01X9624233Y-5376545D01*
G01X9624406Y-5375159D01*
G01X9625619Y-5375506D01*
G01X9629082Y-5377584D01*
G01X9630294Y-5378450D01*
G01X9632373Y-5378796D01*
G01X9634624Y-5378623D01*
G01X9637049Y-5378277D01*
G01X9638954Y-5378104D01*
G01X9641551Y-5377931D01*
G01X9643283Y-5377584D01*
G01X9644842Y-5377411D01*
G01X9647093Y-5377238D01*
G01X9648825Y-5376891D01*
G01X9650037Y-5376718D01*
G01X9652289Y-5376545D01*
G01X9654367Y-5376199D01*
G01X9655579Y-5376026D01*
G01X9657484Y-5375852D01*
G01X9659909Y-5375506D01*
G01X9661641Y-5375159D01*
G01X9663372Y-5374986D01*
G01X9665277Y-5374640D01*
G01X9666663Y-5374294D01*
G01X9667875Y-5374121D01*
G01X9669434Y-5373774D01*
G01X9671339Y-5373428D01*
G01X9672724Y-5373081D01*
G01X9676881Y-5372389D01*
G01X9679651Y-5371696D01*
G01X9682076Y-5371003D01*
G01X9686232Y-5369964D01*
G01X9688137Y-5369444D01*
G01X9689869Y-5368752D01*
G01X9692640Y-5367713D01*
G01X9694199Y-5367020D01*
G01X9695021Y-5366933D01*
G01X9695757Y-5367366D01*
G01X9696796Y-5368579D01*
G01X9698528Y-5371003D01*
G01X9699567Y-5372389D01*
G01X9700779Y-5374121D01*
G01X9701299Y-5374986D01*
G01X9698355Y-5374986D01*
G01X9694891Y-5375159D01*
G01X9692121Y-5375506D01*
G01X9687964Y-5375852D01*
G01X9684154Y-5376199D01*
G01X9679998Y-5376718D01*
G01X9678266Y-5376891D01*
G01X9676881Y-5377238D01*
G01X9675495Y-5377411D01*
G01X9673763Y-5377584D01*
G01X9672378Y-5377931D01*
G01X9670646Y-5378104D01*
G01X9668568Y-5378277D01*
G01X9667182Y-5378623D01*
G01X9663372Y-5378969D01*
G01X9660948Y-5379316D01*
G01X9657484Y-5379662D01*
G01X9653674Y-5380009D01*
G01X9650557Y-5380355D01*
G01X9645708Y-5380701D01*
G01X9643283Y-5381048D01*
G01X9636356Y-5381394D01*
G01X9633931Y-5381741D01*
G01X9632199Y-5381914D01*
G01X9630987Y-5381914D01*
G01X9630987Y-5390053D01*
G01X9631161Y-5399059D01*
G01X9631334Y-5399924D01*
G01X9661987Y-5399924D01*
G01X9685193Y-5399795D01*
G01X9693506Y-5399405D01*
G01X9694718Y-5398366D01*
G01X9698182Y-5394902D01*
G01X9698571Y-5394556D01*
G01X9699048Y-5394556D01*
G01X9700260Y-5395595D01*
G01X9701299Y-5396981D01*
G01X9705629Y-5401310D01*
G01X9706321Y-5402176D01*
G01X9697013Y-5402566D01*
G01X9668741Y-5402696D01*
G01X9630987Y-5402696D01*
G01X9630987Y-5408411D01*
G01X9630814Y-5414645D01*
G01X9630641Y-5417243D01*
G01X9630468Y-5420879D01*
G01X9630121Y-5422958D01*
G01X9629775Y-5426421D01*
G01X9629429Y-5428326D01*
G01X9629082Y-5430924D01*
G01X9628736Y-5432656D01*
G01X9628043Y-5435773D01*
G01X9627697Y-5437159D01*
G01X9627177Y-5438891D01*
G01X9626658Y-5440276D01*
G01X9626311Y-5441488D01*
G01X9625792Y-5442874D01*
G01X9625099Y-5444432D01*
G01X9624406Y-5445818D01*
G01X9623887Y-5447030D01*
G01X9623194Y-5448589D01*
G01X9622501Y-5449974D01*
G01X9621809Y-5451186D01*
G01X9620769Y-5452745D01*
G01X9619731Y-5454477D01*
G01X9618691Y-5456036D01*
G01X9617999Y-5457248D01*
G01X9617306Y-5458114D01*
G01X9616440Y-5458979D01*
G01X9615747Y-5459846D01*
G01X9615228Y-5460711D01*
G01X9614535Y-5461577D01*
G01X9613323Y-5462789D01*
G01X9612284Y-5464175D01*
G01X9608820Y-5467639D01*
G01X9607954Y-5468331D01*
G37*
G36*
G01X9641551Y-5465387D02*
G01X9640859Y-5465387D01*
G01X9640686Y-5463656D01*
G01X9640859Y-5461751D01*
G01X9641205Y-5458979D01*
G01X9641377Y-5438198D01*
G01X9647959Y-5438198D01*
G01X9648132Y-5452399D01*
G01X9668221Y-5452572D01*
G01X9688137Y-5452572D01*
G01X9688137Y-5424170D01*
G01X9647959Y-5424170D01*
G01X9647959Y-5438198D01*
G01X9647959Y-5438198D01*
G01X9641377Y-5438198D01*
G01X9641378Y-5438024D01*
G01X9641378Y-5417589D01*
G01X9643456Y-5418628D01*
G01X9644669Y-5419321D01*
G01X9647786Y-5420879D01*
G01X9653241Y-5421269D01*
G01X9667875Y-5421399D01*
G01X9687444Y-5421053D01*
G01X9688311Y-5420360D01*
G01X9690908Y-5417762D01*
G01X9691601Y-5417243D01*
G01X9692467Y-5417762D01*
G01X9693506Y-5418801D01*
G01X9694199Y-5419667D01*
G01X9695238Y-5420706D01*
G01X9696623Y-5421919D01*
G01X9697316Y-5422784D01*
G01X9697316Y-5423477D01*
G01X9696623Y-5424170D01*
G01X9694891Y-5425556D01*
G01X9694502Y-5429452D01*
G01X9694372Y-5440449D01*
G01X9694545Y-5455516D01*
G01X9694891Y-5459326D01*
G01X9694718Y-5460365D01*
G01X9693679Y-5461231D01*
G01X9690216Y-5462616D01*
G01X9688830Y-5463136D01*
G01X9688137Y-5463309D01*
G01X9688137Y-5455689D01*
G01X9647959Y-5455689D01*
G01X9647959Y-5458287D01*
G01X9647786Y-5461751D01*
G01X9647483Y-5462486D01*
G01X9646920Y-5462963D01*
G01X9645361Y-5463656D01*
G01X9643976Y-5464348D01*
G01X9641551Y-5465387D01*
G37*
G36*
G01X9378012Y-5429062D02*
G01X9378142Y-5428326D01*
G01X9378618Y-5427417D01*
G01X9379354Y-5426768D01*
G01X9381779Y-5425036D01*
G01X9383337Y-5423997D01*
G01X9384549Y-5423131D01*
G01X9385416Y-5422438D01*
G01X9386454Y-5421746D01*
G01X9387494Y-5420879D01*
G01X9388359Y-5420014D01*
G01X9389226Y-5419321D01*
G01X9390091Y-5418801D01*
G01X9390957Y-5418109D01*
G01X9397884Y-5411181D01*
G01X9398577Y-5410316D01*
G01X9399097Y-5409449D01*
G01X9401175Y-5406852D01*
G01X9401868Y-5405813D01*
G01X9402041Y-5405120D01*
G01X9398751Y-5405120D01*
G01X9394941Y-5405293D01*
G01X9394248Y-5406332D01*
G01X9393901Y-5407068D01*
G01X9393209Y-5407544D01*
G01X9391650Y-5408237D01*
G01X9389745Y-5408930D01*
G01X9388533Y-5409276D01*
G01X9388533Y-5407371D01*
G01X9388706Y-5404947D01*
G01X9388879Y-5397673D01*
G01X9388846Y-5396288D01*
G01X9394421Y-5396288D01*
G01X9394594Y-5401829D01*
G01X9399270Y-5402003D01*
G01X9404639Y-5401829D01*
G01X9405504Y-5401656D01*
G01X9405504Y-5396981D01*
G01X9405483Y-5396288D01*
G01X9411393Y-5396288D01*
G01X9411566Y-5401829D01*
G01X9416761Y-5402003D01*
G01X9421784Y-5402003D01*
G01X9421784Y-5397154D01*
G01X9421611Y-5391439D01*
G01X9421437Y-5390573D01*
G01X9417281Y-5390573D01*
G01X9412259Y-5390746D01*
G01X9411393Y-5390919D01*
G01X9411393Y-5396288D01*
G01X9411393Y-5396288D01*
G01X9405483Y-5396288D01*
G01X9405331Y-5391439D01*
G01X9405158Y-5390573D01*
G01X9400656Y-5390573D01*
G01X9395287Y-5390746D01*
G01X9394421Y-5390919D01*
G01X9394421Y-5396288D01*
G01X9394421Y-5396288D01*
G01X9388846Y-5396288D01*
G01X9388706Y-5390399D01*
G01X9388533Y-5387802D01*
G01X9388879Y-5385724D01*
G01X9389918Y-5385897D01*
G01X9393555Y-5387456D01*
G01X9398924Y-5387802D01*
G01X9404639Y-5387629D01*
G01X9405504Y-5387456D01*
G01X9405504Y-5384338D01*
G01X9405331Y-5380355D01*
G01X9405158Y-5379489D01*
G01X9399097Y-5379489D01*
G01X9392516Y-5379662D01*
G01X9389745Y-5380009D01*
G01X9388533Y-5380182D01*
G01X9387147Y-5380528D01*
G01X9385589Y-5380874D01*
G01X9384376Y-5380355D01*
G01X9381779Y-5377757D01*
G01X9381476Y-5377368D01*
G01X9381606Y-5376891D01*
G01X9384593Y-5376502D01*
G01X9392862Y-5376372D01*
G01X9404639Y-5376199D01*
G01X9405288Y-5375766D01*
G01X9405504Y-5374813D01*
G01X9405331Y-5373081D01*
G01X9405158Y-5369098D01*
G01X9405331Y-5365115D01*
G01X9405591Y-5364769D01*
G01X9406024Y-5364769D01*
G01X9407236Y-5365288D01*
G01X9408795Y-5365981D01*
G01X9410181Y-5366674D01*
G01X9413817Y-5368232D01*
G01X9414294Y-5368449D01*
G01X9414337Y-5368752D01*
G01X9413817Y-5369618D01*
G01X9412951Y-5370484D01*
G01X9411912Y-5371349D01*
G01X9411523Y-5372345D01*
G01X9411393Y-5374294D01*
G01X9411479Y-5376069D01*
G01X9411739Y-5376545D01*
G01X9417281Y-5376372D01*
G01X9423342Y-5376199D01*
G01X9424554Y-5375506D01*
G01X9427499Y-5372562D01*
G01X9428235Y-5372172D01*
G01X9428711Y-5372389D01*
G01X9434772Y-5378450D01*
G01X9435292Y-5379143D01*
G01X9423342Y-5379489D01*
G01X9411393Y-5379489D01*
G01X9411393Y-5387802D01*
G01X9416242Y-5387802D01*
G01X9421784Y-5387456D01*
G01X9422649Y-5386589D01*
G01X9423342Y-5385724D01*
G01X9424208Y-5384858D01*
G01X9424554Y-5384555D01*
G01X9424901Y-5384684D01*
G01X9425767Y-5385377D01*
G01X9426633Y-5386243D01*
G01X9428364Y-5387629D01*
G01X9429231Y-5388494D01*
G01X9429923Y-5389361D01*
G01X9429837Y-5389923D01*
G01X9429231Y-5390573D01*
G01X9427845Y-5391439D01*
G01X9427455Y-5392348D01*
G01X9427326Y-5394729D01*
G01X9427499Y-5398366D01*
G01X9427672Y-5400964D01*
G01X9427845Y-5404254D01*
G01X9427845Y-5405250D01*
G01X9427499Y-5405813D01*
G01X9426286Y-5406506D01*
G01X9423516Y-5407544D01*
G01X9422303Y-5407544D01*
G01X9421914Y-5407025D01*
G01X9421784Y-5406159D01*
G01X9421784Y-5405120D01*
G01X9411393Y-5405120D01*
G01X9411393Y-5405986D01*
G01X9411912Y-5407198D01*
G01X9413298Y-5407718D01*
G01X9414856Y-5408237D01*
G01X9418666Y-5409623D01*
G01X9420398Y-5410316D01*
G01X9421957Y-5411008D01*
G01X9423169Y-5411528D01*
G01X9424208Y-5412221D01*
G01X9426286Y-5414299D01*
G01X9426806Y-5415294D01*
G01X9426979Y-5416550D01*
G01X9426633Y-5418974D01*
G01X9425767Y-5420879D01*
G01X9425204Y-5421529D01*
G01X9424554Y-5421746D01*
G01X9423516Y-5421399D01*
G01X9422649Y-5420360D01*
G01X9421957Y-5419148D01*
G01X9421264Y-5418282D01*
G01X9419532Y-5416204D01*
G01X9416934Y-5413606D01*
G01X9414856Y-5411874D01*
G01X9413124Y-5410489D01*
G01X9412086Y-5409796D01*
G01X9411393Y-5409623D01*
G01X9411393Y-5414991D01*
G01X9411566Y-5420879D01*
G01X9411739Y-5422611D01*
G01X9411393Y-5424170D01*
G01X9410354Y-5424863D01*
G01X9408795Y-5425556D01*
G01X9407409Y-5426248D01*
G01X9406024Y-5426768D01*
G01X9405158Y-5426941D01*
G01X9405158Y-5422611D01*
G01X9405331Y-5417762D01*
G01X9405504Y-5415164D01*
G01X9405331Y-5411874D01*
G01X9405158Y-5410662D01*
G01X9404466Y-5411008D01*
G01X9403426Y-5411874D01*
G01X9399097Y-5416204D01*
G01X9394767Y-5419667D01*
G01X9393555Y-5420533D01*
G01X9390438Y-5422611D01*
G01X9388706Y-5423651D01*
G01X9387494Y-5424516D01*
G01X9386281Y-5425209D01*
G01X9378315Y-5429192D01*
G01X9378012Y-5429062D01*
G37*
G36*
G01X9385762Y-5464694D02*
G01X9384203Y-5464175D01*
G01X9383337Y-5463136D01*
G01X9381606Y-5461404D01*
G01X9383987Y-5461014D01*
G01X9391823Y-5460884D01*
G01X9403253Y-5460711D01*
G01X9404119Y-5460538D01*
G01X9404119Y-5456555D01*
G01X9403946Y-5452052D01*
G01X9403773Y-5444779D01*
G01X9403773Y-5438024D01*
G01X9404466Y-5438371D01*
G01X9407583Y-5439756D01*
G01X9408795Y-5440276D01*
G01X9409834Y-5440796D01*
G01X9411393Y-5441488D01*
G01X9412778Y-5442181D01*
G01X9412778Y-5442701D01*
G01X9412086Y-5443393D01*
G01X9410873Y-5444432D01*
G01X9410007Y-5444952D01*
G01X9410007Y-5460884D01*
G01X9417627Y-5460884D01*
G01X9426113Y-5460711D01*
G01X9426719Y-5460495D01*
G01X9426806Y-5460192D01*
G01X9426633Y-5446857D01*
G01X9426806Y-5432656D01*
G01X9426979Y-5431444D01*
G01X9413644Y-5431444D01*
G01X9399789Y-5431617D01*
G01X9396672Y-5432309D01*
G01X9395287Y-5432483D01*
G01X9394074Y-5432136D01*
G01X9393209Y-5431444D01*
G01X9391477Y-5429712D01*
G01X9390784Y-5428846D01*
G01X9398664Y-5428456D01*
G01X9422649Y-5428326D01*
G01X9455208Y-5428153D01*
G01X9456247Y-5427634D01*
G01X9460576Y-5423304D01*
G01X9461053Y-5423044D01*
G01X9461789Y-5423304D01*
G01X9463001Y-5424343D01*
G01X9464733Y-5426075D01*
G01X9465599Y-5427114D01*
G01X9466464Y-5427980D01*
G01X9467331Y-5428673D01*
G01X9468543Y-5429885D01*
G01X9469062Y-5431097D01*
G01X9451051Y-5431444D01*
G01X9433214Y-5431444D01*
G01X9433214Y-5443220D01*
G01X9441526Y-5443220D01*
G01X9450705Y-5443047D01*
G01X9451917Y-5442354D01*
G01X9455381Y-5438891D01*
G01X9456074Y-5438371D01*
G01X9457286Y-5439064D01*
G01X9458671Y-5440276D01*
G01X9462828Y-5444432D01*
G01X9463694Y-5445471D01*
G01X9460100Y-5445861D01*
G01X9448627Y-5445991D01*
G01X9433214Y-5445991D01*
G01X9433214Y-5460884D01*
G01X9447934Y-5460884D01*
G01X9463521Y-5460538D01*
G01X9464733Y-5459672D01*
G01X9465599Y-5458633D01*
G01X9466638Y-5457421D01*
G01X9468543Y-5455516D01*
G01X9469409Y-5454823D01*
G01X9470101Y-5454823D01*
G01X9470794Y-5455343D01*
G01X9477721Y-5462270D01*
G01X9478241Y-5462963D01*
G01X9436504Y-5463309D01*
G01X9394248Y-5463482D01*
G01X9391131Y-5463829D01*
G01X9389399Y-5464002D01*
G01X9387494Y-5464348D01*
G01X9385762Y-5464694D01*
G37*
G36*
G01X9421697Y-5427461D02*
G01X9421264Y-5427114D01*
G01X9421437Y-5426248D01*
G01X9422476Y-5425556D01*
G01X9425594Y-5424516D01*
G01X9426806Y-5423997D01*
G01X9428191Y-5423477D01*
G01X9429750Y-5422784D01*
G01X9431136Y-5422092D01*
G01X9432694Y-5421399D01*
G01X9434426Y-5420533D01*
G01X9435984Y-5419667D01*
G01X9437370Y-5418974D01*
G01X9438756Y-5418109D01*
G01X9443431Y-5414991D01*
G01X9444644Y-5414126D01*
G01X9445683Y-5413433D01*
G01X9446722Y-5412567D01*
G01X9448454Y-5411181D01*
G01X9449319Y-5410316D01*
G01X9450012Y-5409276D01*
G01X9449666Y-5407718D01*
G01X9447068Y-5402522D01*
G01X9445683Y-5399405D01*
G01X9444990Y-5397673D01*
G01X9444471Y-5396288D01*
G01X9444124Y-5395076D01*
G01X9443604Y-5393690D01*
G01X9442566Y-5390573D01*
G01X9442219Y-5389187D01*
G01X9442089Y-5388624D01*
G01X9441699Y-5388321D01*
G01X9441223Y-5388321D01*
G01X9440834Y-5388668D01*
G01X9439968Y-5390053D01*
G01X9439102Y-5391266D01*
G01X9437716Y-5393690D01*
G01X9435984Y-5396288D01*
G01X9435119Y-5397673D01*
G01X9434426Y-5398539D01*
G01X9432348Y-5400964D01*
G01X9431482Y-5401829D01*
G01X9430616Y-5402349D01*
G01X9430226Y-5402176D01*
G01X9430096Y-5401656D01*
G01X9430443Y-5400444D01*
G01X9432001Y-5397327D01*
G01X9432867Y-5395768D01*
G01X9433560Y-5394556D01*
G01X9434253Y-5393171D01*
G01X9434946Y-5391439D01*
G01X9435638Y-5389880D01*
G01X9437024Y-5386416D01*
G01X9437673Y-5384684D01*
G01X9443258Y-5384684D01*
G01X9443604Y-5386243D01*
G01X9444124Y-5387629D01*
G01X9444471Y-5388668D01*
G01X9444990Y-5390053D01*
G01X9446376Y-5393171D01*
G01X9448627Y-5397673D01*
G01X9449493Y-5399059D01*
G01X9450186Y-5400271D01*
G01X9451224Y-5401829D01*
G01X9452437Y-5403561D01*
G01X9452437Y-5403561D01*
G01X9453303Y-5404601D01*
G01X9453996Y-5404427D01*
G01X9454688Y-5403734D01*
G01X9455381Y-5402522D01*
G01X9457459Y-5398366D01*
G01X9458152Y-5396807D01*
G01X9458844Y-5395076D01*
G01X9459884Y-5391958D01*
G01X9460923Y-5388494D01*
G01X9461616Y-5385377D01*
G01X9461962Y-5383992D01*
G01X9459797Y-5383472D01*
G01X9453303Y-5383299D01*
G01X9443951Y-5383646D01*
G01X9443431Y-5384078D01*
G01X9443258Y-5384684D01*
G01X9437673Y-5384684D01*
G01X9438063Y-5383646D01*
G01X9440141Y-5377411D01*
G01X9440661Y-5375679D01*
G01X9441180Y-5374121D01*
G01X9441526Y-5372908D01*
G01X9442566Y-5368752D01*
G01X9443085Y-5366847D01*
G01X9443604Y-5364596D01*
G01X9444038Y-5363903D01*
G01X9444644Y-5363903D01*
G01X9446202Y-5364769D01*
G01X9447934Y-5365808D01*
G01X9449493Y-5366674D01*
G01X9450705Y-5367366D01*
G01X9452091Y-5368059D01*
G01X9452653Y-5368406D01*
G01X9452610Y-5368752D01*
G01X9451744Y-5369444D01*
G01X9450359Y-5370137D01*
G01X9449146Y-5371003D01*
G01X9448454Y-5372216D01*
G01X9446376Y-5376891D01*
G01X9445683Y-5378277D01*
G01X9445163Y-5379489D01*
G01X9444990Y-5380182D01*
G01X9456420Y-5380182D01*
G01X9468196Y-5379836D01*
G01X9469409Y-5378796D01*
G01X9470794Y-5377584D01*
G01X9471833Y-5376372D01*
G01X9472396Y-5375896D01*
G01X9473046Y-5375852D01*
G01X9474084Y-5376545D01*
G01X9479107Y-5381567D01*
G01X9479799Y-5382606D01*
G01X9479973Y-5383299D01*
G01X9474604Y-5383299D01*
G01X9468716Y-5383472D01*
G01X9468023Y-5384511D01*
G01X9467331Y-5387975D01*
G01X9466638Y-5390746D01*
G01X9465079Y-5395422D01*
G01X9464559Y-5396807D01*
G01X9464040Y-5398019D01*
G01X9461269Y-5403561D01*
G01X9460403Y-5404947D01*
G01X9459364Y-5406679D01*
G01X9458498Y-5407891D01*
G01X9458152Y-5408930D01*
G01X9458671Y-5410142D01*
G01X9460057Y-5411181D01*
G01X9461269Y-5412221D01*
G01X9462308Y-5413086D01*
G01X9465079Y-5414818D01*
G01X9466638Y-5415684D01*
G01X9467850Y-5416550D01*
G01X9469236Y-5417243D01*
G01X9470967Y-5417936D01*
G01X9472526Y-5418455D01*
G01X9473911Y-5418974D01*
G01X9475643Y-5419494D01*
G01X9477375Y-5419841D01*
G01X9479280Y-5420187D01*
G01X9480362Y-5420490D01*
G01X9480839Y-5421053D01*
G01X9480666Y-5422092D01*
G01X9479280Y-5422784D01*
G01X9477375Y-5423477D01*
G01X9475643Y-5424516D01*
G01X9474431Y-5425382D01*
G01X9473911Y-5426421D01*
G01X9473392Y-5427287D01*
G01X9472179Y-5426941D01*
G01X9470448Y-5426075D01*
G01X9469062Y-5425209D01*
G01X9465945Y-5423131D01*
G01X9464559Y-5422092D01*
G01X9463001Y-5421053D01*
G01X9461962Y-5420187D01*
G01X9460230Y-5418801D01*
G01X9459018Y-5417589D01*
G01X9457806Y-5416723D01*
G01X9455381Y-5414299D01*
G01X9454342Y-5413606D01*
G01X9453129Y-5413779D01*
G01X9451744Y-5414645D01*
G01X9447068Y-5417762D01*
G01X9445856Y-5418455D01*
G01X9443431Y-5419667D01*
G01X9441007Y-5421053D01*
G01X9437889Y-5422438D01*
G01X9432694Y-5424516D01*
G01X9430789Y-5425209D01*
G01X9429231Y-5425729D01*
G01X9427672Y-5426075D01*
G01X9425767Y-5426594D01*
G01X9424381Y-5427114D01*
G01X9422649Y-5427461D01*
G01X9421697Y-5427461D01*
G37*
G36*
G01X9503569Y-5413952D02*
G01X9503006Y-5413606D01*
G01X9502140Y-5412221D01*
G01X9501447Y-5410489D01*
G01X9500062Y-5407718D01*
G01X9499196Y-5406159D01*
G01X9498157Y-5404601D01*
G01X9495559Y-5400964D01*
G01X9495039Y-5400098D01*
G01X9494347Y-5399232D01*
G01X9493481Y-5398366D01*
G01X9492442Y-5396981D01*
G01X9492009Y-5396201D01*
G01X9492096Y-5395595D01*
G01X9492528Y-5395292D01*
G01X9493134Y-5395422D01*
G01X9494520Y-5396114D01*
G01X9496079Y-5396807D01*
G01X9500754Y-5399405D01*
G01X9502313Y-5400444D01*
G01X9504045Y-5401656D01*
G01X9505431Y-5402696D01*
G01X9506296Y-5403561D01*
G01X9507162Y-5404774D01*
G01X9507682Y-5406679D01*
G01X9507509Y-5408757D01*
G01X9507162Y-5410142D01*
G01X9506816Y-5411354D01*
G01X9506123Y-5412394D01*
G01X9505257Y-5413259D01*
G01X9504218Y-5413952D01*
G01X9503569Y-5413952D01*
G37*
G36*
G01X9507509Y-5464348D02*
G01X9505604Y-5464002D01*
G01X9503872Y-5463309D01*
G01X9502659Y-5462789D01*
G01X9501794Y-5462097D01*
G01X9501101Y-5461058D01*
G01X9500754Y-5458979D01*
G01X9500928Y-5456555D01*
G01X9501274Y-5455169D01*
G01X9501447Y-5453957D01*
G01X9502486Y-5449801D01*
G01X9502833Y-5446164D01*
G01X9502486Y-5442527D01*
G01X9501794Y-5441488D01*
G01X9501101Y-5440622D01*
G01X9499889Y-5439756D01*
G01X9498503Y-5439064D01*
G01X9493827Y-5437505D01*
G01X9493005Y-5437202D01*
G01X9492615Y-5436639D01*
G01X9492788Y-5435600D01*
G01X9493654Y-5435427D01*
G01X9497118Y-5435600D01*
G01X9501621Y-5435427D01*
G01X9503526Y-5434907D01*
G01X9504391Y-5434214D01*
G01X9506123Y-5432483D01*
G01X9506989Y-5431444D01*
G01X9507855Y-5429885D01*
G01X9510106Y-5425382D01*
G01X9511492Y-5422265D01*
G01X9512184Y-5420533D01*
G01X9513570Y-5417416D01*
G01X9514263Y-5415684D01*
G01X9514956Y-5414126D01*
G01X9516341Y-5410662D01*
G01X9516861Y-5409276D01*
G01X9517553Y-5407718D01*
G01X9518419Y-5405813D01*
G01X9520497Y-5400617D01*
G01X9521190Y-5399059D01*
G01X9524654Y-5390399D01*
G01X9525346Y-5388841D01*
G01X9525779Y-5388408D01*
G01X9526386Y-5388494D01*
G01X9527078Y-5389187D01*
G01X9526905Y-5390226D01*
G01X9526386Y-5391785D01*
G01X9525693Y-5393517D01*
G01X9525173Y-5394902D01*
G01X9523268Y-5400617D01*
G01X9522576Y-5402522D01*
G01X9522056Y-5403908D01*
G01X9521536Y-5405639D01*
G01X9519458Y-5411354D01*
G01X9517899Y-5416031D01*
G01X9517380Y-5417762D01*
G01X9516861Y-5419148D01*
G01X9516341Y-5420879D01*
G01X9515648Y-5422784D01*
G01X9514089Y-5427461D01*
G01X9513570Y-5429192D01*
G01X9513051Y-5430578D01*
G01X9512704Y-5432136D01*
G01X9512184Y-5433695D01*
G01X9511492Y-5436119D01*
G01X9511146Y-5437678D01*
G01X9510799Y-5439410D01*
G01X9510453Y-5441488D01*
G01X9510279Y-5443393D01*
G01X9509933Y-5449281D01*
G01X9509587Y-5457594D01*
G01X9509414Y-5460711D01*
G01X9509284Y-5462789D01*
G01X9508894Y-5463829D01*
G01X9507509Y-5464348D01*
G37*
G36*
G01X9513873Y-5388581D02*
G01X9513051Y-5387975D01*
G01X9512011Y-5386589D01*
G01X9511492Y-5385551D01*
G01X9510453Y-5383126D01*
G01X9508894Y-5380009D01*
G01X9507855Y-5378277D01*
G01X9506816Y-5376718D01*
G01X9505950Y-5375506D01*
G01X9503872Y-5372908D01*
G01X9502833Y-5371696D01*
G01X9502443Y-5370917D01*
G01X9502659Y-5370311D01*
G01X9503699Y-5369964D01*
G01X9504738Y-5370311D01*
G01X9506123Y-5371003D01*
G01X9507682Y-5371869D01*
G01X9510106Y-5373254D01*
G01X9511665Y-5374121D01*
G01X9513224Y-5375159D01*
G01X9514436Y-5376026D01*
G01X9516168Y-5377411D01*
G01X9517034Y-5378450D01*
G01X9517726Y-5379836D01*
G01X9518246Y-5381394D01*
G01X9518246Y-5383126D01*
G01X9517726Y-5384684D01*
G01X9517207Y-5386070D01*
G01X9516514Y-5387109D01*
G01X9515648Y-5387975D01*
G01X9514609Y-5388668D01*
G01X9513873Y-5388581D01*
G37*
G36*
G01X9513224Y-5466599D02*
G01X9512184Y-5466426D01*
G01X9512184Y-5465561D01*
G01X9513397Y-5464348D01*
G01X9514782Y-5463309D01*
G01X9518246Y-5460538D01*
G01X9522576Y-5456209D01*
G01X9523268Y-5455343D01*
G01X9523788Y-5454477D01*
G01X9524481Y-5453611D01*
G01X9525519Y-5452399D01*
G01X9526386Y-5451013D01*
G01X9527944Y-5447896D01*
G01X9528637Y-5446164D01*
G01X9529156Y-5444606D01*
G01X9529676Y-5442874D01*
G01X9530022Y-5440969D01*
G01X9530369Y-5439583D01*
G01X9530542Y-5438024D01*
G01X9530715Y-5436119D01*
G01X9531061Y-5434734D01*
G01X9531408Y-5428846D01*
G01X9531754Y-5422611D01*
G01X9531927Y-5418109D01*
G01X9532101Y-5413259D01*
G01X9532274Y-5412394D01*
G01X9532966Y-5412913D01*
G01X9535391Y-5414299D01*
G01X9536949Y-5415164D01*
G01X9539721Y-5416550D01*
G01X9540933Y-5417243D01*
G01X9540933Y-5417936D01*
G01X9539894Y-5418801D01*
G01X9538681Y-5419667D01*
G01X9538292Y-5420187D01*
G01X9538162Y-5421053D01*
G01X9537989Y-5422611D01*
G01X9537816Y-5425729D01*
G01X9537642Y-5429885D01*
G01X9537296Y-5431963D01*
G01X9537123Y-5433522D01*
G01X9536949Y-5435427D01*
G01X9536603Y-5436812D01*
G01X9536257Y-5439237D01*
G01X9535911Y-5440796D01*
G01X9535391Y-5442874D01*
G01X9534871Y-5444432D01*
G01X9534525Y-5445644D01*
G01X9534006Y-5447203D01*
G01X9533313Y-5448762D01*
G01X9532620Y-5450147D01*
G01X9531754Y-5451706D01*
G01X9530022Y-5454131D01*
G01X9528983Y-5455343D01*
G01X9526386Y-5457941D01*
G01X9524654Y-5459326D01*
G01X9523441Y-5460365D01*
G01X9521017Y-5462097D01*
G01X9519458Y-5463136D01*
G01X9517034Y-5464521D01*
G01X9515648Y-5465387D01*
G01X9514436Y-5466080D01*
G01X9513224Y-5466599D01*
G37*
G36*
G01X9580418Y-5413259D02*
G01X9579379Y-5413086D01*
G01X9578686Y-5412221D01*
G01X9577994Y-5410835D01*
G01X9577301Y-5409103D01*
G01X9575916Y-5406332D01*
G01X9575396Y-5405683D01*
G01X9574530Y-5405466D01*
G01X9569854Y-5405986D01*
G01X9564659Y-5406332D01*
G01X9560502Y-5406679D01*
G01X9557731Y-5407025D01*
G01X9555999Y-5407198D01*
G01X9553575Y-5407371D01*
G01X9551843Y-5407718D01*
G01X9550631Y-5407891D01*
G01X9549072Y-5408064D01*
G01X9547687Y-5408411D01*
G01X9545955Y-5408584D01*
G01X9544050Y-5408930D01*
G01X9542664Y-5409276D01*
G01X9541452Y-5409449D01*
G01X9539894Y-5409796D01*
G01X9538162Y-5410316D01*
G01X9536776Y-5410835D01*
G01X9535218Y-5411528D01*
G01X9534482Y-5411831D01*
G01X9534006Y-5411701D01*
G01X9533313Y-5410835D01*
G01X9532620Y-5409623D01*
G01X9531754Y-5408064D01*
G01X9530888Y-5406679D01*
G01X9530196Y-5405293D01*
G01X9530196Y-5404081D01*
G01X9531234Y-5403388D01*
G01X9532793Y-5402696D01*
G01X9534006Y-5402003D01*
G01X9534871Y-5401483D01*
G01X9535737Y-5400791D01*
G01X9536603Y-5399924D01*
G01X9538681Y-5398193D01*
G01X9540413Y-5396114D01*
G01X9541279Y-5395249D01*
G01X9543357Y-5392651D01*
G01X9544050Y-5391612D01*
G01X9544916Y-5390573D01*
G01X9547687Y-5386416D01*
G01X9548553Y-5385204D01*
G01X9549419Y-5383646D01*
G01X9549765Y-5382260D01*
G01X9548423Y-5381741D01*
G01X9544743Y-5381567D01*
G01X9539374Y-5381741D01*
G01X9534698Y-5382260D01*
G01X9532793Y-5382433D01*
G01X9531408Y-5382779D01*
G01X9529849Y-5382953D01*
G01X9528983Y-5382823D01*
G01X9528464Y-5382433D01*
G01X9525866Y-5379836D01*
G01X9525563Y-5379489D01*
G01X9525693Y-5379143D01*
G01X9539028Y-5378796D01*
G01X9552536Y-5378623D01*
G01X9552882Y-5378363D01*
G01X9552882Y-5377931D01*
G01X9552536Y-5376372D01*
G01X9552016Y-5374813D01*
G01X9550631Y-5372042D01*
G01X9549765Y-5370657D01*
G01X9548899Y-5369444D01*
G01X9548379Y-5368579D01*
G01X9547687Y-5367713D01*
G01X9545955Y-5365981D01*
G01X9545609Y-5365505D01*
G01X9545609Y-5364769D01*
G01X9545825Y-5364162D01*
G01X9546128Y-5364076D01*
G01X9547341Y-5364596D01*
G01X9550804Y-5365981D01*
G01X9555307Y-5368232D01*
G01X9556519Y-5369098D01*
G01X9557385Y-5369791D01*
G01X9558078Y-5370657D01*
G01X9558597Y-5371696D01*
G01X9558944Y-5373254D01*
G01X9558771Y-5375506D01*
G01X9558078Y-5377064D01*
G01X9557558Y-5378277D01*
G01X9557688Y-5378883D01*
G01X9558078Y-5378969D01*
G01X9568469Y-5378796D01*
G01X9578686Y-5378450D01*
G01X9579899Y-5377411D01*
G01X9581111Y-5376545D01*
G01X9583362Y-5374294D01*
G01X9584228Y-5373774D01*
G01X9584921Y-5373861D01*
G01X9585614Y-5374467D01*
G01X9586653Y-5375852D01*
G01X9590116Y-5379316D01*
G01X9591502Y-5381048D01*
G01X9587346Y-5381437D01*
G01X9574184Y-5381567D01*
G01X9555307Y-5381741D01*
G01X9554441Y-5382000D01*
G01X9554268Y-5382433D01*
G01X9554961Y-5383299D01*
G01X9555826Y-5383992D01*
G01X9556692Y-5384511D01*
G01X9558424Y-5385897D01*
G01X9558944Y-5386416D01*
G01X9557904Y-5386936D01*
G01X9556346Y-5387282D01*
G01X9554961Y-5387456D01*
G01X9553748Y-5387975D01*
G01X9541626Y-5400098D01*
G01X9539547Y-5401829D01*
G01X9538681Y-5402696D01*
G01X9537989Y-5403561D01*
G01X9539547Y-5403951D01*
G01X9544569Y-5404081D01*
G01X9551843Y-5403908D01*
G01X9567083Y-5403561D01*
G01X9570893Y-5403388D01*
G01X9574184Y-5403388D01*
G01X9573837Y-5402522D01*
G01X9573144Y-5401137D01*
G01X9572452Y-5399924D01*
G01X9571586Y-5398539D01*
G01X9569508Y-5395422D01*
G01X9568296Y-5393863D01*
G01X9567256Y-5392304D01*
G01X9567256Y-5391266D01*
G01X9567949Y-5391092D01*
G01X9569161Y-5391785D01*
G01X9570720Y-5392824D01*
G01X9571932Y-5393517D01*
G01X9572798Y-5394209D01*
G01X9574011Y-5395249D01*
G01X9575223Y-5396114D01*
G01X9576954Y-5397500D01*
G01X9577821Y-5398019D01*
G01X9578686Y-5398712D01*
G01X9581284Y-5401310D01*
G01X9582323Y-5402522D01*
G01X9583362Y-5404254D01*
G01X9584055Y-5406159D01*
G01X9583882Y-5407891D01*
G01X9583189Y-5409449D01*
G01X9582496Y-5410835D01*
G01X9581631Y-5412221D01*
G01X9580418Y-5413259D01*
G37*
G36*
G01X9550458Y-5465734D02*
G01X9549419Y-5465907D01*
G01X9549246Y-5461751D01*
G01X9549419Y-5457248D01*
G01X9549592Y-5439410D01*
G01X9549419Y-5421572D01*
G01X9549246Y-5417762D01*
G01X9549246Y-5414472D01*
G01X9549938Y-5414645D01*
G01X9551324Y-5415164D01*
G01X9552536Y-5415684D01*
G01X9553575Y-5416204D01*
G01X9555134Y-5416896D01*
G01X9556866Y-5417589D01*
G01X9558251Y-5418109D01*
G01X9558944Y-5418628D01*
G01X9558424Y-5419321D01*
G01X9557558Y-5420187D01*
G01X9556346Y-5421226D01*
G01X9555740Y-5421702D01*
G01X9555653Y-5422092D01*
G01X9555826Y-5442874D01*
G01X9555696Y-5458287D01*
G01X9555307Y-5463656D01*
G01X9553921Y-5464348D01*
G01X9550458Y-5465734D01*
G37*
G36*
G01X9580591Y-5462963D02*
G01X9573144Y-5462789D01*
G01X9571759Y-5462097D01*
G01X9570547Y-5461231D01*
G01X9569681Y-5460192D01*
G01X9568988Y-5458979D01*
G01X9568642Y-5457767D01*
G01X9568469Y-5456555D01*
G01X9568122Y-5419494D01*
G01X9567949Y-5417069D01*
G01X9568122Y-5414299D01*
G01X9568382Y-5413736D01*
G01X9568815Y-5413779D01*
G01X9572279Y-5415511D01*
G01X9574011Y-5416204D01*
G01X9575396Y-5416896D01*
G01X9576608Y-5417416D01*
G01X9577128Y-5417676D01*
G01X9577301Y-5418109D01*
G01X9576781Y-5418801D01*
G01X9575916Y-5419494D01*
G01X9575049Y-5420360D01*
G01X9574660Y-5424949D01*
G01X9574530Y-5438024D01*
G01X9574876Y-5456209D01*
G01X9575916Y-5457421D01*
G01X9577128Y-5457941D01*
G01X9580418Y-5458114D01*
G01X9584401Y-5457941D01*
G01X9586306Y-5457421D01*
G01X9587519Y-5456382D01*
G01X9588211Y-5454823D01*
G01X9588558Y-5453438D01*
G01X9588904Y-5447896D01*
G01X9589251Y-5442701D01*
G01X9589424Y-5440969D01*
G01X9589424Y-5439756D01*
G01X9591156Y-5439756D01*
G01X9591156Y-5441834D01*
G01X9591329Y-5444432D01*
G01X9592021Y-5451359D01*
G01X9592368Y-5452745D01*
G01X9593061Y-5454304D01*
G01X9593926Y-5455516D01*
G01X9594966Y-5456209D01*
G01X9595485Y-5456468D01*
G01X9595658Y-5456901D01*
G01X9595312Y-5457767D01*
G01X9594792Y-5458806D01*
G01X9594099Y-5459846D01*
G01X9592368Y-5461231D01*
G01X9591156Y-5461924D01*
G01X9589424Y-5462443D01*
G01X9587865Y-5462789D01*
G01X9580591Y-5462963D01*
G37*
G01X8270598Y-1258875D02*
G01X8239610Y-1258875D01*
G01X8236562Y-1286561D01*
G01X8239610Y-1283513D01*
G01X8249008Y-1280465D01*
G01X8258406Y-1280465D01*
G01X8267550Y-1283513D01*
G01X8273646Y-1289863D01*
G01X8276948Y-1299007D01*
G01X8276948Y-1305357D01*
G01X8273646Y-1314501D01*
G01X8267550Y-1320851D01*
G01X8258406Y-1323899D01*
G01X8249008Y-1323899D01*
G01X8239610Y-1320851D01*
G01X8236562Y-1317549D01*
G01X8233514Y-1311453D01*
G01X8307174Y-1258875D02*
G01X8331812Y-1323899D01*
G01X8356704Y-1258875D02*
G01X8331812Y-1323899D01*
G01X9312402Y-2905760D02*
G01X9309354Y-2899410D01*
G01X9303004Y-2893314D01*
G01X9296908Y-2890266D01*
G01X9284462Y-2890266D01*
G01X9278366Y-2893314D01*
G01X9272016Y-2899410D01*
G01X9268968Y-2905760D01*
G01X9265920Y-2914904D01*
G01X9265920Y-2930398D01*
G01X9268968Y-2939796D01*
G01X9272016Y-2945892D01*
G01X9278366Y-2952242D01*
G01X9284462Y-2955290D01*
G01X9296908Y-2955290D01*
G01X9303004Y-2952242D01*
G01X9309354Y-2945892D01*
G01X9312402Y-2939796D01*
G01X9312402Y-2930398D01*
G01X9296908Y-2930398D02*
G01X9312402Y-2930398D01*
G01X9342628Y-2890266D02*
G01X9342628Y-2955290D01*
G01X9342628Y-2890266D02*
G01X9385808Y-2955290D01*
G01X9385808Y-2890266D02*
G01X9385808Y-2955290D01*
G01X9416034Y-2890266D02*
G01X9416034Y-2955290D01*
G01X9416034Y-2890266D02*
G01X9437624Y-2890266D01*
G01X9446768Y-2893314D01*
G01X9453118Y-2899410D01*
G01X9456166Y-2905760D01*
G01X9459214Y-2914904D01*
G01X9459214Y-2930398D01*
G01X9456166Y-2939796D01*
G01X9453118Y-2945892D01*
G01X9446768Y-2952242D01*
G01X9437624Y-2955290D01*
G01X9416034Y-2955290D01*
G01X1008380Y-7166280D02*
G01X1008380Y-7212762D01*
G01X1011428Y-7221906D01*
G01X1017778Y-7228256D01*
G01X1026922Y-7231304D01*
G01X1033272Y-7231304D01*
G01X1042416Y-7228256D01*
G01X1048512Y-7221906D01*
G01X1051814Y-7212762D01*
G01X1051814Y-7166280D01*
G01X1082040Y-7178726D02*
G01X1088136Y-7175424D01*
G01X1097280Y-7166280D01*
G01X1097280Y-7231304D01*
G01X6408420Y-2356866D02*
G01X6408420Y-2403348D01*
G01X6411468Y-2412492D01*
G01X6417818Y-2418842D01*
G01X6426962Y-2421890D01*
G01X6433312Y-2421890D01*
G01X6442456Y-2418842D01*
G01X6448552Y-2412492D01*
G01X6451854Y-2403348D01*
G01X6451854Y-2356866D01*
G01X6485128Y-2372360D02*
G01X6485128Y-2369312D01*
G01X6488176Y-2362962D01*
G01X6491224Y-2359914D01*
G01X6497320Y-2356866D01*
G01X6509766Y-2356866D01*
G01X6516116Y-2359914D01*
G01X6519164Y-2362962D01*
G01X6522212Y-2369312D01*
G01X6522212Y-2375408D01*
G01X6519164Y-2381504D01*
G01X6512814Y-2390902D01*
G01X6482080Y-2421890D01*
G01X6525260Y-2421890D01*
G01X6230320Y-1143272D02*
G01X6230320Y-1189754D01*
G01X6233368Y-1198898D01*
G01X6239718Y-1205248D01*
G01X6248862Y-1208296D01*
G01X6255212Y-1208296D01*
G01X6264356Y-1205248D01*
G01X6270452Y-1198898D01*
G01X6273754Y-1189754D01*
G01X6273754Y-1143272D01*
G01X6310076Y-1143272D02*
G01X6344112Y-1143272D01*
G01X6325570Y-1167910D01*
G01X6334714Y-1167910D01*
G01X6341064Y-1170958D01*
G01X6344112Y-1174260D01*
G01X6347160Y-1183404D01*
G01X6347160Y-1189754D01*
G01X6344112Y-1198898D01*
G01X6338016Y-1205248D01*
G01X6328618Y-1208296D01*
G01X6319220Y-1208296D01*
G01X6310076Y-1205248D01*
G01X6307028Y-1201946D01*
G01X6303980Y-1195850D01*
G01X8080502Y-6182360D02*
G01X8077454Y-6176010D01*
G01X8071104Y-6169914D01*
G01X8065008Y-6166866D01*
G01X8052562Y-6166866D01*
G01X8046466Y-6169914D01*
G01X8040116Y-6176010D01*
G01X8037068Y-6182360D01*
G01X8034020Y-6191504D01*
G01X8034020Y-6206998D01*
G01X8037068Y-6216396D01*
G01X8040116Y-6222492D01*
G01X8046466Y-6228842D01*
G01X8052562Y-6231890D01*
G01X8065008Y-6231890D01*
G01X8071104Y-6228842D01*
G01X8077454Y-6222492D01*
G01X8080502Y-6216396D01*
G01X8141462Y-6166866D02*
G01X8110728Y-6210046D01*
G01X8156956Y-6210046D01*
G01X8141462Y-6166866D02*
G01X8141462Y-6231890D01*
G01X7449820Y-5100066D02*
G01X7449820Y-5165090D01*
G01X7449820Y-5100066D02*
G01X7471410Y-5100066D01*
G01X7480808Y-5103114D01*
G01X7486904Y-5109210D01*
G01X7489952Y-5115560D01*
G01X7493254Y-5124704D01*
G01X7493254Y-5140198D01*
G01X7489952Y-5149596D01*
G01X7486904Y-5155692D01*
G01X7480808Y-5162042D01*
G01X7471410Y-5165090D01*
G01X7449820Y-5165090D01*
G01X7529576Y-5100066D02*
G01X7563612Y-5100066D01*
G01X7545070Y-5124704D01*
G01X7554214Y-5124704D01*
G01X7560564Y-5127752D01*
G01X7563612Y-5131054D01*
G01X7566660Y-5140198D01*
G01X7566660Y-5146548D01*
G01X7563612Y-5155692D01*
G01X7557516Y-5162042D01*
G01X7548118Y-5165090D01*
G01X7538720Y-5165090D01*
G01X7529576Y-5162042D01*
G01X7526528Y-5158740D01*
G01X7523480Y-5152644D01*
G01X8630920Y-6941566D02*
G01X8630920Y-7006590D01*
G01X8630920Y-6941566D02*
G01X8652510Y-6941566D01*
G01X8661908Y-6944614D01*
G01X8668004Y-6950710D01*
G01X8671052Y-6957060D01*
G01X8674354Y-6966204D01*
G01X8674354Y-6981698D01*
G01X8671052Y-6991096D01*
G01X8668004Y-6997192D01*
G01X8661908Y-7003542D01*
G01X8652510Y-7006590D01*
G01X8630920Y-7006590D01*
G01X8735314Y-6941566D02*
G01X8704580Y-6984746D01*
G01X8750808Y-6984746D01*
G01X8735314Y-6941566D02*
G01X8735314Y-7006590D01*
G01X9456420Y-8389366D02*
G01X9456420Y-8454390D01*
G01X9456420Y-8454390D02*
G01X9493504Y-8454390D01*
G01X9523730Y-8389366D02*
G01X9523730Y-8454390D01*
G01X9523730Y-8389366D02*
G01X9563862Y-8389366D01*
G01X9523730Y-8420354D02*
G01X9548368Y-8420354D01*
G01X9523730Y-8454390D02*
G01X9563862Y-8454390D01*
G01X9594088Y-8389366D02*
G01X9594088Y-8454390D01*
G01X9594088Y-8389366D02*
G01X9615678Y-8389366D01*
G01X9624822Y-8392414D01*
G01X9631172Y-8398510D01*
G01X9634220Y-8404860D01*
G01X9637268Y-8414004D01*
G01X9637268Y-8429498D01*
G01X9634220Y-8438896D01*
G01X9631172Y-8444992D01*
G01X9624822Y-8451342D01*
G01X9615678Y-8454390D01*
G01X9594088Y-8454390D01*
G01X9670542Y-8404860D02*
G01X9670542Y-8401812D01*
G01X9673590Y-8395462D01*
G01X9676638Y-8392414D01*
G01X9682734Y-8389366D01*
G01X9695180Y-8389366D01*
G01X9701530Y-8392414D01*
G01X9704578Y-8395462D01*
G01X9707626Y-8401812D01*
G01X9707626Y-8407908D01*
G01X9704578Y-8414004D01*
G01X9698228Y-8423402D01*
G01X9667494Y-8454390D01*
G01X9710674Y-8454390D01*
G01X7373620Y-6446266D02*
G01X7373620Y-6511290D01*
G01X7373620Y-6446266D02*
G01X7401560Y-6446266D01*
G01X7410704Y-6449314D01*
G01X7413752Y-6452362D01*
G01X7417054Y-6458712D01*
G01X7417054Y-6464808D01*
G01X7413752Y-6470904D01*
G01X7410704Y-6473952D01*
G01X7401560Y-6477254D01*
G01X7373620Y-6477254D01*
G01X7395210Y-6477254D02*
G01X7417054Y-6511290D01*
G01X7450328Y-6461760D02*
G01X7450328Y-6458712D01*
G01X7453376Y-6452362D01*
G01X7456424Y-6449314D01*
G01X7462520Y-6446266D01*
G01X7474966Y-6446266D01*
G01X7481316Y-6449314D01*
G01X7484364Y-6452362D01*
G01X7487412Y-6458712D01*
G01X7487412Y-6464808D01*
G01X7484364Y-6470904D01*
G01X7478014Y-6480302D01*
G01X7447280Y-6511290D01*
G01X7490460Y-6511290D01*
G01X8427720Y-8008366D02*
G01X8427720Y-8073390D01*
G01X8427720Y-8008366D02*
G01X8455660Y-8008366D01*
G01X8464804Y-8011414D01*
G01X8467852Y-8014462D01*
G01X8471154Y-8020812D01*
G01X8471154Y-8026908D01*
G01X8467852Y-8033004D01*
G01X8464804Y-8036052D01*
G01X8455660Y-8039354D01*
G01X8427720Y-8039354D01*
G01X8449310Y-8039354D02*
G01X8471154Y-8073390D01*
G01X8532114Y-8008366D02*
G01X8501380Y-8051546D01*
G01X8547608Y-8051546D01*
G01X8532114Y-8008366D02*
G01X8532114Y-8073390D01*
G01X7970520Y-7868666D02*
G01X7970520Y-7915148D01*
G01X7973568Y-7924292D01*
G01X7979918Y-7930642D01*
G01X7989062Y-7933690D01*
G01X7995412Y-7933690D01*
G01X8004556Y-7930642D01*
G01X8010652Y-7924292D01*
G01X8013954Y-7915148D01*
G01X8013954Y-7868666D01*
G01X8074914Y-7868666D02*
G01X8044180Y-7911846D01*
G01X8090408Y-7911846D01*
G01X8074914Y-7868666D02*
G01X8074914Y-7933690D01*
G01X6598920Y-9011666D02*
G01X6598920Y-9058148D01*
G01X6601968Y-9067292D01*
G01X6608318Y-9073642D01*
G01X6617462Y-9076690D01*
G01X6623812Y-9076690D01*
G01X6632956Y-9073642D01*
G01X6639052Y-9067292D01*
G01X6642354Y-9058148D01*
G01X6642354Y-9011666D01*
G01X6709664Y-9011666D02*
G01X6678676Y-9011666D01*
G01X6675628Y-9039352D01*
G01X6678676Y-9036304D01*
G01X6687820Y-9033256D01*
G01X6697218Y-9033256D01*
G01X6706616Y-9036304D01*
G01X6712712Y-9042654D01*
G01X6715760Y-9051798D01*
G01X6715760Y-9058148D01*
G01X6712712Y-9067292D01*
G01X6706616Y-9073642D01*
G01X6697218Y-9076690D01*
G01X6687820Y-9076690D01*
G01X6678676Y-9073642D01*
G01X6675628Y-9070340D01*
G01X6672580Y-9064244D01*
G01X8230448Y-5806933D02*
G01X8230448Y-5871957D01*
G01X8230448Y-5806933D02*
G01X8258388Y-5806933D01*
G01X8267532Y-5809981D01*
G01X8270580Y-5813029D01*
G01X8273882Y-5819379D01*
G01X8273882Y-5825475D01*
G01X8270580Y-5831571D01*
G01X8267532Y-5834619D01*
G01X8258388Y-5837921D01*
G01X8230448Y-5837921D01*
G01X8252038Y-5837921D02*
G01X8273882Y-5871957D01*
G01X8310204Y-5806933D02*
G01X8344240Y-5806933D01*
G01X8325698Y-5831571D01*
G01X8334842Y-5831571D01*
G01X8341192Y-5834619D01*
G01X8344240Y-5837921D01*
G01X8347288Y-5847065D01*
G01X8347288Y-5853415D01*
G01X8344240Y-5862559D01*
G01X8338144Y-5868909D01*
G01X8328746Y-5871957D01*
G01X8319348Y-5871957D01*
G01X8310204Y-5868909D01*
G01X8307156Y-5865607D01*
G01X8304108Y-5859511D01*
G01X8042402Y-7236460D02*
G01X8039354Y-7230110D01*
G01X8033004Y-7224014D01*
G01X8026908Y-7220966D01*
G01X8014462Y-7220966D01*
G01X8008366Y-7224014D01*
G01X8002016Y-7230110D01*
G01X7998968Y-7236460D01*
G01X7995920Y-7245604D01*
G01X7995920Y-7261098D01*
G01X7998968Y-7270496D01*
G01X8002016Y-7276592D01*
G01X8008366Y-7282942D01*
G01X8014462Y-7285990D01*
G01X8026908Y-7285990D01*
G01X8033004Y-7282942D01*
G01X8039354Y-7276592D01*
G01X8042402Y-7270496D01*
G01X8109712Y-7230110D02*
G01X8106664Y-7224014D01*
G01X8097266Y-7220966D01*
G01X8091170Y-7220966D01*
G01X8081772Y-7224014D01*
G01X8075676Y-7233412D01*
G01X8072628Y-7248652D01*
G01X8072628Y-7264146D01*
G01X8075676Y-7276592D01*
G01X8081772Y-7282942D01*
G01X8091170Y-7285990D01*
G01X8094218Y-7285990D01*
G01X8103362Y-7282942D01*
G01X8109712Y-7276592D01*
G01X8112760Y-7267448D01*
G01X8112760Y-7264146D01*
G01X8109712Y-7255002D01*
G01X8103362Y-7248652D01*
G01X8094218Y-7245604D01*
G01X8091170Y-7245604D01*
G01X8081772Y-7248652D01*
G01X8075676Y-7255002D01*
G01X8072628Y-7264146D01*
G01X9071102Y-8315960D02*
G01X9068054Y-8309610D01*
G01X9061704Y-8303514D01*
G01X9055608Y-8300466D01*
G01X9043162Y-8300466D01*
G01X9037066Y-8303514D01*
G01X9030716Y-8309610D01*
G01X9027668Y-8315960D01*
G01X9024620Y-8325104D01*
G01X9024620Y-8340598D01*
G01X9027668Y-8349996D01*
G01X9030716Y-8356092D01*
G01X9037066Y-8362442D01*
G01X9043162Y-8365490D01*
G01X9055608Y-8365490D01*
G01X9061704Y-8362442D01*
G01X9068054Y-8356092D01*
G01X9071102Y-8349996D01*
G01X9138412Y-8300466D02*
G01X9107424Y-8300466D01*
G01X9104376Y-8328152D01*
G01X9107424Y-8325104D01*
G01X9116568Y-8322056D01*
G01X9125966Y-8322056D01*
G01X9135364Y-8325104D01*
G01X9141460Y-8331454D01*
G01X9144508Y-8340598D01*
G01X9144508Y-8346948D01*
G01X9141460Y-8356092D01*
G01X9135364Y-8362442D01*
G01X9125966Y-8365490D01*
G01X9116568Y-8365490D01*
G01X9107424Y-8362442D01*
G01X9104376Y-8359140D01*
G01X9101328Y-8353044D01*
G01X9685020Y-7335266D02*
G01X9709912Y-7400290D01*
G01X9734550Y-7335266D02*
G01X9709912Y-7400290D01*
G01X9764776Y-7335266D02*
G01X9764776Y-7400290D01*
G01X9795002Y-7335266D02*
G01X9795002Y-7400290D01*
G01X9795002Y-7335266D02*
G01X9838182Y-7400290D01*
G01X9838182Y-7335266D02*
G01X9838182Y-7400290D01*
G01X8906002Y-9547860D02*
G01X8902954Y-9541510D01*
G01X8896604Y-9535414D01*
G01X8890508Y-9532366D01*
G01X8878062Y-9532366D01*
G01X8871966Y-9535414D01*
G01X8865616Y-9541510D01*
G01X8862568Y-9547860D01*
G01X8859520Y-9557004D01*
G01X8859520Y-9572498D01*
G01X8862568Y-9581896D01*
G01X8865616Y-9587992D01*
G01X8871966Y-9594342D01*
G01X8878062Y-9597390D01*
G01X8890508Y-9597390D01*
G01X8896604Y-9594342D01*
G01X8902954Y-9587992D01*
G01X8906002Y-9581896D01*
G01X8906002Y-9572498D01*
G01X8890508Y-9572498D02*
G01X8906002Y-9572498D01*
G01X8936228Y-9532366D02*
G01X8936228Y-9597390D01*
G01X8936228Y-9532366D02*
G01X8979408Y-9597390D01*
G01X8979408Y-9532366D02*
G01X8979408Y-9597390D01*
G01X9009634Y-9532366D02*
G01X9009634Y-9597390D01*
G01X9009634Y-9532366D02*
G01X9031224Y-9532366D01*
G01X9040368Y-9535414D01*
G01X9046718Y-9541510D01*
G01X9049766Y-9547860D01*
G01X9052814Y-9557004D01*
G01X9052814Y-9572498D01*
G01X9049766Y-9581896D01*
G01X9046718Y-9587992D01*
G01X9040368Y-9594342D01*
G01X9031224Y-9597390D01*
G01X9009634Y-9597390D01*
G01X9083040Y-9544812D02*
G01X9089136Y-9541510D01*
G01X9098280Y-9532366D01*
G01X9098280Y-9597390D01*
G01X8834120Y-8668766D02*
G01X8859012Y-8733790D01*
G01X8883650Y-8668766D02*
G01X8859012Y-8733790D01*
G01X8932418Y-8668766D02*
G01X8926068Y-8671814D01*
G01X8919972Y-8677910D01*
G01X8916924Y-8684260D01*
G01X8913876Y-8693404D01*
G01X8913876Y-8708898D01*
G01X8916924Y-8718296D01*
G01X8919972Y-8724392D01*
G01X8926068Y-8730742D01*
G01X8932418Y-8733790D01*
G01X8944610Y-8733790D01*
G01X8950960Y-8730742D01*
G01X8957056Y-8724392D01*
G01X8960104Y-8718296D01*
G01X8963406Y-8708898D01*
G01X8963406Y-8693404D01*
G01X8960104Y-8684260D01*
G01X8957056Y-8677910D01*
G01X8950960Y-8671814D01*
G01X8944610Y-8668766D01*
G01X8932418Y-8668766D01*
G01X7239043Y-577977D02*
G01X7235995Y-571627D01*
G01X7229645Y-565531D01*
G01X7223549Y-562483D01*
G01X7211103Y-562483D01*
G01X7205007Y-565531D01*
G01X7198657Y-571627D01*
G01X7195609Y-577977D01*
G01X7192561Y-587121D01*
G01X7192561Y-602615D01*
G01X7195609Y-612013D01*
G01X7198657Y-618109D01*
G01X7205007Y-624459D01*
G01X7211103Y-627507D01*
G01X7223549Y-627507D01*
G01X7229645Y-624459D01*
G01X7235995Y-618109D01*
G01X7239043Y-612013D01*
G01X7269269Y-574929D02*
G01X7275365Y-571627D01*
G01X7284509Y-562483D01*
G01X7284509Y-627507D01*
G01X7357915Y-562483D02*
G01X7326927Y-627507D01*
G01X7314735Y-562483D02*
G01X7357915Y-562483D01*
G01X6975002Y-580487D02*
G01X6971954Y-574137D01*
G01X6965604Y-568041D01*
G01X6959508Y-564993D01*
G01X6947062Y-564993D01*
G01X6940966Y-568041D01*
G01X6934616Y-574137D01*
G01X6931568Y-580487D01*
G01X6928520Y-589631D01*
G01X6928520Y-605125D01*
G01X6931568Y-614523D01*
G01X6934616Y-620619D01*
G01X6940966Y-626969D01*
G01X6947062Y-630017D01*
G01X6959508Y-630017D01*
G01X6965604Y-626969D01*
G01X6971954Y-620619D01*
G01X6975002Y-614523D01*
G01X7005228Y-577439D02*
G01X7011324Y-574137D01*
G01X7020468Y-564993D01*
G01X7020468Y-630017D01*
G01X7065934Y-564993D02*
G01X7056790Y-568041D01*
G01X7053742Y-574137D01*
G01X7053742Y-580487D01*
G01X7056790Y-586583D01*
G01X7062886Y-589631D01*
G01X7075332Y-592679D01*
G01X7084730Y-595981D01*
G01X7090826Y-602077D01*
G01X7093874Y-608173D01*
G01X7093874Y-617571D01*
G01X7090826Y-623667D01*
G01X7087778Y-626969D01*
G01X7078380Y-630017D01*
G01X7065934Y-630017D01*
G01X7056790Y-626969D01*
G01X7053742Y-623667D01*
G01X7050694Y-617571D01*
G01X7050694Y-608173D01*
G01X7053742Y-602077D01*
G01X7059838Y-595981D01*
G01X7069236Y-592679D01*
G01X7081428Y-589631D01*
G01X7087778Y-586583D01*
G01X7090826Y-580487D01*
G01X7090826Y-574137D01*
G01X7087778Y-568041D01*
G01X7078380Y-564993D01*
G01X7065934Y-564993D01*
G01X8711866Y-388030D02*
G01X8708818Y-381680D01*
G01X8702468Y-375584D01*
G01X8696372Y-372536D01*
G01X8683926Y-372536D01*
G01X8677830Y-375584D01*
G01X8671480Y-381680D01*
G01X8668432Y-388030D01*
G01X8665384Y-397174D01*
G01X8665384Y-412668D01*
G01X8668432Y-422066D01*
G01X8671480Y-428162D01*
G01X8677830Y-434512D01*
G01X8683926Y-437560D01*
G01X8696372Y-437560D01*
G01X8702468Y-434512D01*
G01X8708818Y-428162D01*
G01X8711866Y-422066D01*
G01X8742092Y-384982D02*
G01X8748188Y-381680D01*
G01X8757332Y-372536D01*
G01X8757332Y-437560D01*
G01X8827690Y-394126D02*
G01X8824642Y-403524D01*
G01X8818292Y-409620D01*
G01X8809148Y-412668D01*
G01X8806100Y-412668D01*
G01X8796702Y-409620D01*
G01X8790606Y-403524D01*
G01X8787558Y-394126D01*
G01X8787558Y-391078D01*
G01X8790606Y-381680D01*
G01X8796702Y-375584D01*
G01X8806100Y-372536D01*
G01X8809148Y-372536D01*
G01X8818292Y-375584D01*
G01X8824642Y-381680D01*
G01X8827690Y-394126D01*
G01X8827690Y-409620D01*
G01X8824642Y-425114D01*
G01X8818292Y-434512D01*
G01X8809148Y-437560D01*
G01X8802798Y-437560D01*
G01X8793654Y-434512D01*
G01X8790606Y-428162D01*
G01X8439252Y-391228D02*
G01X8436204Y-384878D01*
G01X8429854Y-378782D01*
G01X8423758Y-375734D01*
G01X8411312Y-375734D01*
G01X8405216Y-378782D01*
G01X8398866Y-384878D01*
G01X8395818Y-391228D01*
G01X8392770Y-400372D01*
G01X8392770Y-415866D01*
G01X8395818Y-425264D01*
G01X8398866Y-431360D01*
G01X8405216Y-437710D01*
G01X8411312Y-440758D01*
G01X8423758Y-440758D01*
G01X8429854Y-437710D01*
G01X8436204Y-431360D01*
G01X8439252Y-425264D01*
G01X8472526Y-391228D02*
G01X8472526Y-388180D01*
G01X8475574Y-381830D01*
G01X8478622Y-378782D01*
G01X8484718Y-375734D01*
G01X8497164Y-375734D01*
G01X8503514Y-378782D01*
G01X8506562Y-381830D01*
G01X8509610Y-388180D01*
G01X8509610Y-394276D01*
G01X8506562Y-400372D01*
G01X8500212Y-409770D01*
G01X8469478Y-440758D01*
G01X8512658Y-440758D01*
G01X8561426Y-375734D02*
G01X8552028Y-378782D01*
G01X8545932Y-388180D01*
G01X8542884Y-403420D01*
G01X8542884Y-412818D01*
G01X8545932Y-428312D01*
G01X8552028Y-437710D01*
G01X8561426Y-440758D01*
G01X8567522Y-440758D01*
G01X8576920Y-437710D01*
G01X8583016Y-428312D01*
G01X8586064Y-412818D01*
G01X8586064Y-403420D01*
G01X8583016Y-388180D01*
G01X8576920Y-378782D01*
G01X8567522Y-375734D01*
G01X8561426Y-375734D01*
G01X134620Y-3931666D02*
G01X134620Y-3996690D01*
G01X178054Y-3931666D02*
G01X178054Y-3996690D01*
G01X134620Y-3962654D02*
G01X178054Y-3962654D01*
G01X208280Y-3944112D02*
G01X214376Y-3940810D01*
G01X223520Y-3931666D01*
G01X223520Y-3996690D01*
G01X9354820Y-9278366D02*
G01X9354820Y-9343390D01*
G01X9398254Y-9278366D02*
G01X9398254Y-9343390D01*
G01X9354820Y-9309354D02*
G01X9398254Y-9309354D01*
G01X9434576Y-9278366D02*
G01X9468612Y-9278366D01*
G01X9450070Y-9303004D01*
G01X9459214Y-9303004D01*
G01X9465564Y-9306052D01*
G01X9468612Y-9309354D01*
G01X9471660Y-9318498D01*
G01X9471660Y-9324848D01*
G01X9468612Y-9333992D01*
G01X9462516Y-9340342D01*
G01X9453118Y-9343390D01*
G01X9443720Y-9343390D01*
G01X9434576Y-9340342D01*
G01X9431528Y-9337040D01*
G01X9428480Y-9330944D01*
G01X9570720Y-2052066D02*
G01X9570720Y-2117090D01*
G01X9614154Y-2052066D02*
G01X9614154Y-2117090D01*
G01X9570720Y-2083054D02*
G01X9614154Y-2083054D01*
G01X9681464Y-2052066D02*
G01X9650476Y-2052066D01*
G01X9647428Y-2079752D01*
G01X9650476Y-2076704D01*
G01X9659620Y-2073656D01*
G01X9669018Y-2073656D01*
G01X9678416Y-2076704D01*
G01X9684512Y-2083054D01*
G01X9687560Y-2092198D01*
G01X9687560Y-2098548D01*
G01X9684512Y-2107692D01*
G01X9678416Y-2114042D01*
G01X9669018Y-2117090D01*
G01X9659620Y-2117090D01*
G01X9650476Y-2114042D01*
G01X9647428Y-2110740D01*
G01X9644380Y-2104644D01*
G01X9126220Y-2052066D02*
G01X9126220Y-2117090D01*
G01X9169654Y-2052066D02*
G01X9169654Y-2117090D01*
G01X9126220Y-2083054D02*
G01X9169654Y-2083054D01*
G01X9236964Y-2061210D02*
G01X9233916Y-2055114D01*
G01X9224518Y-2052066D01*
G01X9218422Y-2052066D01*
G01X9209024Y-2055114D01*
G01X9202928Y-2064512D01*
G01X9199880Y-2079752D01*
G01X9199880Y-2095246D01*
G01X9202928Y-2107692D01*
G01X9209024Y-2114042D01*
G01X9218422Y-2117090D01*
G01X9221470Y-2117090D01*
G01X9230614Y-2114042D01*
G01X9236964Y-2107692D01*
G01X9240012Y-2098548D01*
G01X9240012Y-2095246D01*
G01X9236964Y-2086102D01*
G01X9230614Y-2079752D01*
G01X9221470Y-2076704D01*
G01X9218422Y-2076704D01*
G01X9209024Y-2079752D01*
G01X9202928Y-2086102D01*
G01X9199880Y-2095246D01*
G01X8669020Y-2052066D02*
G01X8669020Y-2117090D01*
G01X8712454Y-2052066D02*
G01X8712454Y-2117090D01*
G01X8669020Y-2083054D02*
G01X8712454Y-2083054D01*
G01X8785860Y-2052066D02*
G01X8754872Y-2117090D01*
G01X8742680Y-2052066D02*
G01X8785860Y-2052066D01*
G01X9680305Y-6608250D02*
G01X9680305Y-6673274D01*
G01X9723739Y-6608250D02*
G01X9723739Y-6673274D01*
G01X9680305Y-6639238D02*
G01X9723739Y-6639238D01*
G01X9769205Y-6608250D02*
G01X9760061Y-6611298D01*
G01X9757013Y-6617394D01*
G01X9757013Y-6623744D01*
G01X9760061Y-6629840D01*
G01X9766157Y-6632888D01*
G01X9778603Y-6635936D01*
G01X9788001Y-6639238D01*
G01X9794097Y-6645334D01*
G01X9797145Y-6651430D01*
G01X9797145Y-6660828D01*
G01X9794097Y-6666924D01*
G01X9791049Y-6670226D01*
G01X9781651Y-6673274D01*
G01X9769205Y-6673274D01*
G01X9760061Y-6670226D01*
G01X9757013Y-6666924D01*
G01X9753965Y-6660828D01*
G01X9753965Y-6651430D01*
G01X9757013Y-6645334D01*
G01X9763109Y-6639238D01*
G01X9772507Y-6635936D01*
G01X9784699Y-6632888D01*
G01X9791049Y-6629840D01*
G01X9794097Y-6623744D01*
G01X9794097Y-6617394D01*
G01X9791049Y-6611298D01*
G01X9781651Y-6608250D01*
G01X9769205Y-6608250D01*
G01X8333398Y-1120181D02*
G01X8333398Y-1073699D01*
G01X8330350Y-1064555D01*
G01X8324000Y-1058205D01*
G01X8314856Y-1055157D01*
G01X8308506Y-1055157D01*
G01X8299362Y-1058205D01*
G01X8293266Y-1064555D01*
G01X8289964Y-1073699D01*
G01X8289964Y-1120181D01*
G01X8216558Y-1120181D02*
G01X8247546Y-1055157D01*
G01X8259738Y-1120181D02*
G01X8216558Y-1120181D01*
G01X5003119Y-7855966D02*
G01X5003119Y-7920990D01*
G01X5046553Y-7855966D02*
G01X5046553Y-7920990D01*
G01X5003119Y-7886954D02*
G01X5046553Y-7886954D01*
G01X5079827Y-7871460D02*
G01X5079827Y-7868412D01*
G01X5082875Y-7862062D01*
G01X5085923Y-7859014D01*
G01X5092019Y-7855966D01*
G01X5104465Y-7855966D01*
G01X5110815Y-7859014D01*
G01X5113863Y-7862062D01*
G01X5116911Y-7868412D01*
G01X5116911Y-7874508D01*
G01X5113863Y-7880604D01*
G01X5107513Y-7890002D01*
G01X5076779Y-7920990D01*
G01X5119959Y-7920990D01*
G01X5557520Y-7449566D02*
G01X5557520Y-7514590D01*
G01X5600954Y-7449566D02*
G01X5600954Y-7514590D01*
G01X5557520Y-7480554D02*
G01X5600954Y-7480554D01*
G01X5661914Y-7449566D02*
G01X5631180Y-7492746D01*
G01X5677408Y-7492746D01*
G01X5661914Y-7449566D02*
G01X5661914Y-7514590D01*
G04 Text End*

G04 PolygonModel Start*
G01X9613900Y-8981369D02*
G01X9791700Y-8981369D01*
G01X9530456Y-6104375D02*
G01X9530456Y-6282175D01*
G54D11*
G01X7857828Y-4282448D02*
G01X7857828Y-4109728D01*
G01X7946728Y-4198628D02*
G01X7779088Y-4198628D01*
G36*
G01X9055097Y-4838700D02*
G01X9055097Y-3619500D01*
G02X9055097Y-4838700I-525317J-609600D01*
G37*
G54D10*
G01X6797820Y-2602039D02*
G01X6656819Y-2602039D01*
G01X6656819Y-2782760D02*
G01X6797820Y-2782760D01*
G01X6813060Y-2767520D02*
G01X6813060Y-2617279D01*
G01X6435580Y-2602039D02*
G01X6576581Y-2602039D01*
G01X6576581Y-2782760D02*
G01X6435580Y-2782760D01*
G01X6420340Y-2767520D02*
G01X6420340Y-2617279D01*
G01X6797820Y-2782760D02*
G03X6813060Y-2767520I0J15240D01*
G01X6813060Y-2617279D02*
G03X6797820Y-2602039I-15240J0D01*
G01X6435580Y-2782760D02*
G02X6420340Y-2767520I0J15240D01*
G01X6420340Y-2617279D02*
G02X6435580Y-2602039I15240J0D01*
G01X7254369Y-2788552D02*
G01X7395370Y-2788552D01*
G01X7395370Y-2607831D02*
G01X7254369Y-2607831D01*
G01X7239129Y-2623071D02*
G01X7239129Y-2773312D01*
G01X7616609Y-2788552D02*
G01X7475608Y-2788552D01*
G01X7475608Y-2607831D02*
G01X7616609Y-2607831D01*
G01X7631849Y-2623071D02*
G01X7631849Y-2773312D01*
G01X7254369Y-2607831D02*
G03X7239129Y-2623071I0J-15240D01*
G01X7239129Y-2773312D02*
G03X7254369Y-2788552I15240J0D01*
G01X7616609Y-2607831D02*
G02X7631849Y-2623071I0J-15240D01*
G01X7631849Y-2773312D02*
G02X7616609Y-2788552I-15240J0D01*
G54D12*
G01X7108800Y-4139100D02*
G01X7208799Y-4139100D01*
G01X7158800Y-4089100D02*
G01X7158800Y-4189100D01*
G01X6598801Y-4359100D02*
G01X6698800Y-4359100D01*
G01X6548801Y-4649099D02*
G01X6648801Y-4649099D01*
G01X7228799Y-3859101D02*
G01X7328799Y-3859101D01*
G01X7278799Y-3809101D02*
G01X7278799Y-3909101D01*
G01X6718808Y-4119118D02*
G03X6658864Y-4119118I-29972J-1294D01*
G01X6598920Y-4119118D02*
G03X6658864Y-4119118I29972J1294D01*
G01X7218680Y-4339082D02*
G03X7158736Y-4339082I-29972J-1294D01*
G01X7098792Y-4339082D02*
G03X7158736Y-4339082I29972J1294D01*
G54D11*
G01X6611953Y-4580486D02*
G03X7200227Y-4584995I296847J351385D01*
G01X7272777Y-4510364D02*
G03X7263557Y-3936294I-363979J281263D01*
G01X7196513Y-3870198D02*
G03X6619611Y-3871387I-287713J-358903D01*
G01X6558219Y-3931303D02*
G03X6569403Y-4539582I350581J-297797D01*
G01X8674100Y-2895600D02*
G01X8674100Y-2514600D01*
G01X8293100Y-2552700D02*
G01X8343900Y-2552700D01*
G01X8318500Y-2527300D02*
G01X8318500Y-2578100D01*
G01X8674100Y-2895600D02*
G02X8674100Y-2514600I-253999J190500D01*
G54D10*
G01X8384809Y-1984380D02*
G01X8384809Y-1855887D01*
G01X8384809Y-1855887D02*
G01X8201391Y-1855887D01*
G01X8201391Y-1855887D02*
G01X8201391Y-1984380D01*
G01X8384809Y-2079620D02*
G01X8384809Y-2208113D01*
G01X8384809Y-2208113D02*
G01X8201391Y-2208113D01*
G01X8201391Y-2208113D02*
G01X8201391Y-2079620D01*
G54D11*
G01X6502400Y-1985302D02*
G01X7518400Y-1985302D01*
G01X6502397Y-1860301D02*
G01X7518397Y-1860301D01*
G01X7518400Y-1860301D02*
G01X7518400Y-2318299D01*
G01X7518400Y-2318299D02*
G01X6502400Y-2318299D01*
G01X6502400Y-2318299D02*
G01X6502400Y-1860301D01*
G01X6235400Y-2312901D02*
G01X6235400Y-1262906D01*
G01X6235400Y-1262906D02*
G01X6335400Y-1262906D01*
G01X6335400Y-1262906D02*
G01X6335400Y-1662900D01*
G01X6335400Y-1662900D02*
G01X6435400Y-1662900D01*
G01X6435400Y-1662900D02*
G01X6435400Y-1262906D01*
G01X6435400Y-1262906D02*
G01X6535400Y-1262906D01*
G01X6535400Y-1262906D02*
G01X6535400Y-1662900D01*
G01X6535400Y-1662900D02*
G01X6635399Y-1662900D01*
G01X6635399Y-1662900D02*
G01X6635399Y-1262906D01*
G01X6635399Y-1262906D02*
G01X6735402Y-1262906D01*
G01X6735402Y-1262906D02*
G01X6735402Y-1662900D01*
G01X7133747Y-1662900D02*
G01X7285396Y-1662900D01*
G01X6735402Y-1662900D02*
G01X6887053Y-1662900D01*
G01X6235400Y-2312901D02*
G01X6335400Y-2312901D01*
G01X6335400Y-2312901D02*
G01X6335400Y-1862899D01*
G01X6335400Y-1862899D02*
G01X7685395Y-1862899D01*
G01X7685395Y-1862899D02*
G01X7685395Y-2312901D01*
G01X7685395Y-2312901D02*
G01X7785395Y-2312901D01*
G01X7785395Y-2312901D02*
G01X7785395Y-1262906D01*
G01X7785395Y-1262906D02*
G01X7685395Y-1262906D01*
G01X7685395Y-1262906D02*
G01X7685395Y-1662900D01*
G01X7685395Y-1662900D02*
G01X7585395Y-1662900D01*
G01X7585395Y-1662900D02*
G01X7585395Y-1262906D01*
G01X7585395Y-1262906D02*
G01X7485395Y-1262906D01*
G01X7485395Y-1262906D02*
G01X7485395Y-1662900D01*
G01X7485395Y-1662900D02*
G01X7385395Y-1662900D01*
G01X7385395Y-1662900D02*
G01X7385395Y-1262906D01*
G01X7385395Y-1262906D02*
G01X7285396Y-1262906D01*
G01X7285396Y-1262906D02*
G01X7285396Y-1662900D01*
G01X7911313Y-6144387D02*
G01X7809713Y-6144387D01*
G01X7859700Y-6194400D02*
G01X7859700Y-6092800D01*
G36*
G01X7580300Y-6159500D02*
G02X7580300Y-5829300I157746J165100D01*
G01X7580300Y-6159500D01*
G37*
G01X7968899Y-5486700D02*
G01X7448901Y-5486700D01*
G01X7448901Y-5486700D02*
G01X7448901Y-5206700D01*
G01X7968899Y-5206700D02*
G01X7448901Y-5206700D01*
G01X7968899Y-5486700D02*
G01X7968899Y-5206700D01*
G01X7872974Y-5486700D02*
G01X7872974Y-5206700D01*
G01X8800800Y-7029099D02*
G01X8800800Y-6509101D01*
G01X8800800Y-6509101D02*
G01X9080800Y-6509101D01*
G01X9080800Y-7029099D02*
G01X9080800Y-6509101D01*
G01X8800800Y-7029099D02*
G01X9080800Y-7029099D01*
G01X8800800Y-6933174D02*
G01X9080800Y-6933174D01*
G01X9715500Y-8204200D02*
G01X9715500Y-7823200D01*
G01X9334500Y-7861300D02*
G01X9385300Y-7861300D01*
G01X9359900Y-7835900D02*
G01X9359900Y-7886700D01*
G01X9715500Y-8204200D02*
G02X9715500Y-7823200I-253999J190500D01*
G01X7505700Y-6718313D02*
G01X7505700Y-6565913D01*
G01X7505700Y-6565913D02*
G01X6972300Y-6565913D01*
G01X6972300Y-7581913D02*
G01X7505700Y-7581913D01*
G01X7505700Y-7581913D02*
G01X7505700Y-7442213D01*
G01X6642100Y-7581913D02*
G01X6248400Y-7581913D01*
G01X6248400Y-7581913D02*
G01X6248400Y-6565913D01*
G01X6248400Y-6565913D02*
G01X6642100Y-6565913D01*
G54D10*
G01X8715380Y-7921991D02*
G01X8586887Y-7921991D01*
G01X8586887Y-7921991D02*
G01X8586887Y-8105409D01*
G01X8586887Y-8105409D02*
G01X8715380Y-8105409D01*
G01X8810620Y-7921991D02*
G01X8939113Y-7921991D01*
G01X8939113Y-7921991D02*
G01X8939113Y-8105409D01*
G01X8939113Y-8105409D02*
G01X8810620Y-8105409D01*
G54D11*
G01X7026387Y-7983698D02*
G01X8086588Y-7983698D01*
G01X8086588Y-7983698D02*
G01X8086588Y-8463506D01*
G01X8086588Y-8463506D02*
G01X7026387Y-8463506D01*
G01X7026387Y-8463506D02*
G01X7026387Y-7984206D01*
G01X7026387Y-7984206D02*
G01X7026387Y-7983698D01*
G01X8086484Y-8043614D02*
G01X7026491Y-8043614D01*
G54D13*
G01X7279490Y-8526104D02*
G03X7279617Y-8566104I127J-20000D01*
G03X7279744Y-8526104I0J20000D01*
G54D11*
G01X8318800Y-8037599D02*
G01X8318800Y-9087594D01*
G01X8318800Y-9087594D02*
G01X8218800Y-9087594D01*
G01X8218800Y-9087594D02*
G01X8218800Y-8687600D01*
G01X8218800Y-8687600D02*
G01X8118800Y-8687600D01*
G01X8118800Y-8687600D02*
G01X8118800Y-9087594D01*
G01X8118800Y-9087594D02*
G01X8018800Y-9087594D01*
G01X8018800Y-9087594D02*
G01X8018800Y-8687600D01*
G01X8018800Y-8687600D02*
G01X7918801Y-8687600D01*
G01X7918801Y-8687600D02*
G01X7918801Y-9087594D01*
G01X7918801Y-9087594D02*
G01X7818798Y-9087594D01*
G01X7818798Y-9087594D02*
G01X7818798Y-8687600D01*
G01X7420453Y-8687600D02*
G01X7268804Y-8687600D01*
G01X7818798Y-8687600D02*
G01X7667147Y-8687600D01*
G01X8318800Y-8037599D02*
G01X8218800Y-8037599D01*
G01X8218800Y-8037599D02*
G01X8218800Y-8487600D01*
G01X8218800Y-8487600D02*
G01X6868805Y-8487600D01*
G01X6868805Y-8487600D02*
G01X6868805Y-8037599D01*
G01X6868805Y-8037599D02*
G01X6768805Y-8037599D01*
G01X6768805Y-8037599D02*
G01X6768805Y-9087594D01*
G01X6768805Y-9087594D02*
G01X6868805Y-9087594D01*
G01X6868805Y-9087594D02*
G01X6868805Y-8687600D01*
G01X6868805Y-8687600D02*
G01X6968805Y-8687600D01*
G01X6968805Y-8687600D02*
G01X6968805Y-9087594D01*
G01X6968805Y-9087594D02*
G01X7068805Y-9087594D01*
G01X7068805Y-9087594D02*
G01X7068805Y-8687600D01*
G01X7068805Y-8687600D02*
G01X7168805Y-8687600D01*
G01X7168805Y-8687600D02*
G01X7168805Y-9087594D01*
G01X7168805Y-9087594D02*
G01X7268804Y-9087594D01*
G01X7268804Y-9087594D02*
G01X7268804Y-8687600D01*
G54D10*
G01X8467720Y-6086109D02*
G01X8596213Y-6086109D01*
G01X8596213Y-6086109D02*
G01X8596213Y-5902691D01*
G01X8596213Y-5902691D02*
G01X8467720Y-5902691D01*
G01X8372480Y-6086109D02*
G01X8243987Y-6086109D01*
G01X8243987Y-6086109D02*
G01X8243987Y-5902691D01*
G01X8243987Y-5902691D02*
G01X8372480Y-5902691D01*
G01X8385320Y-7339139D02*
G01X8244319Y-7339139D01*
G01X8244319Y-7519860D02*
G01X8385320Y-7519860D01*
G01X8400560Y-7504620D02*
G01X8400560Y-7354379D01*
G01X8023080Y-7339139D02*
G01X8164081Y-7339139D01*
G01X8164081Y-7519860D02*
G01X8023080Y-7519860D01*
G01X8007840Y-7504620D02*
G01X8007840Y-7354379D01*
G01X8385320Y-7519860D02*
G03X8400560Y-7504620I0J15240D01*
G01X8400560Y-7354379D02*
G03X8385320Y-7339139I-15240J0D01*
G01X8023080Y-7519860D02*
G02X8007840Y-7504620I0J15240D01*
G01X8007840Y-7354379D02*
G02X8023080Y-7339139I15240J0D01*
G54D11*
G01X9784150Y-9415850D02*
G01X9415850Y-9784150D01*
G01X9415850Y-9415850D02*
G01X9784150Y-9784150D01*
G54D10*
G01X8585860Y-8383620D02*
G01X8726861Y-8383620D01*
G01X8726861Y-8202899D02*
G01X8585860Y-8202899D01*
G01X8570620Y-8218139D02*
G01X8570620Y-8368380D01*
G01X8948100Y-8383620D02*
G01X8807099Y-8383620D01*
G01X8807099Y-8202899D02*
G01X8948100Y-8202899D01*
G01X8963340Y-8218139D02*
G01X8963340Y-8368380D01*
G01X8585860Y-8202899D02*
G03X8570620Y-8218139I0J-15240D01*
G01X8570620Y-8368380D02*
G03X8585860Y-8383620I15240J0D01*
G01X8948100Y-8202899D02*
G02X8963340Y-8218139I0J-15240D01*
G01X8963340Y-8368380D02*
G02X8948100Y-8383620I-15240J0D01*
G54D11*
G01X584150Y-9415850D02*
G01X215850Y-9784150D01*
G01X215850Y-9415850D02*
G01X584150Y-9784150D01*
G01X584150Y-215850D02*
G01X215850Y-584150D01*
G01X215850Y-215850D02*
G01X584150Y-584150D01*
G01X9784150Y-215850D02*
G01X9415850Y-584150D01*
G01X9415850Y-215850D02*
G01X9784150Y-584150D01*
G01X7261323Y-686312D02*
G01X7341325Y-686312D01*
G01X7230337Y-797287D02*
G01X7230337Y-717290D01*
G01X7372303Y-797287D02*
G01X7372303Y-717290D01*
G01X7229756Y-854877D02*
G01X7229756Y-934876D01*
G01X7260739Y-965859D02*
G01X7340736Y-965859D01*
G01X7371716Y-854877D02*
G01X7371716Y-934876D01*
G01X7260739Y-965864D02*
G02X7229756Y-934882I0J30983D01*
G01X7371721Y-934882D02*
G02X7340736Y-965864I-30983J0D01*
G01X7230337Y-717295D02*
G02X7261323Y-686312I30983J0D01*
G01X7341320Y-686312D02*
G02X7372303Y-717295I0J-30983D01*
G01X7007323Y-686312D02*
G01X7087325Y-686312D01*
G01X6976337Y-797287D02*
G01X6976337Y-717290D01*
G01X7118303Y-797287D02*
G01X7118303Y-717290D01*
G01X6975756Y-854877D02*
G01X6975756Y-934876D01*
G01X7006739Y-965859D02*
G01X7086736Y-965859D01*
G01X7117716Y-854877D02*
G01X7117716Y-934876D01*
G01X7006739Y-965864D02*
G02X6975756Y-934882I0J30983D01*
G01X7117721Y-934882D02*
G02X7086736Y-965864I-30983J0D01*
G01X6976337Y-717295D02*
G02X7007323Y-686312I30983J0D01*
G01X7087320Y-686312D02*
G02X7118303Y-717295I0J-30983D01*
G01X8684923Y-507394D02*
G01X8764925Y-507394D01*
G01X8653937Y-618369D02*
G01X8653937Y-538372D01*
G01X8795903Y-618369D02*
G01X8795903Y-538372D01*
G01X8653356Y-675958D02*
G01X8653356Y-755958D01*
G01X8684339Y-786941D02*
G01X8764336Y-786941D01*
G01X8795316Y-675958D02*
G01X8795316Y-755958D01*
G01X8684339Y-786946D02*
G02X8653356Y-755963I0J30983D01*
G01X8795322Y-755963D02*
G02X8764336Y-786946I-30983J0D01*
G01X8653937Y-538377D02*
G02X8684923Y-507394I30983J0D01*
G01X8764920Y-507394D02*
G02X8795903Y-538377I0J-30983D01*
G01X8480523Y-508512D02*
G01X8560525Y-508512D01*
G01X8449537Y-619487D02*
G01X8449537Y-539490D01*
G01X8591503Y-619487D02*
G01X8591503Y-539490D01*
G01X8448956Y-677077D02*
G01X8448956Y-757076D01*
G01X8479939Y-788059D02*
G01X8559936Y-788059D01*
G01X8590916Y-677077D02*
G01X8590916Y-757076D01*
G01X8479939Y-788064D02*
G02X8448956Y-757082I0J30983D01*
G01X8590921Y-757082D02*
G02X8559936Y-788064I-30983J0D01*
G01X8449537Y-539495D02*
G02X8480523Y-508512I30983J0D01*
G01X8560520Y-508512D02*
G02X8591503Y-539495I0J-30983D01*
G01X9570900Y-931499D02*
G01X9824900Y-931499D01*
G01X9570900Y-1989501D02*
G01X9570900Y-931499D01*
G01X9570900Y-1712148D02*
G01X9824900Y-1712148D01*
G01X9824900Y-1989501D02*
G01X9824900Y-931499D01*
G01X9570900Y-1989501D02*
G01X9824900Y-1989501D01*
G01X9131300Y-944199D02*
G01X9385300Y-944199D01*
G01X9131300Y-2002201D02*
G01X9131300Y-944199D01*
G01X9131300Y-1724848D02*
G01X9385300Y-1724848D01*
G01X9385300Y-2002201D02*
G01X9385300Y-944199D01*
G01X9131300Y-2002201D02*
G01X9385300Y-2002201D01*
G01X8674100Y-931499D02*
G01X8928100Y-931499D01*
G01X8674100Y-1989501D02*
G01X8674100Y-931499D01*
G01X8674100Y-1712148D02*
G01X8928100Y-1712148D01*
G01X8928100Y-1989501D02*
G01X8928100Y-931499D01*
G01X8674100Y-1989501D02*
G01X8928100Y-1989501D01*
G54D10*
G01X8084163Y-340386D02*
G01X8084163Y-1005627D01*
G01X8084163Y-1005627D02*
G01X7789884Y-1005627D01*
G01X7789884Y-1005627D02*
G01X7789884Y-340386D01*
G01X7789884Y-340386D02*
G01X8084163Y-340386D01*
G54D11*
G01X6066201Y-7975600D02*
G01X6066201Y-8229600D01*
G01X5008199Y-7975600D02*
G01X6066201Y-7975600D01*
G01X5285552Y-7975600D02*
G01X5285552Y-8229600D01*
G01X5008199Y-8229600D02*
G01X6066201Y-8229600D01*
G01X5008199Y-7975600D02*
G01X5008199Y-8229600D01*

G04 Rect Start*
G54D10*
G01X9613900Y-9237837D02*
G01X9613900Y-8724900D01*
G01X9791700Y-8724900D01*
G01X9791700Y-9237837D01*
G01X9613900Y-9237837D01*
G01X9797865Y-6282176D02*
G01X9280365Y-6282176D01*
G01X9280365Y-6102063D01*
G01X9797865Y-6102063D01*
G01X9797865Y-6282176D01*
G54D11*
G01X5361991Y-6845300D02*
G01X762000Y-6845300D01*
G01X762000Y-1845310D01*
G01X5361991Y-1845310D01*
G01X5361991Y-6845300D01*
G01X4412894Y-8145297D02*
G01X1712900Y-8145297D01*
G01X1712900Y-6845300D01*
G01X4412894Y-6845300D01*
G01X4412894Y-8145297D01*
G01X4412005Y-1845310D02*
G01X1712011Y-1845310D01*
G01X1712011Y-545313D01*
G01X4412005Y-545313D01*
G01X4412005Y-1845310D01*
G01X139700Y-4044391D02*
G01X393700Y-4044391D01*
G01X393700Y-4552391D01*
G01X139700Y-4552391D01*
G01X139700Y-4044391D01*
G01X9601200Y-9232900D02*
G01X9347200Y-9232900D01*
G01X9347200Y-8724900D01*
G01X9601200Y-8724900D01*
G01X9601200Y-9232900D01*
G01X9283700Y-6540500D02*
G01X9283700Y-6286500D01*
G01X9791700Y-6286500D01*
G01X9791700Y-6540500D01*
G01X9283700Y-6540500D01*
G01X5562600Y-7823200D02*
G01X5562600Y-7569200D01*
G01X6070600Y-7569200D01*
G01X6070600Y-7823200D01*
G01X5562600Y-7823200D01*
G04 Rect End*

G04 Circle Start*
G01X7734414Y-4229100D02*
G03X9334411Y-4229100I799998J0D01*
G03X7734414Y-4229100I-799998J0D01*
G01X8166100Y-2705100D02*
G03X8674100Y-2705100I254000J0D01*
G03X8166100Y-2705100I-254000J0D01*
G54D14*
G01X5980384Y-4247591D02*
G03X6208984Y-4247591I114300J0D01*
G03X5980384Y-4247591I-114300J0D01*
G01X9102248Y-5372293D02*
G03X9330848Y-5372293I114300J0D01*
G03X9102248Y-5372293I-114300J0D01*
G01X8204200Y-1485900D02*
G03X8432800Y-1485900I114300J0D01*
G03X8204200Y-1485900I-114300J0D01*
G01X9258300Y-3124200D02*
G03X9486900Y-3124200I114300J0D01*
G03X9258300Y-3124200I-114300J0D01*
G54D16*
G01X6741396Y-2368309D02*
G03X6771419Y-2368309I15011J0D01*
G03X6741396Y-2368309I-15011J0D01*
G01X7509688Y-5994400D02*
G03X8009712Y-5994400I250012J0D01*
G03X7509688Y-5994400I-250012J0D01*
G54D11*
G01X9207500Y-8013700D02*
G03X9715500Y-8013700I254000J0D01*
G03X9207500Y-8013700I-254000J0D01*
G01X6631419Y-7073900D02*
G03X7186155Y-7073900I277368J0D01*
G03X6631419Y-7073900I-277368J0D01*
G01X9333300Y-9600000D02*
G03X9866700Y-9600000I266700J0D01*
G03X9333300Y-9600000I-266700J0D01*
G54D14*
G01X9494500Y-7197039D02*
G03X9723100Y-7197039I114300J0D01*
G03X9494500Y-7197039I-114300J0D01*
G01X8581799Y-9486501D02*
G03X8810399Y-9486501I114300J0D01*
G03X8581799Y-9486501I-114300J0D01*
G01X8558098Y-8746439D02*
G03X8786698Y-8746439I114300J0D01*
G03X8558098Y-8746439I-114300J0D01*
G54D11*
G01X133300Y-9600000D02*
G03X666700Y-9600000I266700J0D01*
G03X133300Y-9600000I-266700J0D01*
G01X133300Y-400000D02*
G03X666700Y-400000I266700J0D01*
G03X133300Y-400000I-266700J0D01*
G01X9333300Y-400000D02*
G03X9866700Y-400000I266700J0D01*
G03X9333300Y-400000I-266700J0D01*
G04 Circle End*

M02*

