G04 Layer: TopPasteMaskLayer*
G04 EasyEDA Pro v3.2.166, 2026-07-28 22:39:37*
G04 Gerber Generator version 0.3*
G04 Scale: 100 percent, Rotated: No, Reflected: No*
G04 Dimensions in millimeters*
G04 Leading zeros omitted, absolute positions, 4 integers and 5 decimals*
G04 Generated by one-click*
G04 Object Configs: Pad,Via,Track,Text,Image,Dimension,BoardOutline,BoardCutout,CopperFilled,SolidRegion,FPCStiffener,Line,PlaneZone,ComponentProperty,ComponentSilkscreen,TearDrop*
G04 Layer Configs: 1,2,3,4,5,6,7,8,9,10,11,13,14,56*
G04 Copper Areas: 0*
%FSLAX45Y45*%
%MOMM*%
%ADD10R,0.9X0.8*%
%ADD11R,2.49999X1.1*%
%ADD12R,2.34X3.59999*%
%ADD13C,0.4917*%
G75*


G04 PolygonModel Start*
G36*
G01X6446203Y-2756400D02*
G01X6446203Y-2628402D01*
G01X6451204Y-2623401D01*
G01X6566205Y-2623401D01*
G01X6571204Y-2628402D01*
G01X6571706Y-2669405D01*
G01X6526705Y-2669405D01*
G01X6526705Y-2714404D01*
G01X6570706Y-2714404D01*
G01X6571204Y-2756400D01*
G01X6566205Y-2761402D01*
G01X6451204Y-2761402D01*
G01X6446203Y-2756400D01*
G37*
G36*
G01X6787198Y-2628400D02*
G01X6787198Y-2756398D01*
G01X6782196Y-2761399D01*
G01X6667195Y-2761399D01*
G01X6662196Y-2756398D01*
G01X6661694Y-2715395D01*
G01X6706695Y-2715395D01*
G01X6706695Y-2670396D01*
G01X6662694Y-2670396D01*
G01X6662196Y-2628400D01*
G01X6667195Y-2623398D01*
G01X6782196Y-2623398D01*
G01X6787198Y-2628400D01*
G37*
G36*
G01X7605986Y-2634191D02*
G01X7605986Y-2762189D01*
G01X7600985Y-2767190D01*
G01X7485984Y-2767190D01*
G01X7480985Y-2762189D01*
G01X7480482Y-2721186D01*
G01X7525484Y-2721186D01*
G01X7525484Y-2676187D01*
G01X7481483Y-2676187D01*
G01X7480985Y-2634191D01*
G01X7485984Y-2629190D01*
G01X7600985Y-2629190D01*
G01X7605986Y-2634191D01*
G37*
G36*
G01X7264991Y-2762192D02*
G01X7264991Y-2634193D01*
G01X7269993Y-2629192D01*
G01X7384994Y-2629192D01*
G01X7389992Y-2634193D01*
G01X7390495Y-2675197D01*
G01X7345494Y-2675197D01*
G01X7345494Y-2720195D01*
G01X7389494Y-2720195D01*
G01X7389992Y-2762192D01*
G01X7384994Y-2767193D01*
G01X7269993Y-2767193D01*
G01X7264991Y-2762192D01*
G37*
G36*
G01X8357100Y-2202002D02*
G01X8229102Y-2202002D01*
G01X8224101Y-2197001D01*
G01X8224101Y-2082000D01*
G01X8229102Y-2077001D01*
G01X8270105Y-2076498D01*
G01X8270105Y-2121499D01*
G01X8315104Y-2121499D01*
G01X8315104Y-2077499D01*
G01X8357100Y-2077001D01*
G01X8362102Y-2082000D01*
G01X8362102Y-2197001D01*
G01X8357100Y-2202002D01*
G37*
G36*
G01X8357100Y-1987001D02*
G01X8315104Y-1986999D01*
G01X8315104Y-1942501D01*
G01X8270105Y-1942501D01*
G01X8270105Y-1986498D01*
G01X8229102Y-1987001D01*
G01X8224101Y-1982000D01*
G01X8224101Y-1867002D01*
G01X8229102Y-1862000D01*
G01X8357100Y-1862000D01*
G01X8362102Y-1867002D01*
G01X8362102Y-1982000D01*
G01X8357100Y-1987001D01*
G37*
G36*
G01X8933002Y-7949700D02*
G01X8933002Y-8077698D01*
G01X8928001Y-8082699D01*
G01X8813000Y-8082699D01*
G01X8808001Y-8077698D01*
G01X8807498Y-8036695D01*
G01X8852499Y-8036695D01*
G01X8852499Y-7991696D01*
G01X8808499Y-7991696D01*
G01X8808001Y-7949700D01*
G01X8813000Y-7944698D01*
G01X8928001Y-7944698D01*
G01X8933002Y-7949700D01*
G37*
G36*
G01X8718001Y-7949700D02*
G01X8717999Y-7991696D01*
G01X8673501Y-7991696D01*
G01X8673501Y-8036695D01*
G01X8717498Y-8036695D01*
G01X8718001Y-8077698D01*
G01X8713000Y-8082699D01*
G01X8598002Y-8082699D01*
G01X8593000Y-8077698D01*
G01X8593000Y-7949700D01*
G01X8598002Y-7944698D01*
G01X8713000Y-7944698D01*
G01X8718001Y-7949700D01*
G37*
G36*
G01X8250098Y-6058400D02*
G01X8250098Y-5930402D01*
G01X8255099Y-5925401D01*
G01X8370100Y-5925401D01*
G01X8375099Y-5930402D01*
G01X8375602Y-5971405D01*
G01X8330601Y-5971405D01*
G01X8330601Y-6016404D01*
G01X8374601Y-6016404D01*
G01X8375099Y-6058400D01*
G01X8370100Y-6063402D01*
G01X8255099Y-6063402D01*
G01X8250098Y-6058400D01*
G37*
G36*
G01X8465099Y-6058400D02*
G01X8465101Y-6016404D01*
G01X8509599Y-6016404D01*
G01X8509599Y-5971405D01*
G01X8465602Y-5971405D01*
G01X8465099Y-5930402D01*
G01X8470100Y-5925401D01*
G01X8585098Y-5925401D01*
G01X8590100Y-5930402D01*
G01X8590100Y-6058400D01*
G01X8585098Y-6063402D01*
G01X8470100Y-6063402D01*
G01X8465099Y-6058400D01*
G37*
G36*
G01X8033703Y-7493500D02*
G01X8033703Y-7365502D01*
G01X8038704Y-7360501D01*
G01X8153705Y-7360501D01*
G01X8158704Y-7365502D01*
G01X8159206Y-7406505D01*
G01X8114205Y-7406505D01*
G01X8114205Y-7451504D01*
G01X8158206Y-7451504D01*
G01X8158704Y-7493500D01*
G01X8153705Y-7498502D01*
G01X8038704Y-7498502D01*
G01X8033703Y-7493500D01*
G37*
G36*
G01X8374698Y-7365500D02*
G01X8374698Y-7493498D01*
G01X8369696Y-7498499D01*
G01X8254695Y-7498499D01*
G01X8249696Y-7493498D01*
G01X8249194Y-7452495D01*
G01X8294195Y-7452495D01*
G01X8294195Y-7407496D01*
G01X8250194Y-7407496D01*
G01X8249696Y-7365500D01*
G01X8254695Y-7360498D01*
G01X8369696Y-7360498D01*
G01X8374698Y-7365500D01*
G37*
G36*
G01X8937478Y-8229259D02*
G01X8937478Y-8357257D01*
G01X8932476Y-8362259D01*
G01X8817475Y-8362259D01*
G01X8812477Y-8357257D01*
G01X8811974Y-8316254D01*
G01X8856975Y-8316254D01*
G01X8856975Y-8271255D01*
G01X8812975Y-8271255D01*
G01X8812477Y-8229259D01*
G01X8817475Y-8224258D01*
G01X8932476Y-8224258D01*
G01X8937478Y-8229259D01*
G37*
G36*
G01X8596483Y-8357260D02*
G01X8596483Y-8229262D01*
G01X8601484Y-8224260D01*
G01X8716485Y-8224260D01*
G01X8721484Y-8229262D01*
G01X8721987Y-8270265D01*
G01X8676985Y-8270265D01*
G01X8676985Y-8315264D01*
G01X8720986Y-8315264D01*
G01X8721484Y-8357260D01*
G01X8716485Y-8362261D01*
G01X8601484Y-8362261D01*
G01X8596483Y-8357260D01*
G37*

G04 Pad Start*
G54D10*
G01X7301300Y-755311D03*
G01X7301300Y-895316D03*
G01X7047300Y-755311D03*
G01X7047300Y-895316D03*
G01X8724900Y-576393D03*
G01X8724900Y-716398D03*
G01X8520500Y-577511D03*
G01X8520500Y-717516D03*
G54D11*
G01X7630027Y-443010D03*
G01X7630027Y-673007D03*
G01X7630027Y-903004D03*
G54D12*
G01X8224018Y-673007D03*
G04 Pad End*

M02*

