G04 Layer: TopSolderMaskLayer*
G04 EasyEDA Pro v3.2.166, 2026-07-28 22:39:37*
G04 Gerber Generator version 0.3*
G04 Scale: 100 percent, Rotated: No, Reflected: No*
G04 Dimensions in millimeters*
G04 Leading zeros omitted, absolute positions, 4 integers and 5 decimals*
G04 Generated by one-click*
G04 Object Configs: Pad,Via,Track,Text,Image,Dimension,BoardOutline,BoardCutout,CopperFilled,SolidRegion,FPCStiffener,Line,PlaneZone,ComponentProperty,ComponentSilkscreen,TearDrop*
G04 Layer Configs: 1,2,3,4,5,6,7,8,9,10,11,13,14,56*
G04 Copper Areas: 0*
%FSLAX45Y45*%
%MOMM*%
%AMRoundRect*1,1,$1,$2,$3*1,1,$1,$4,$5*1,1,$1,0-$2,0-$3*1,1,$1,0-$4,0-$5*20,1,$1,$2,$3,$4,$5,0*20,1,$1,$4,$5,0-$2,0-$3,0*20,1,$1,0-$2,0-$3,0-$4,0-$5,0*20,1,$1,0-$4,0-$5,$2,$3,0*4,1,4,$2,$3,$4,$5,0-$2,0-$3,0-$4,0-$5,$2,$3,0*%
%ADD10C,2.3016*%
%ADD11RoundRect,0.1016X-0.705X0.67501X0.705X0.67501*%
%ADD12C,1.7016*%
%ADD13RoundRect,0.1016X-0.8X-0.8X-0.8X0.8*%
%ADD14RoundRect,0.1016X-0.8X0.8X0.8X0.8*%
%ADD15RoundRect,0.1016X-0.68851X-0.56627X-0.68851X0.56627*%
%ADD16C,1.9034*%
%ADD17C,1.9*%
%ADD18C,3.10159*%
%ADD19O,2.1016X1.6016*%
%ADD20RoundRect,0.1016X-1.0X0.75X1.0X0.75*%
%ADD21C,2.1016*%
%ADD22C,1.4016*%
%ADD23C,1.9016*%
%ADD24O,3.10159X3.00159*%
%ADD25RoundRect,0.1016X-0.56627X0.68851X0.56627X0.68851*%
%ADD26O,1.9016X2.70159*%
%ADD27RoundRect,0.1016X-0.9X1.3X0.9X1.3*%
%ADD28C,3.4036*%
%ADD29RoundRect,0.1016X-0.45X-0.4X-0.45X0.4*%
%ADD30RoundRect,0.1016X-0.9X-0.9X-0.9X0.9*%
%ADD31RoundRect,0.1016X-0.85X-0.85X-0.85X0.85*%
%ADD32C,1.8016*%
%ADD33RoundRect,0.1016X-0.9X0.9X0.9X0.9*%
%ADD34RoundRect,0.1016X-1.25X0.55X1.25X0.55*%
%ADD35RoundRect,0.1016X-1.17X1.8X1.17X1.8*%
%ADD36RoundRect,0.1016X-0.85X0.85X0.85X0.85*%
G75*


G04 Pad Start*
G54D10*
G01X8909393Y-4229100D03*
G01X8159407Y-4229100D03*
G54D11*
G01X6716700Y-2692400D03*
G01X6516700Y-2692400D03*
G01X7335489Y-2698191D03*
G01X7535489Y-2698191D03*
G54D12*
G01X6654800Y-3975100D03*
G01X6654800Y-4483100D03*
G54D13*
G01X7162800Y-3975100D03*
G54D12*
G01X7162800Y-4483100D03*
G54D14*
G01X8293100Y-2705100D03*
G54D12*
G01X8547100Y-2705100D03*
G54D15*
G01X8293100Y-1932000D03*
G01X8293100Y-2132000D03*
G54D17*
G01X6094684Y-4247591D03*
G01X9216548Y-5372293D03*
G01X8318500Y-1485900D03*
G01X9372600Y-3124200D03*
G54D18*
G01X262001Y-6345301D03*
G01X262001Y-2345309D03*
G01X5861990Y-2345309D03*
G01X5861990Y-6345301D03*
G54D19*
G01X7010408Y-2146313D03*
G01X7264408Y-2146313D03*
G54D20*
G01X6756408Y-2146287D03*
G54D21*
G01X7010400Y-1612900D03*
G54D22*
G01X7859700Y-5994400D03*
G01X7659700Y-5994400D03*
G54D23*
G01X8143900Y-5346700D03*
G01X7273900Y-5346700D03*
G01X8940800Y-7204100D03*
G01X8940800Y-6334100D03*
G54D14*
G01X9334500Y-8013700D03*
G54D12*
G01X9588500Y-8013700D03*
G54D24*
G01X6800101Y-6583909D03*
G01X6800101Y-7563891D03*
G54D23*
G01X7500099Y-6823913D03*
G01X7500099Y-7073900D03*
G01X7500099Y-7323912D03*
G54D25*
G01X8663000Y-8013700D03*
G01X8863000Y-8013700D03*
G54D26*
G01X7556487Y-8292605D03*
G01X7810513Y-8293595D03*
G54D27*
G01X7302487Y-8292605D03*
G54D21*
G01X7543800Y-8737600D03*
G54D25*
G01X8520100Y-5994400D03*
G01X8320100Y-5994400D03*
G54D11*
G01X8304200Y-7429500D03*
G01X8104200Y-7429500D03*
G54D28*
G01X9600000Y-9600000D03*
G54D11*
G01X8666980Y-8293260D03*
G01X8866980Y-8293260D03*
G54D17*
G01X9608800Y-7197039D03*
G01X8696099Y-9486501D03*
G01X8672398Y-8746439D03*
G54D28*
G01X400000Y-9600000D03*
G01X400000Y-400000D03*
G01X9600000Y-400000D03*
G54D29*
G01X7301300Y-755311D03*
G01X7301300Y-895316D03*
G01X7047300Y-755311D03*
G01X7047300Y-895316D03*
G01X8724900Y-576393D03*
G01X8724900Y-716398D03*
G01X8520500Y-577511D03*
G01X8520500Y-717516D03*
G54D23*
G01X266700Y-4425391D03*
G54D30*
G01X266700Y-4171391D03*
G54D23*
G01X9474200Y-8851900D03*
G54D30*
G01X9474200Y-9105900D03*
G54D31*
G01X9697900Y-1841500D03*
G54D32*
G01X9697900Y-1587500D03*
G01X9697900Y-1333500D03*
G01X9697900Y-1079500D03*
G54D31*
G01X9258300Y-1854200D03*
G54D32*
G01X9258300Y-1600200D03*
G01X9258300Y-1346200D03*
G01X9258300Y-1092200D03*
G54D31*
G01X8801100Y-1841500D03*
G54D32*
G01X8801100Y-1587500D03*
G01X8801100Y-1333500D03*
G01X8801100Y-1079500D03*
G54D23*
G01X9664700Y-6413500D03*
G54D33*
G01X9410700Y-6413500D03*
G54D34*
G01X7630027Y-443010D03*
G01X7630027Y-673007D03*
G01X7630027Y-903004D03*
G54D35*
G01X8224018Y-673007D03*
G54D36*
G01X5156200Y-8102600D03*
G54D32*
G01X5410200Y-8102600D03*
G01X5664200Y-8102600D03*
G01X5918200Y-8102600D03*
G54D23*
G01X5943600Y-7696200D03*
G54D33*
G01X5689600Y-7696200D03*
G04 Pad End*

M02*

